{
.appVersion = "1128";
DisplayStrings = (
"Wittstock\012Hermann\012Helga\0121938/endash 20123456789"
);
copyright = "2012 by Jens Kutilek";
customParameters = (
{
name = glyphOrder;
value = (
space,
A,
Agrave,
Aacute,
Acircumflex,
Atilde,
Adieresis,
Aring,
B,
C,
Ccedilla,
D,
E,
Egrave,
Eacute,
Ecircumflex,
Edieresis,
F,
G,
H,
I,
Igrave,
Iacute,
Icircumflex,
Idieresis,
J,
K,
L,
M,
N,
Ntilde,
O,
Ograve,
Oacute,
Ocircumflex,
Otilde,
Odieresis,
P,
Q,
R,
S,
T,
U,
Ugrave,
Uacute,
Ucircumflex,
Udieresis,
V,
W,
X,
Y,
Yacute,
Z,
AE,
Eth,
Oslash,
Thorn,
a,
agrave,
aacute,
acircumflex,
atilde,
adieresis,
aring,
b,
c,
ccedilla,
d,
e,
egrave,
eacute,
ecircumflex,
edieresis,
f,
g,
h,
i,
igrave,
iacute,
icircumflex,
idieresis,
j,
k,
l,
m,
n,
ntilde,
o,
ograve,
oacute,
ocircumflex,
otilde,
odieresis,
p,
q,
r,
s,
t,
u,
ugrave,
uacute,
ucircumflex,
udieresis,
v,
w,
x,
y,
yacute,
ydieresis,
z,
ordfeminine,
ordmasculine,
germandbls,
ae,
eth,
oslash,
thorn,
dotlessi,
mu,
zero,
one,
two,
three,
four,
five,
six,
seven,
eight,
nine,
onequarter,
onehalf,
threequarters,
underscore,
hyphen,
endash,
emdash,
parenleft,
parenright,
bracketleft,
bracketright,
braceleft,
braceright,
quotedbl,
quoteleft,
quoteright,
guillemotleft,
guillemotright,
numbersign,
percent,
asterisk,
period,
comma,
colon,
semicolon,
exclam,
exclamdown,
question,
questiondown,
slash,
backslash,
bar,
brokenbar,
at,
ampersand,
section,
paragraph,
periodcentered,
plus,
minus,
plusminus,
divide,
multiply,
equal,
less,
greater,
logicalnot,
dollar,
cent,
sterling,
currency,
yen,
asciicircum,
asciitilde,
acute,
grave,
hungarumlaut,
circumflex,
caron,
breve,
tilde,
macron,
dieresis,
dotaccent,
ring,
cedilla,
ogonek,
copyright,
registered,
degree,
onesuperior,
threesuperior,
N.001,
O.001,
R.001,
R.002,
S.calt,
K.end,
G.001,
G.002,
G.003,
C_K,
S_T,
T_T,
hands,
hand3,
hands2,
uni271D,
uni270A,
uni271D.alt001,
three.001,
two.002,
two.001,
three.002
);
}
);
date = "2018-04-11 19:05:29 +0000";
designer = "Jens Kutilek";

glyphs = (
{
glyphname = A;
lastChange = "2018-04-11 19:05:46 +0000";
layers = (
{
layerId = "A06561DA-A1C3-4D4F-A301-2F031DFC9FDA";
paths = (
{
closed = 1;
nodes = (
"518 528 LINE",
"1306 528 LINE",
"1256 656 LINE",
"566 656 LINE"
);
},
{
closed = 1;
nodes = (
"1256 290 LINE SMOOTH",
"1316 150 OFFCURVE",
"1302 110 OFFCURVE",
"1048 96 CURVE",
"1044 0 LINE",
"1850 0 LINE",
"1850 0 OFFCURVE",
"1846 96 OFFCURVE",
"1846 96 CURVE",
"1630 120 OFFCURVE",
"1580 218 OFFCURVE",
"1528 340 CURVE SMOOTH",
"1122 1290 LINE",
"828 1290 LINE"
);
},
{
closed = 1;
nodes = (
"368 306 LINE SMOOTH",
"310 154 OFFCURVE",
"282 118 OFFCURVE",
"64 96 CURVE",
"60 0 LINE",
"710 0 LINE",
"710 0 OFFCURVE",
"706 96 OFFCURVE",
"706 96 CURVE",
"488 118 OFFCURVE",
"476 168 OFFCURVE",
"520 286 CURVE SMOOTH",
"900 1290 LINE",
"744 1290 LINE"
);
},
{
closed = 1;
nodes = (
"1054 1468 LINE",
"1020 1490 LINE",
"800 1458 LINE",
"744 1290 LINE",
"1122 1290 LINE"
);
}
);
width = 1906;
}
);
unicode = 0041;
userData = {
com.typemytype.robofont.guides = (
{
angle = 90;
isGlobal = 0;
magnetic = 5;
x = 520;
y = 692;
}
);
com.typemytype.robofont.layerData = {
background = {
anchors = (
);
components = (
);
contours = (
{
points = (
{
segmentType = line;
smooth = 0;
x = 498;
y = 802;
},
{
segmentType = line;
smooth = 0;
x = 498;
y = 674;
},
{
segmentType = line;
smooth = 0;
x = 1614;
y = 674;
},
{
segmentType = line;
smooth = 0;
x = 1614;
y = 802;
}
);
},
{
points = (
{
segmentType = curve;
smooth = 0;
x = 356;
y = 1102;
},
{
segmentType = line;
smooth = 1;
x = 356;
y = 342;
},
{
smooth = 0;
x = 356;
y = 152;
},
{
smooth = 0;
x = 356;
y = 112;
},
{
segmentType = curve;
smooth = 0;
x = 126;
y = 96;
},
{
segmentType = line;
smooth = 0;
x = 122;
y = 0;
},
{
segmentType = line;
smooth = 0;
x = 810;
y = 0;
},
{
smooth = 0;
x = 810;
y = 0;
},
{
smooth = 0;
x = 806;
y = 96;
},
{
segmentType = curve;
smooth = 0;
x = 806;
y = 96;
},
{
smooth = 0;
x = 574;
y = 110;
},
{
smooth = 0;
x = 576;
y = 154;
},
{
segmentType = curve;
smooth = 1;
x = 576;
y = 338;
},
{
segmentType = line;
smooth = 0;
x = 576;
y = 1098;
},
{
smooth = 0;
x = 576;
y = 1288;
},
{
smooth = 0;
x = 576;
y = 1330;
},
{
segmentType = curve;
smooth = 0;
x = 806;
y = 1344;
},
{
segmentType = line;
smooth = 0;
x = 810;
y = 1440;
},
{
segmentType = line;
smooth = 0;
x = 122;
y = 1440;
},
{
smooth = 0;
x = 122;
y = 1440;
},
{
smooth = 0;
x = 126;
y = 1344;
},
{
segmentType = curve;
smooth = 0;
x = 126;
y = 1344;
},
{
smooth = 0;
x = 358;
y = 1330;
},
{
smooth = 0;
x = 356;
y = 1286;
}
);
},
{
points = (
{
segmentType = curve;
smooth = 0;
x = 1510;
y = 1102;
},
{
segmentType = line;
smooth = 1;
x = 1510;
y = 342;
},
{
smooth = 0;
x = 1510;
y = 152;
},
{
smooth = 0;
x = 1510;
y = 112;
},
{
segmentType = curve;
smooth = 0;
x = 1280;
y = 96;
},
{
segmentType = line;
smooth = 0;
x = 1276;
y = 0;
},
{
segmentType = line;
smooth = 0;
x = 1964;
y = 0;
},
{
smooth = 0;
x = 1964;
y = 0;
},
{
smooth = 0;
x = 1960;
y = 96;
},
{
segmentType = curve;
smooth = 0;
x = 1960;
y = 96;
},
{
smooth = 0;
x = 1728;
y = 110;
},
{
smooth = 0;
x = 1730;
y = 154;
},
{
segmentType = curve;
smooth = 1;
x = 1730;
y = 338;
},
{
segmentType = line;
smooth = 0;
x = 1730;
y = 1098;
},
{
smooth = 0;
x = 1730;
y = 1288;
},
{
smooth = 0;
x = 1730;
y = 1330;
},
{
segmentType = curve;
smooth = 0;
x = 1960;
y = 1344;
},
{
segmentType = line;
smooth = 0;
x = 1964;
y = 1440;
},
{
segmentType = line;
smooth = 0;
x = 1276;
y = 1440;
},
{
smooth = 0;
x = 1276;
y = 1440;
},
{
smooth = 0;
x = 1280;
y = 1344;
},
{
segmentType = curve;
smooth = 0;
x = 1280;
y = 1344;
},
{
smooth = 0;
x = 1512;
y = 1330;
},
{
smooth = 0;
x = 1510;
y = 1286;
}
);
}
);
lib = {
};
name = A;
unicodes = (
);
width = 1906;
};
};
};
},
{
glyphname = C;
lastChange = "2018-04-11 19:05:46 +0000";
layers = (
{
layerId = "A06561DA-A1C3-4D4F-A301-2F031DFC9FDA";
paths = (
{
closed = 1;
nodes = (
"1222 1366 OFFCURVE",
"1378 1284 OFFCURVE",
"1378 918 CURVE",
"1494 906 LINE",
"1556 1428 LINE",
"1518 1452 LINE",
"1479 1435 OFFCURVE",
"1424 1430 OFFCURVE",
"1376 1436 CURVE",
"1278 1450 OFFCURVE",
"1188 1506 OFFCURVE",
"978 1506 CURVE SMOOTH",
"502 1506 OFFCURVE",
"196 1114 OFFCURVE",
"196 714 CURVE SMOOTH",
"196 284 OFFCURVE",
"478 -62 OFFCURVE",
"964 -62 CURVE SMOOTH",
"1236 -62 OFFCURVE",
"1440 42 OFFCURVE",
"1584 262 CURVE",
"1484 338 LINE",
"1366 176 OFFCURVE",
"1218 88 OFFCURVE",
"1008 88 CURVE SMOOTH",
"668 88 OFFCURVE",
"474 421 OFFCURVE",
"474 816 CURVE SMOOTH",
"474 1144 OFFCURVE",
"666 1366 OFFCURVE",
"986 1366 CURVE SMOOTH"
);
}
);
width = 1704;
}
);
unicode = 0043;
userData = {
com.typemytype.robofont.layerData = {
background = {
anchors = (
);
components = (
);
contours = (
{
points = (
{
segmentType = curve;
smooth = 1;
x = 1054;
y = 72;
},
{
smooth = 0;
x = 668;
y = 72;
},
{
smooth = 0;
x = 474;
y = 470;
},
{
segmentType = curve;
smooth = 1;
x = 474;
y = 844;
},
{
smooth = 0;
x = 474;
y = 1144;
},
{
smooth = 0;
x = 666;
y = 1372;
},
{
segmentType = curve;
smooth = 1;
x = 962;
y = 1372;
},
{
smooth = 0;
x = 1352;
y = 1372;
},
{
smooth = 0;
x = 1550;
y = 988;
},
{
segmentType = curve;
smooth = 1;
x = 1550;
y = 600;
},
{
smooth = 0;
x = 1550;
y = 298;
},
{
smooth = 0;
x = 1370;
y = 72;
}
);
},
{
points = (
{
segmentType = curve;
smooth = 1;
x = 1826;
y = 732;
},
{
smooth = 0;
x = 1826;
y = 1140;
},
{
smooth = 0;
x = 1534;
y = 1506;
},
{
segmentType = curve;
smooth = 1;
x = 1044;
y = 1506;
},
{
smooth = 0;
x = 520;
y = 1506;
},
{
smooth = 0;
x = 196;
y = 1114;
},
{
segmentType = curve;
smooth = 1;
x = 196;
y = 714;
},
{
smooth = 0;
x = 196;
y = 318;
},
{
smooth = 0;
x = 478;
y = -62;
},
{
segmentType = curve;
smooth = 1;
x = 982;
y = -62;
},
{
smooth = 0;
x = 1508;
y = -62;
},
{
smooth = 0;
x = 1826;
y = 336;
}
);
}
);
lib = {
};
name = C;
unicodes = (
);
width = 1704;
};
};
};
},
{
glyphname = E;
lastChange = "2018-04-11 19:05:46 +0000";
layers = (
{
layerId = "A06561DA-A1C3-4D4F-A301-2F031DFC9FDA";
paths = (
{
closed = 1;
nodes = (
"400 342 LINE SMOOTH",
"400 152 OFFCURVE",
"400 112 OFFCURVE",
"170 96 CURVE",
"166 0 LINE",
"934 0 LINE SMOOTH",
"1008 0 OFFCURVE",
"1176 -4 OFFCURVE",
"1310 -10 CURVE",
"1346 14 LINE",
"1388 460 LINE",
"1280 470 LINE",
"1194 154 OFFCURVE",
"1172 136 OFFCURVE",
"908 128 CURVE SMOOTH",
"656 120 LINE",
"656 1320 LINE SMOOTH",
"904 1312 LINE SMOOTH",
"1144 1304 OFFCURVE",
"1170 1288 OFFCURVE",
"1252 996 CURVE",
"1368 1014 LINE",
"1326 1432 LINE",
"1288 1458 LINE",
"1178 1444 OFFCURVE",
"1020 1440 OFFCURVE",
"960 1440 CURVE",
"166 1440 LINE",
"170 1344 LINE",
"402 1330 OFFCURVE",
"400 1286 OFFCURVE",
"400 1102 CURVE"
);
},
{
closed = 1;
nodes = (
"540 676 LINE",
"730 672 LINE SMOOTH",
"842 670 OFFCURVE",
"874 652 OFFCURVE",
"928 436 CURVE",
"1034 448 LINE",
"1010 644 OFFCURVE",
"1014 842 OFFCURVE",
"1030 1020 CURVE",
"928 1030 LINE",
"870 816 OFFCURVE",
"846 794 OFFCURVE",
"738 792 CURVE SMOOTH",
"540 788 LINE"
);
}
);
width = 1640;
}
);
unicode = 0045;
userData = {
com.typemytype.robofont.guides = (
{
angle = 0;
isGlobal = 0;
magnetic = 5;
x = 521;
y = 400;
}
);
com.typemytype.robofont.layerData = {
background = {
anchors = (
);
components = (
);
contours = (
);
lib = {
};
name = E;
unicodes = (
);
width = 1640;
};
};
};
},
{
glyphname = G;
lastChange = "2018-04-11 19:05:46 +0000";
layers = (
{
layerId = "A06561DA-A1C3-4D4F-A301-2F031DFC9FDA";
paths = (
{
closed = 1;
nodes = (
"1484 360 LINE",
"1364 156 OFFCURVE",
"1202 88 OFFCURVE",
"1026 88 CURVE SMOOTH",
"668 88 OFFCURVE",
"474 422 OFFCURVE",
"474 816 CURVE SMOOTH",
"474 1144 OFFCURVE",
"666 1366 OFFCURVE",
"986 1366 CURVE SMOOTH",
"1267 1366 OFFCURVE",
"1452 1290 OFFCURVE",
"1452 954 CURVE",
"1568 942 LINE",
"1624 1428 LINE",
"1586 1452 LINE",
"1548 1434 OFFCURVE",
"1492 1430 OFFCURVE",
"1444 1436 CURVE",
"1330 1452 OFFCURVE",
"1224 1506 OFFCURVE",
"978 1506 CURVE SMOOTH",
"502 1506 OFFCURVE",
"196 1114 OFFCURVE",
"196 714 CURVE SMOOTH",
"196 284 OFFCURVE",
"478 -62 OFFCURVE",
"964 -62 CURVE SMOOTH",
"1310 -62 OFFCURVE",
"1386 93 OFFCURVE",
"1582 -4 CURVE",
"1622 16 LINE",
"1622 346 LINE SMOOTH",
"1622 476 OFFCURVE",
"1622 542 OFFCURVE",
"1762 564 CURVE",
"1770 660 LINE",
"1128 660 LINE",
"1132 564 LINE",
"1382 552 OFFCURVE",
"1382 494 OFFCURVE",
"1382 322 CURVE SMOOTH",
"1382 144 LINE"
);
}
);
width = 1914;
}
);
unicode = 0047;
userData = {
com.typemytype.robofont.layerData = {
background = {
anchors = (
);
components = (
);
contours = (
{
points = (
{
segmentType = move;
x = 1594;
y = 318;
},
{
smooth = 0;
x = 1594;
y = 508;
},
{
smooth = 0;
x = 1594;
y = 550;
},
{
segmentType = curve;
smooth = 0;
x = 1824;
y = 564;
},
{
segmentType = line;
smooth = 0;
x = 1828;
y = 660;
},
{
segmentType = line;
smooth = 0;
x = 1104;
y = 660;
},
{
segmentType = line;
smooth = 0;
x = 1108;
y = 564;
},
{
smooth = 0;
x = 1340;
y = 550;
},
{
smooth = 0;
x = 1338;
y = 506;
},
{
segmentType = curve;
smooth = 0;
x = 1338;
y = 322;
}
);
},
{
points = (
{
segmentType = move;
smooth = 0;
x = 1484;
y = 338;
},
{
smooth = 0;
x = 1366;
y = 176;
},
{
smooth = 0;
x = 1218;
y = 88;
},
{
segmentType = curve;
smooth = 1;
x = 1008;
y = 88;
},
{
smooth = 0;
x = 668;
y = 88;
},
{
smooth = 0;
x = 474;
y = 422;
},
{
segmentType = curve;
smooth = 1;
x = 474;
y = 816;
},
{
smooth = 0;
x = 474;
y = 1144;
},
{
smooth = 0;
x = 666;
y = 1366;
},
{
segmentType = curve;
smooth = 1;
x = 986;
y = 1366;
},
{
smooth = 0;
x = 1222;
y = 1366;
},
{
smooth = 0;
x = 1378;
y = 1284;
},
{
segmentType = curve;
smooth = 0;
x = 1378;
y = 918;
},
{
segmentType = line;
smooth = 0;
x = 1494;
y = 906;
},
{
segmentType = line;
smooth = 0;
x = 1556;
y = 1428;
},
{
segmentType = line;
smooth = 0;
x = 1518;
y = 1452;
},
{
smooth = 0;
x = 1480;
y = 1434;
},
{
smooth = 0;
x = 1424;
y = 1430;
},
{
segmentType = curve;
smooth = 0;
x = 1376;
y = 1436;
},
{
smooth = 0;
x = 1278;
y = 1450;
},
{
smooth = 0;
x = 1188;
y = 1506;
},
{
segmentType = curve;
smooth = 1;
x = 978;
y = 1506;
},
{
smooth = 0;
x = 502;
y = 1506;
},
{
smooth = 0;
x = 196;
y = 1114;
},
{
segmentType = curve;
smooth = 1;
x = 196;
y = 714;
},
{
smooth = 0;
x = 196;
y = 284;
},
{
smooth = 0;
x = 478;
y = -62;
},
{
segmentType = curve;
smooth = 1;
x = 964;
y = -62;
},
{
smooth = 0;
x = 1236;
y = -62;
},
{
smooth = 0;
x = 1440;
y = 42;
},
{
segmentType = curve;
smooth = 0;
x = 1584;
y = 262;
}
);
}
);
lib = {
};
name = G;
unicodes = (
);
width = 1914;
};
};
};
},
{
glyphname = H;
lastChange = "2018-04-11 19:05:46 +0000";
layers = (
{
layerId = "A06561DA-A1C3-4D4F-A301-2F031DFC9FDA";
paths = (
{
closed = 1;
nodes = (
"1534 342 LINE SMOOTH",
"1534 152 OFFCURVE",
"1534 112 OFFCURVE",
"1304 96 CURVE",
"1300 0 LINE",
"2024 0 LINE",
"2020 96 LINE",
"1788 110 OFFCURVE",
"1790 154 OFFCURVE",
"1790 338 CURVE SMOOTH",
"1790 1098 LINE",
"1790 1288 OFFCURVE",
"1790 1330 OFFCURVE",
"2020 1344 CURVE",
"2024 1440 LINE",
"1300 1440 LINE",
"1304 1344 LINE",
"1536 1330 OFFCURVE",
"1534 1286 OFFCURVE",
"1534 1102 CURVE"
);
},
{
closed = 1;
nodes = (
"400 342 LINE SMOOTH",
"400 152 OFFCURVE",
"400 112 OFFCURVE",
"170 96 CURVE",
"166 0 LINE",
"890 0 LINE",
"886 96 LINE",
"654 110 OFFCURVE",
"656 154 OFFCURVE",
"656 338 CURVE SMOOTH",
"656 1098 LINE",
"656 1288 OFFCURVE",
"656 1330 OFFCURVE",
"886 1344 CURVE",
"890 1440 LINE",
"166 1440 LINE",
"170 1344 LINE",
"402 1330 OFFCURVE",
"400 1286 OFFCURVE",
"400 1102 CURVE"
);
},
{
closed = 1;
nodes = (
"560 674 LINE",
"1656 674 LINE",
"1656 802 LINE",
"560 802 LINE"
);
}
);
width = 2190;
}
);
unicode = 0048;
userData = {
com.typemytype.robofont.layerData = {
background = {
anchors = (
);
components = (
);
contours = (
{
points = (
{
smooth = 0;
x = 1742;
y = 632;
},
{
smooth = 0;
x = 1800;
y = 576;
},
{
segmentType = curve;
smooth = 1;
x = 1800;
y = 504;
},
{
smooth = 0;
x = 1800;
y = 434;
},
{
smooth = 0;
x = 1742;
y = 378;
},
{
segmentType = curve;
smooth = 1;
x = 1672;
y = 378;
},
{
smooth = 0;
x = 1602;
y = 378;
},
{
smooth = 0;
x = 1544;
y = 434;
},
{
segmentType = curve;
smooth = 1;
x = 1544;
y = 504;
},
{
smooth = 0;
x = 1544;
y = 576;
},
{
smooth = 0;
x = 1602;
y = 632;
},
{
segmentType = curve;
smooth = 1;
x = 1672;
y = 632;
}
);
},
{
points = (
{
segmentType = line;
smooth = 1;
x = 1780;
y = 1130;
},
{
smooth = 0;
x = 1780;
y = 1296;
},
{
smooth = 0;
x = 1782;
y = 1334;
},
{
segmentType = curve;
smooth = 0;
x = 1994;
y = 1342;
},
{
segmentType = line;
smooth = 0;
x = 1994;
y = 1440;
},
{
segmentType = line;
smooth = 0;
x = 1402;
y = 1440;
},
{
smooth = 0;
x = 1402;
y = 1440;
},
{
smooth = 0;
x = 1402;
y = 1342;
},
{
segmentType = curve;
smooth = 0;
x = 1402;
y = 1342;
},
{
smooth = 0;
x = 1628;
y = 1334;
},
{
smooth = 0;
x = 1628;
y = 1294;
},
{
segmentType = curve;
smooth = 1;
x = 1628;
y = 1130;
},
{
segmentType = line;
smooth = 0;
x = 1628;
y = -38;
},
{
segmentType = line;
smooth = 0;
x = 1752;
y = 26;
},
{
smooth = 0;
x = 1698;
y = 212;
},
{
smooth = 0;
x = 1614;
y = 370;
},
{
segmentType = curve;
smooth = 1;
x = 1462;
y = 536;
},
{
segmentType = line;
smooth = 1;
x = 726;
y = 1342;
},
{
smooth = 0;
x = 644;
y = 1434;
},
{
smooth = 0;
x = 580;
y = 1472;
},
{
segmentType = curve;
smooth = 1;
x = 476;
y = 1472;
},
{
smooth = 0;
x = 384;
y = 1472;
},
{
smooth = 0;
x = 278;
y = 1440;
},
{
segmentType = curve;
smooth = 0;
x = 192;
y = 1398;
},
{
segmentType = line;
smooth = 0;
x = 226;
y = 1302;
},
{
smooth = 0;
x = 356;
y = 1340;
},
{
smooth = 0;
x = 408;
y = 1326;
},
{
segmentType = curve;
smooth = 1;
x = 490;
y = 1236;
},
{
segmentType = line;
smooth = 1;
x = 1340;
y = 288;
},
{
smooth = 0;
x = 1462;
y = 152;
},
{
smooth = 0;
x = 1532;
y = 60;
},
{
segmentType = curve;
smooth = 0;
x = 1596;
y = -64;
},
{
segmentType = line;
smooth = 0;
x = 1780;
y = -28;
}
);
},
{
points = (
{
segmentType = line;
smooth = 0;
x = 410;
y = 1440;
},
{
segmentType = line;
smooth = 1;
x = 410;
y = 342;
},
{
smooth = 0;
x = 410;
y = 152;
},
{
smooth = 0;
x = 410;
y = 110;
},
{
segmentType = curve;
smooth = 0;
x = 194;
y = 96;
},
{
segmentType = line;
smooth = 0;
x = 194;
y = 0;
},
{
segmentType = line;
smooth = 0;
x = 792;
y = 0;
},
{
smooth = 0;
x = 792;
y = 0;
},
{
smooth = 0;
x = 792;
y = 96;
},
{
segmentType = curve;
smooth = 0;
x = 792;
y = 96;
},
{
smooth = 0;
x = 560;
y = 110;
},
{
smooth = 0;
x = 562;
y = 154;
},
{
segmentType = curve;
smooth = 1;
x = 562;
y = 338;
},
{
segmentType = line;
smooth = 0;
x = 562;
y = 1440;
}
);
}
);
lib = {
};
name = H;
unicodes = (
);
width = 2190;
};
};
};
},
{
glyphname = I;
lastChange = "2018-04-11 19:05:46 +0000";
layers = (
{
layerId = "A06561DA-A1C3-4D4F-A301-2F031DFC9FDA";
paths = (
{
closed = 1;
nodes = (
"400 342 LINE SMOOTH",
"400 152 OFFCURVE",
"400 112 OFFCURVE",
"170 96 CURVE",
"166 0 LINE",
"890 0 LINE",
"890 0 OFFCURVE",
"886 96 OFFCURVE",
"886 96 CURVE",
"654 110 OFFCURVE",
"656 154 OFFCURVE",
"656 338 CURVE SMOOTH",
"656 1098 LINE SMOOTH",
"656 1288 OFFCURVE",
"656 1330 OFFCURVE",
"886 1344 CURVE",
"890 1440 LINE",
"166 1440 LINE",
"166 1440 OFFCURVE",
"170 1344 OFFCURVE",
"170 1344 CURVE",
"402 1330 OFFCURVE",
"400 1286 OFFCURVE",
"400 1102 CURVE"
);
}
);
width = 1056;
}
);
unicode = 0049;
userData = {
com.typemytype.robofont.layerData = {
background = {
anchors = (
);
components = (
);
contours = (
);
lib = {
};
name = I;
unicodes = (
);
width = 1056;
};
};
};
},
{
glyphname = K;
lastChange = "2018-04-11 19:05:46 +0000";
layers = (
{
layerId = "A06561DA-A1C3-4D4F-A301-2F031DFC9FDA";
paths = (
{
closed = 1;
nodes = (
"400 342 LINE SMOOTH",
"400 152 OFFCURVE",
"400 112 OFFCURVE",
"170 96 CURVE",
"166 0 LINE",
"870 0 LINE",
"866 96 LINE",
"654 108 OFFCURVE",
"656 154 OFFCURVE",
"656 338 CURVE SMOOTH",
"656 1098 LINE SMOOTH",
"656 1288 OFFCURVE",
"660 1330 OFFCURVE",
"866 1344 CURVE",
"870 1440 LINE",
"166 1440 LINE",
"170 1344 LINE",
"402 1330 OFFCURVE",
"400 1286 OFFCURVE",
"400 1102 CURVE"
);
},
{
closed = 1;
nodes = (
"1452 1242 OFFCURVE",
"1546 1324 OFFCURVE",
"1716 1344 CURVE",
"1724 1440 LINE",
"1038 1440 LINE",
"1046 1344 LINE",
"1220 1334 OFFCURVE",
"1254 1254 OFFCURVE",
"1162 1158 CURVE SMOOTH",
"768 746 LINE",
"768 694 LINE",
"1098 308 LINE SMOOTH",
"1206 182 OFFCURVE",
"1214 108 OFFCURVE",
"1062 98 CURVE",
"1054 0 LINE",
"1772 0 LINE",
"1764 94 LINE",
"1636 112 OFFCURVE",
"1562 166 OFFCURVE",
"1474 264 CURVE SMOOTH",
"974 824 LINE",
"920 716 LINE",
"1330 1122 LINE SMOOTH"
);
}
);
width = 1916;
}
);
unicode = 004B;
userData = {
com.typemytype.robofont.guides = (
{
angle = 0;
isGlobal = 0;
magnetic = 5;
x = 443;
y = 48;
},
{
angle = 90;
isGlobal = 0;
magnetic = 5;
x = 876;
y = 0;
}
);
com.typemytype.robofont.layerData = {
background = {
anchors = (
);
components = (
);
contours = (
{
points = (
{
segmentType = line;
smooth = 1;
x = 1372;
y = 1160;
},
{
smooth = 0;
x = 1486;
y = 1276;
},
{
smooth = 0;
x = 1546;
y = 1324;
},
{
segmentType = curve;
smooth = 0;
x = 1766;
y = 1344;
},
{
segmentType = line;
smooth = 0;
x = 1770;
y = 1440;
},
{
segmentType = line;
smooth = 0;
x = 1044;
y = 1440;
},
{
segmentType = line;
smooth = 0;
x = 1048;
y = 1344;
},
{
smooth = 0;
x = 1216;
y = 1334;
},
{
smooth = 0;
x = 1252;
y = 1250;
},
{
segmentType = curve;
smooth = 1;
x = 1156;
y = 1154;
},
{
segmentType = line;
smooth = 0;
x = 738;
y = 730;
},
{
segmentType = line;
smooth = 1;
x = 1078;
y = 308;
},
{
smooth = 0;
x = 1180;
y = 182;
},
{
smooth = 0;
x = 1202;
y = 108;
},
{
segmentType = curve;
smooth = 0;
x = 1032;
y = 98;
},
{
segmentType = line;
smooth = 0;
x = 1024;
y = 0;
},
{
segmentType = line;
smooth = 0;
x = 1802;
y = 0;
},
{
segmentType = line;
smooth = 0;
x = 1794;
y = 94;
},
{
smooth = 0;
x = 1582;
y = 108;
},
{
smooth = 0;
x = 1542;
y = 160;
},
{
segmentType = curve;
smooth = 1;
x = 1372;
y = 358;
},
{
segmentType = line;
smooth = 0;
x = 974;
y = 824;
},
{
segmentType = line;
smooth = 0;
x = 930;
y = 716;
}
);
},
{
points = (
{
smooth = 0;
x = 954;
y = 874;
},
{
smooth = 0;
x = 984;
y = 844;
},
{
segmentType = curve;
smooth = 1;
x = 984;
y = 808;
},
{
smooth = 0;
x = 984;
y = 770;
},
{
smooth = 0;
x = 954;
y = 740;
},
{
segmentType = curve;
smooth = 1;
x = 918;
y = 740;
},
{
smooth = 0;
x = 882;
y = 740;
},
{
smooth = 0;
x = 852;
y = 770;
},
{
segmentType = curve;
smooth = 1;
x = 852;
y = 808;
},
{
smooth = 0;
x = 852;
y = 844;
},
{
smooth = 0;
x = 882;
y = 874;
},
{
segmentType = curve;
smooth = 1;
x = 918;
y = 874;
}
);
},
{
points = (
{
smooth = 0;
x = 1252;
y = 1176;
},
{
smooth = 0;
x = 1282;
y = 1146;
},
{
segmentType = curve;
smooth = 1;
x = 1282;
y = 1110;
},
{
smooth = 0;
x = 1282;
y = 1072;
},
{
smooth = 0;
x = 1252;
y = 1042;
},
{
segmentType = curve;
smooth = 1;
x = 1216;
y = 1042;
},
{
smooth = 0;
x = 1180;
y = 1042;
},
{
smooth = 0;
x = 1150;
y = 1072;
},
{
segmentType = curve;
smooth = 1;
x = 1150;
y = 1110;
},
{
smooth = 0;
x = 1150;
y = 1146;
},
{
smooth = 0;
x = 1180;
y = 1176;
},
{
segmentType = curve;
smooth = 1;
x = 1216;
y = 1176;
}
);
},
{
points = (
{
segmentType = line;
smooth = 0;
x = 860;
y = 802;
},
{
segmentType = line;
smooth = 0;
x = 560;
y = 802;
},
{
segmentType = line;
smooth = 0;
x = 560;
y = 674;
},
{
segmentType = line;
smooth = 0;
x = 860;
y = 674;
}
);
},
{
points = (
{
segmentType = line;
smooth = 0;
x = 1160;
y = 802;
},
{
segmentType = line;
smooth = 0;
x = 1160;
y = 674;
},
{
segmentType = line;
smooth = 0;
x = 2256;
y = 674;
},
{
segmentType = line;
smooth = 0;
x = 2256;
y = 802;
}
);
},
{
points = (
{
segmentType = curve;
smooth = 0;
x = 1534;
y = 1102;
},
{
segmentType = line;
smooth = 1;
x = 1534;
y = 342;
},
{
smooth = 0;
x = 1534;
y = 152;
},
{
smooth = 0;
x = 1534;
y = 112;
},
{
segmentType = curve;
smooth = 0;
x = 1304;
y = 96;
},
{
segmentType = line;
smooth = 0;
x = 1300;
y = 0;
},
{
segmentType = line;
smooth = 0;
x = 2024;
y = 0;
},
{
smooth = 0;
x = 2024;
y = 0;
},
{
smooth = 0;
x = 2020;
y = 96;
},
{
segmentType = curve;
smooth = 0;
x = 2020;
y = 96;
},
{
smooth = 0;
x = 1788;
y = 110;
},
{
smooth = 0;
x = 1790;
y = 154;
},
{
segmentType = curve;
smooth = 1;
x = 1790;
y = 338;
},
{
segmentType = line;
smooth = 0;
x = 1790;
y = 1098;
},
{
smooth = 0;
x = 1790;
y = 1288;
},
{
smooth = 0;
x = 1790;
y = 1330;
},
{
segmentType = curve;
smooth = 0;
x = 2020;
y = 1344;
},
{
segmentType = line;
smooth = 0;
x = 2024;
y = 1440;
},
{
segmentType = line;
smooth = 0;
x = 1300;
y = 1440;
},
{
smooth = 0;
x = 1300;
y = 1440;
},
{
smooth = 0;
x = 1304;
y = 1344;
},
{
segmentType = curve;
smooth = 0;
x = 1304;
y = 1344;
},
{
smooth = 0;
x = 1536;
y = 1330;
},
{
smooth = 0;
x = 1534;
y = 1286;
}
);
},
{
points = (
{
segmentType = curve;
smooth = 0;
x = 400;
y = 1102;
},
{
segmentType = line;
smooth = 1;
x = 400;
y = 342;
},
{
smooth = 0;
x = 400;
y = 152;
},
{
smooth = 0;
x = 400;
y = 112;
},
{
segmentType = curve;
smooth = 0;
x = 170;
y = 96;
},
{
segmentType = line;
smooth = 0;
x = 166;
y = 0;
},
{
segmentType = line;
smooth = 0;
x = 890;
y = 0;
},
{
smooth = 0;
x = 890;
y = 0;
},
{
smooth = 0;
x = 886;
y = 96;
},
{
segmentType = curve;
smooth = 0;
x = 886;
y = 96;
},
{
smooth = 0;
x = 654;
y = 110;
},
{
smooth = 0;
x = 656;
y = 154;
},
{
segmentType = curve;
smooth = 1;
x = 656;
y = 338;
},
{
segmentType = line;
smooth = 0;
x = 656;
y = 1098;
},
{
smooth = 0;
x = 656;
y = 1288;
},
{
smooth = 0;
x = 656;
y = 1330;
},
{
segmentType = curve;
smooth = 0;
x = 886;
y = 1344;
},
{
segmentType = line;
smooth = 0;
x = 890;
y = 1440;
},
{
segmentType = line;
smooth = 0;
x = 166;
y = 1440;
},
{
smooth = 0;
x = 166;
y = 1440;
},
{
smooth = 0;
x = 170;
y = 1344;
},
{
segmentType = curve;
smooth = 0;
x = 170;
y = 1344;
},
{
smooth = 0;
x = 402;
y = 1330;
},
{
smooth = 0;
x = 400;
y = 1286;
}
);
}
);
lib = {
};
name = K;
unicodes = (
);
width = 1916;
};
};
};
},
{
glyphname = L;
lastChange = "2018-04-11 19:05:46 +0000";
layers = (
{
layerId = "A06561DA-A1C3-4D4F-A301-2F031DFC9FDA";
paths = (
{
closed = 1;
nodes = (
"400 342 LINE SMOOTH",
"400 152 OFFCURVE",
"400 112 OFFCURVE",
"170 96 CURVE",
"166 0 LINE",
"894 0 LINE SMOOTH",
"968 0 OFFCURVE",
"1136 -4 OFFCURVE",
"1270 -10 CURVE",
"1306 14 LINE",
"1354 516 LINE",
"1244 528 LINE",
"1136 154 OFFCURVE",
"1116 136 OFFCURVE",
"886 128 CURVE SMOOTH",
"656 120 LINE",
"656 1100 LINE SMOOTH",
"656 1286 OFFCURVE",
"656 1330 OFFCURVE",
"886 1344 CURVE",
"890 1440 LINE",
"166 1440 LINE",
"166 1440 OFFCURVE",
"170 1344 OFFCURVE",
"170 1344 CURVE",
"402 1330 OFFCURVE",
"400 1286 OFFCURVE",
"400 1102 CURVE SMOOTH"
);
}
);
width = 1500;
}
);
unicode = 004C;
userData = {
com.typemytype.robofont.guides = (
{
angle = 0;
isGlobal = 0;
magnetic = 5;
x = 521;
y = 400;
}
);
com.typemytype.robofont.layerData = {
background = {
anchors = (
);
components = (
);
contours = (
{
points = (
{
segmentType = move;
x = 656;
y = 1098;
},
{
smooth = 0;
x = 656;
y = 1288;
},
{
smooth = 0;
x = 656;
y = 1330;
},
{
segmentType = curve;
smooth = 0;
x = 886;
y = 1344;
},
{
segmentType = line;
smooth = 0;
x = 890;
y = 1440;
},
{
segmentType = line;
smooth = 0;
x = 166;
y = 1440;
},
{
smooth = 0;
x = 166;
y = 1440;
},
{
smooth = 0;
x = 170;
y = 1344;
},
{
segmentType = curve;
smooth = 0;
x = 170;
y = 1344;
},
{
smooth = 0;
x = 402;
y = 1330;
},
{
smooth = 0;
x = 400;
y = 1286;
},
{
segmentType = curve;
smooth = 0;
x = 400;
y = 1102;
}
);
}
);
lib = {
};
name = E;
unicodes = (
);
width = 1500;
};
};
};
},
{
glyphname = M;
lastChange = "2018-04-11 19:05:46 +0000";
layers = (
{
layerId = "A06561DA-A1C3-4D4F-A301-2F031DFC9FDA";
paths = (
{
closed = 1;
nodes = (
"1766 1216 LINE",
"1596 1216 LINE",
"1134 224 LINE SMOOTH",
"1296 224 LINE"
);
},
{
closed = 1;
nodes = (
"808 1216 LINE",
"526 1216 LINE",
"526 1216 OFFCURVE",
"954 224 OFFCURVE",
"954 224 CURVE SMOOTH",
"1232 224 LINE"
);
},
{
closed = 1;
nodes = (
"368 330 LINE SMOOTH",
"356 150 OFFCURVE",
"344 104 OFFCURVE",
"130 96 CURVE",
"126 0 LINE",
"746 0 LINE",
"746 0 OFFCURVE",
"742 96 OFFCURVE",
"742 96 CURVE",
"512 106 OFFCURVE",
"508 164 OFFCURVE",
"520 332 CURVE SMOOTH",
"580 1216 LINE",
"426 1216 LINE"
);
},
{
closed = 1;
nodes = (
"1778 342 LINE SMOOTH",
"1792 146 OFFCURVE",
"1790 104 OFFCURVE",
"1550 96 CURVE",
"1546 0 LINE",
"2282 0 LINE",
"2282 0 OFFCURVE",
"2278 96 OFFCURVE",
"2278 96 CURVE",
"2062 106 OFFCURVE",
"2054 144 OFFCURVE",
"2040 340 CURVE SMOOTH",
"1976 1216 LINE",
"1712 1216 LINE"
);
},
{
closed = 1;
nodes = (
"1034 8 LINE",
"1066 -6 LINE",
"1210 10 LINE",
"1296 224 LINE",
"954 224 LINE"
);
},
{
closed = 1;
nodes = (
"426 1216 LINE",
"808 1216 LINE",
"726 1438 LINE",
"690 1458 LINE",
"436 1418 LINE"
);
},
{
closed = 1;
nodes = (
"1596 1216 LINE",
"1976 1216 LINE",
"1966 1436 LINE",
"1934 1458 LINE",
"1670 1394 LINE"
);
}
);
width = 2416;
}
);
unicode = 004D;
userData = {
com.typemytype.robofont.guides = (
{
angle = 0;
isGlobal = 0;
magnetic = 5;
x = 565;
y = 553;
}
);
com.typemytype.robofont.layerData = {
background = {
anchors = (
);
components = (
);
contours = (
{
points = (
{
segmentType = line;
smooth = 0;
x = 954;
y = 224;
},
{
segmentType = line;
smooth = 0;
x = 1038;
y = 0;
},
{
segmentType = line;
smooth = 0;
x = 1078;
y = 0;
},
{
segmentType = line;
smooth = 0;
x = 1206;
y = 0;
},
{
segmentType = line;
smooth = 0;
x = 1296;
y = 224;
}
);
},
{
points = (
{
segmentType = curve;
smooth = 1;
x = 962;
y = 648;
},
{
smooth = 0;
x = 1032;
y = 648;
},
{
smooth = 0;
x = 1090;
y = 592;
},
{
segmentType = curve;
smooth = 1;
x = 1090;
y = 520;
},
{
smooth = 0;
x = 1090;
y = 450;
},
{
smooth = 0;
x = 1032;
y = 394;
},
{
segmentType = curve;
smooth = 1;
x = 962;
y = 394;
},
{
smooth = 0;
x = 892;
y = 394;
},
{
smooth = 0;
x = 834;
y = 450;
},
{
segmentType = curve;
smooth = 1;
x = 834;
y = 520;
},
{
smooth = 0;
x = 834;
y = 592;
},
{
smooth = 0;
x = 892;
y = 648;
}
);
},
{
points = (
{
segmentType = curve;
smooth = 1;
x = 1888;
y = 648;
},
{
smooth = 0;
x = 1958;
y = 648;
},
{
smooth = 0;
x = 2016;
y = 592;
},
{
segmentType = curve;
smooth = 1;
x = 2016;
y = 520;
},
{
smooth = 0;
x = 2016;
y = 450;
},
{
smooth = 0;
x = 1958;
y = 394;
},
{
segmentType = curve;
smooth = 1;
x = 1888;
y = 394;
},
{
smooth = 0;
x = 1818;
y = 394;
},
{
smooth = 0;
x = 1760;
y = 450;
},
{
segmentType = curve;
smooth = 1;
x = 1760;
y = 520;
},
{
smooth = 0;
x = 1760;
y = 592;
},
{
smooth = 0;
x = 1818;
y = 648;
}
);
},
{
points = (
{
segmentType = line;
smooth = 0;
x = 800;
y = 802;
},
{
segmentType = line;
smooth = 0;
x = 800;
y = 674;
},
{
segmentType = line;
smooth = 0;
x = 1896;
y = 674;
},
{
segmentType = line;
smooth = 0;
x = 1896;
y = 802;
}
);
},
{
points = (
{
segmentType = curve;
smooth = 0;
x = 640;
y = 1102;
},
{
segmentType = line;
smooth = 1;
x = 640;
y = 342;
},
{
smooth = 0;
x = 640;
y = 152;
},
{
smooth = 0;
x = 640;
y = 112;
},
{
segmentType = curve;
smooth = 0;
x = 410;
y = 96;
},
{
segmentType = line;
smooth = 0;
x = 406;
y = 0;
},
{
segmentType = line;
smooth = 0;
x = 1130;
y = 0;
},
{
smooth = 0;
x = 1130;
y = 0;
},
{
smooth = 0;
x = 1126;
y = 96;
},
{
segmentType = curve;
smooth = 0;
x = 1126;
y = 96;
},
{
smooth = 0;
x = 894;
y = 110;
},
{
smooth = 0;
x = 896;
y = 154;
},
{
segmentType = curve;
smooth = 1;
x = 896;
y = 338;
},
{
segmentType = line;
smooth = 0;
x = 896;
y = 1098;
},
{
smooth = 0;
x = 896;
y = 1288;
},
{
smooth = 0;
x = 896;
y = 1330;
},
{
segmentType = curve;
smooth = 0;
x = 1126;
y = 1344;
},
{
segmentType = line;
smooth = 0;
x = 1130;
y = 1440;
},
{
segmentType = line;
smooth = 0;
x = 406;
y = 1440;
},
{
smooth = 0;
x = 406;
y = 1440;
},
{
smooth = 0;
x = 410;
y = 1344;
},
{
segmentType = curve;
smooth = 0;
x = 410;
y = 1344;
},
{
smooth = 0;
x = 642;
y = 1330;
},
{
smooth = 0;
x = 640;
y = 1286;
}
);
},
{
points = (
{
segmentType = curve;
smooth = 0;
x = 1774;
y = 1102;
},
{
segmentType = line;
smooth = 1;
x = 1774;
y = 342;
},
{
smooth = 0;
x = 1774;
y = 152;
},
{
smooth = 0;
x = 1774;
y = 112;
},
{
segmentType = curve;
smooth = 0;
x = 1544;
y = 96;
},
{
segmentType = line;
smooth = 0;
x = 1540;
y = 0;
},
{
segmentType = line;
smooth = 0;
x = 2264;
y = 0;
},
{
smooth = 0;
x = 2264;
y = 0;
},
{
smooth = 0;
x = 2260;
y = 96;
},
{
segmentType = curve;
smooth = 0;
x = 2260;
y = 96;
},
{
smooth = 0;
x = 2028;
y = 110;
},
{
smooth = 0;
x = 2030;
y = 154;
},
{
segmentType = curve;
smooth = 1;
x = 2030;
y = 338;
},
{
segmentType = line;
smooth = 0;
x = 2030;
y = 1098;
},
{
smooth = 0;
x = 2030;
y = 1288;
},
{
smooth = 0;
x = 2030;
y = 1330;
},
{
segmentType = curve;
smooth = 0;
x = 2260;
y = 1344;
},
{
segmentType = line;
smooth = 0;
x = 2264;
y = 1440;
},
{
segmentType = line;
smooth = 0;
x = 1540;
y = 1440;
},
{
smooth = 0;
x = 1540;
y = 1440;
},
{
smooth = 0;
x = 1544;
y = 1344;
},
{
segmentType = curve;
smooth = 0;
x = 1544;
y = 1344;
},
{
smooth = 0;
x = 1776;
y = 1330;
},
{
smooth = 0;
x = 1774;
y = 1286;
}
);
}
);
lib = {
};
name = M;
unicodes = (
);
width = 2416;
};
};
};
},
{
glyphname = N;
lastChange = "2018-04-11 19:05:46 +0000";
layers = (
{
layerId = "A06561DA-A1C3-4D4F-A301-2F031DFC9FDA";
paths = (
{
closed = 1;
nodes = (
"380 342 LINE SMOOTH",
"380 152 OFFCURVE",
"380 110 OFFCURVE",
"164 96 CURVE",
"160 0 LINE",
"160 0 OFFCURVE",
"766 0 OFFCURVE",
"766 0 CURVE",
"766 0 OFFCURVE",
"762 96 OFFCURVE",
"762 96 CURVE",
"530 110 OFFCURVE",
"532 154 OFFCURVE",
"532 338 CURVE SMOOTH",
"532 1440 LINE",
"380 1440 LINE"
);
},
{
closed = 1;
nodes = (
"1690 1296 OFFCURVE",
"1692 1334 OFFCURVE",
"1904 1342 CURVE",
"1908 1440 LINE",
"1308 1440 LINE",
"1308 1440 OFFCURVE",
"1312 1342 OFFCURVE",
"1312 1342 CURVE",
"1538 1334 OFFCURVE",
"1538 1294 OFFCURVE",
"1538 1130 CURVE",
"1538 256 LINE",
"1598 256 LINE",
"618 1434 LINE SMOOTH",
"576 1454 LINE",
"346 1440 LINE",
"156 1440 LINE",
"160 1342 LINE",
"372 1318 OFFCURVE",
"380 1270 OFFCURVE",
"380 1152 CURVE",
"522 1152 LINE",
"1314 198 LINE SMOOTH",
"1466 -18 LINE",
"1502 -32 LINE",
"1690 -16 LINE",
"1690 1130 LINE SMOOTH"
);
}
);
width = 2070;
}
);
unicode = 004E;
userData = {
com.typemytype.robofont.layerData = {
background = {
anchors = (
);
components = (
);
contours = (
{
points = (
{
smooth = 0;
x = 1450;
y = 446;
},
{
smooth = 0;
x = 1508;
y = 390;
},
{
segmentType = curve;
smooth = 1;
x = 1508;
y = 318;
},
{
smooth = 0;
x = 1508;
y = 248;
},
{
smooth = 0;
x = 1450;
y = 192;
},
{
segmentType = curve;
smooth = 1;
x = 1380;
y = 192;
},
{
smooth = 0;
x = 1310;
y = 192;
},
{
smooth = 0;
x = 1252;
y = 248;
},
{
segmentType = curve;
smooth = 1;
x = 1252;
y = 318;
},
{
smooth = 0;
x = 1252;
y = 390;
},
{
smooth = 0;
x = 1310;
y = 446;
},
{
segmentType = curve;
smooth = 1;
x = 1380;
y = 446;
}
);
},
{
points = (
{
segmentType = line;
smooth = 0;
x = 220;
y = 0;
},
{
segmentType = line;
smooth = 0;
x = 1660;
y = 0;
},
{
segmentType = line;
smooth = 0;
x = 1660;
y = 1442;
},
{
segmentType = line;
smooth = 0;
x = 220;
y = 1442;
}
);
},
{
points = (
{
segmentType = curve;
smooth = 1;
x = 674;
y = 1296;
},
{
smooth = 0;
x = 744;
y = 1296;
},
{
smooth = 0;
x = 802;
y = 1240;
},
{
segmentType = curve;
smooth = 1;
x = 802;
y = 1168;
},
{
smooth = 0;
x = 802;
y = 1098;
},
{
smooth = 0;
x = 744;
y = 1042;
},
{
segmentType = curve;
smooth = 1;
x = 674;
y = 1042;
},
{
smooth = 0;
x = 604;
y = 1042;
},
{
smooth = 0;
x = 546;
y = 1098;
},
{
segmentType = curve;
smooth = 1;
x = 546;
y = 1168;
},
{
smooth = 0;
x = 546;
y = 1240;
},
{
smooth = 0;
x = 604;
y = 1296;
}
);
}
);
lib = {
};
name = N;
unicodes = (
);
width = 2070;
};
};
};
},
{
glyphname = O;
lastChange = "2018-04-11 19:05:46 +0000";
layers = (
{
layerId = "A06561DA-A1C3-4D4F-A301-2F031DFC9FDA";
paths = (
{
closed = 1;
nodes = (
"1826 336 OFFCURVE",
"1826 732 CURVE SMOOTH",
"1826 1140 OFFCURVE",
"1534 1506 OFFCURVE",
"1044 1506 CURVE SMOOTH",
"520 1506 OFFCURVE",
"196 1114 OFFCURVE",
"196 714 CURVE SMOOTH",
"196 318 OFFCURVE",
"478 -62 OFFCURVE",
"982 -62 CURVE SMOOTH",
"1508 -62 OFFCURVE"
);
},
{
closed = 1;
nodes = (
"1370 72 OFFCURVE",
"1054 72 CURVE SMOOTH",
"668 72 OFFCURVE",
"474 470 OFFCURVE",
"474 844 CURVE SMOOTH",
"474 1144 OFFCURVE",
"666 1372 OFFCURVE",
"962 1372 CURVE SMOOTH",
"1352 1372 OFFCURVE",
"1550 988 OFFCURVE",
"1550 600 CURVE SMOOTH",
"1550 298 OFFCURVE"
);
}
);
width = 2024;
}
);
unicode = 004F;
userData = {
com.typemytype.robofont.layerData = {
background = {
anchors = (
);
components = (
);
contours = (
{
points = (
{
smooth = 0;
x = 1508;
y = -62;
},
{
smooth = 0;
x = 1840;
y = 322;
},
{
segmentType = curve;
smooth = 1;
x = 1840;
y = 740;
},
{
smooth = 0;
x = 1840;
y = 1148;
},
{
smooth = 0;
x = 1534;
y = 1506;
},
{
segmentType = curve;
smooth = 1;
x = 1044;
y = 1506;
},
{
smooth = 0;
x = 520;
y = 1506;
},
{
smooth = 0;
x = 186;
y = 1122;
},
{
segmentType = curve;
smooth = 1;
x = 186;
y = 698;
},
{
smooth = 0;
x = 186;
y = 302;
},
{
smooth = 0;
x = 478;
y = -62;
},
{
segmentType = curve;
smooth = 1;
x = 982;
y = -62;
}
);
},
{
points = (
{
smooth = 0;
x = 1550;
y = 298;
},
{
smooth = 0;
x = 1370;
y = 72;
},
{
segmentType = curve;
smooth = 1;
x = 1054;
y = 72;
},
{
smooth = 0;
x = 668;
y = 72;
},
{
smooth = 0;
x = 474;
y = 470;
},
{
segmentType = curve;
smooth = 1;
x = 474;
y = 844;
},
{
smooth = 0;
x = 474;
y = 1144;
},
{
smooth = 0;
x = 666;
y = 1372;
},
{
segmentType = curve;
smooth = 1;
x = 962;
y = 1372;
},
{
smooth = 0;
x = 1352;
y = 1372;
},
{
smooth = 0;
x = 1550;
y = 988;
},
{
segmentType = curve;
smooth = 1;
x = 1550;
y = 600;
}
);
},
{
points = (
{
segmentType = curve;
smooth = 1;
x = -822;
y = 92;
},
{
smooth = 0;
x = -1170;
y = 0;
},
{
smooth = 0;
x = -1396;
y = 244;
},
{
segmentType = curve;
smooth = 1;
x = -1488;
y = 590;
},
{
smooth = 0;
x = -1578;
y = 938;
},
{
smooth = 0;
x = -1502;
y = 1260;
},
{
segmentType = curve;
smooth = 1;
x = -1154;
y = 1352;
},
{
smooth = 0;
x = -806;
y = 1444;
},
{
smooth = 0;
x = -580;
y = 1202;
},
{
segmentType = curve;
smooth = 1;
x = -488;
y = 854;
},
{
smooth = 0;
x = -398;
y = 508;
},
{
smooth = 0;
x = -474;
y = 184;
}
);
},
{
points = (
{
segmentType = curve;
smooth = 1;
x = -790;
y = -32;
},
{
smooth = 0;
x = -314;
y = 92;
},
{
smooth = 0;
x = -100;
y = 536;
},
{
segmentType = curve;
smooth = 1;
x = -202;
y = 928;
},
{
smooth = 0;
x = -306;
y = 1324;
},
{
smooth = 0;
x = -710;
y = 1602;
},
{
segmentType = curve;
smooth = 1;
x = -1186;
y = 1476;
},
{
smooth = 0;
x = -1662;
y = 1352;
},
{
smooth = 0;
x = -1878;
y = 910;
},
{
segmentType = curve;
smooth = 1;
x = -1774;
y = 516;
},
{
smooth = 0;
x = -1670;
y = 122;
},
{
smooth = 0;
x = -1266;
y = -158;
}
);
},
{
points = (
{
segmentType = curve;
smooth = 1;
x = 3012;
y = 70;
},
{
smooth = 0;
x = 2652;
y = 70;
},
{
smooth = 0;
x = 2496;
y = 364;
},
{
segmentType = curve;
smooth = 1;
x = 2496;
y = 722;
},
{
smooth = 0;
x = 2496;
y = 1082;
},
{
smooth = 0;
x = 2652;
y = 1374;
},
{
segmentType = curve;
smooth = 1;
x = 3012;
y = 1374;
},
{
smooth = 0;
x = 3372;
y = 1374;
},
{
smooth = 0;
x = 3528;
y = 1082;
},
{
segmentType = curve;
smooth = 1;
x = 3528;
y = 722;
},
{
smooth = 0;
x = 3528;
y = 364;
},
{
smooth = 0;
x = 3372;
y = 70;
}
);
},
{
points = (
{
segmentType = curve;
smooth = 1;
x = 3012;
y = -58;
},
{
smooth = 0;
x = 3504;
y = -58;
},
{
smooth = 0;
x = 3824;
y = 316;
},
{
segmentType = curve;
smooth = 1;
x = 3824;
y = 722;
},
{
smooth = 0;
x = 3824;
y = 1130;
},
{
smooth = 0;
x = 3504;
y = 1502;
},
{
segmentType = curve;
smooth = 1;
x = 3012;
y = 1502;
},
{
smooth = 0;
x = 2520;
y = 1502;
},
{
smooth = 0;
x = 2200;
y = 1130;
},
{
segmentType = curve;
smooth = 1;
x = 2200;
y = 722;
},
{
smooth = 0;
x = 2200;
y = 316;
},
{
smooth = 0;
x = 2520;
y = -58;
}
);
}
);
lib = {
};
name = O;
unicodes = (
);
width = 2024;
};
};
};
},
{
glyphname = R;
lastChange = "2018-04-11 19:05:46 +0000";
layers = (
{
layerId = "A06561DA-A1C3-4D4F-A301-2F031DFC9FDA";
paths = (
{
closed = 1;
nodes = (
"400 152 OFFCURVE",
"400 110 OFFCURVE",
"184 96 CURVE",
"180 0 LINE",
"890 0 LINE",
"890 0 OFFCURVE",
"886 96 OFFCURVE",
"886 96 CURVE",
"654 110 OFFCURVE",
"656 154 OFFCURVE",
"656 338 CURVE SMOOTH",
"656 1360 LINE SMOOTH",
"400 1360 LINE",
"400 342 LINE SMOOTH"
);
},
{
closed = 1;
nodes = (
"172 1330 LINE",
"392 1306 OFFCURVE",
"400 1258 OFFCURVE",
"400 1140 CURVE",
"536 1208 LINE",
"634 1316 OFFCURVE",
"772 1354 OFFCURVE",
"874 1354 CURVE SMOOTH",
"1026 1354 OFFCURVE",
"1122 1282 OFFCURVE",
"1144 1132 CURVE SMOOTH",
"1166 986 OFFCURVE",
"1118 824 OFFCURVE",
"906 690 CURVE",
"950 612 LINE",
"1322 784 OFFCURVE",
"1460 978 OFFCURVE",
"1414 1194 CURVE SMOOTH",
"1376 1370 OFFCURVE",
"1216 1474 OFFCURVE",
"930 1474 CURVE SMOOTH",
"798 1474 OFFCURVE",
"648 1446 OFFCURVE",
"540 1420 CURVE",
"176 1428 LINE"
);
},
{
closed = 1;
nodes = (
"556 642 LINE",
"680 606 OFFCURVE",
"854 574 OFFCURVE",
"1012 558 CURVE",
"1046 708 LINE",
"868 714 OFFCURVE",
"718 738 OFFCURVE",
"578 768 CURVE"
);
},
{
closed = 1;
nodes = (
"1030 322 OFFCURVE",
"1130 190 OFFCURVE",
"1204 112 CURVE SMOOTH",
"1322 -10 OFFCURVE",
"1422 -36 OFFCURVE",
"1516 -36 CURVE SMOOTH",
"1618 -36 OFFCURVE",
"1726 2 OFFCURVE",
"1834 106 CURVE",
"1784 192 LINE",
"1728 172 OFFCURVE",
"1672 158 OFFCURVE",
"1618 158 CURVE SMOOTH",
"1560 158 OFFCURVE",
"1506 170 OFFCURVE",
"1440 230 CURVE SMOOTH",
"1316 340 OFFCURVE",
"1214 472 OFFCURVE",
"1048 708 CURVE",
"856 598 LINE"
);
}
);
width = 1820;
}
);
unicode = 0052;
userData = {
com.typemytype.robofont.layerData = {
background = {
anchors = (
);
components = (
);
contours = (
{
points = (
{
segmentType = line;
smooth = 0;
x = 176;
y = 1440;
},
{
segmentType = line;
smooth = 0;
x = 172;
y = 1342;
},
{
smooth = 0;
x = 392;
y = 1318;
},
{
smooth = 0;
x = 400;
y = 1270;
},
{
segmentType = curve;
smooth = 0;
x = 400;
y = 1152;
},
{
segmentType = line;
smooth = 0;
x = 536;
y = 1220;
},
{
smooth = 0;
x = 634;
y = 1328;
},
{
smooth = 0;
x = 772;
y = 1366;
},
{
segmentType = curve;
smooth = 1;
x = 882;
y = 1366;
},
{
smooth = 0;
x = 1030;
y = 1366;
},
{
smooth = 0;
x = 1144;
y = 1292;
},
{
segmentType = curve;
smooth = 1;
x = 1166;
y = 1132;
},
{
smooth = 0;
x = 1184;
y = 1002;
},
{
smooth = 0;
x = 1134;
y = 826;
},
{
segmentType = curve;
smooth = 0;
x = 928;
y = 708;
},
{
segmentType = line;
smooth = 0;
x = 972;
y = 616;
},
{
smooth = 0;
x = 1344;
y = 788;
},
{
smooth = 0;
x = 1484;
y = 982;
},
{
segmentType = curve;
smooth = 1;
x = 1436;
y = 1198;
},
{
smooth = 0;
x = 1396;
y = 1380;
},
{
smooth = 0;
x = 1216;
y = 1486;
},
{
segmentType = curve;
smooth = 1;
x = 930;
y = 1486;
},
{
smooth = 0;
x = 798;
y = 1486;
},
{
smooth = 0;
x = 648;
y = 1458;
},
{
segmentType = curve;
smooth = 0;
x = 540;
y = 1432;
}
);
},
{
points = (
{
segmentType = line;
smooth = 0;
x = 856;
y = 598;
},
{
smooth = 0;
x = 1030;
y = 322;
},
{
smooth = 0;
x = 1130;
y = 190;
},
{
segmentType = curve;
smooth = 1;
x = 1204;
y = 112;
},
{
smooth = 0;
x = 1322;
y = -10;
},
{
smooth = 0;
x = 1422;
y = -36;
},
{
segmentType = curve;
smooth = 1;
x = 1516;
y = -36;
},
{
smooth = 0;
x = 1618;
y = -36;
},
{
smooth = 0;
x = 1726;
y = 2;
},
{
segmentType = curve;
smooth = 0;
x = 1834;
y = 106;
},
{
segmentType = line;
smooth = 0;
x = 1784;
y = 192;
},
{
smooth = 0;
x = 1728;
y = 172;
},
{
smooth = 0;
x = 1672;
y = 158;
},
{
segmentType = curve;
smooth = 1;
x = 1618;
y = 158;
},
{
smooth = 0;
x = 1560;
y = 158;
},
{
smooth = 0;
x = 1506;
y = 170;
},
{
segmentType = curve;
smooth = 1;
x = 1440;
y = 230;
},
{
smooth = 0;
x = 1316;
y = 340;
},
{
smooth = 0;
x = 1214;
y = 472;
},
{
segmentType = curve;
smooth = 0;
x = 1048;
y = 708;
}
);
},
{
points = (
{
segmentType = curve;
smooth = 0;
x = 578;
y = 768;
},
{
segmentType = line;
smooth = 0;
x = 556;
y = 642;
},
{
smooth = 0;
x = 680;
y = 606;
},
{
smooth = 0;
x = 854;
y = 574;
},
{
segmentType = curve;
smooth = 0;
x = 1012;
y = 558;
},
{
segmentType = line;
smooth = 0;
x = 1046;
y = 708;
},
{
smooth = 0;
x = 868;
y = 714;
},
{
smooth = 0;
x = 718;
y = 738;
}
);
},
{
points = (
{
segmentType = line;
smooth = 1;
x = 400;
y = 342;
},
{
smooth = 0;
x = 400;
y = 152;
},
{
smooth = 0;
x = 400;
y = 110;
},
{
segmentType = curve;
smooth = 0;
x = 184;
y = 96;
},
{
segmentType = line;
smooth = 0;
x = 180;
y = 0;
},
{
segmentType = line;
smooth = 0;
x = 890;
y = 0;
},
{
smooth = 0;
x = 890;
y = 0;
},
{
smooth = 0;
x = 886;
y = 96;
},
{
segmentType = curve;
smooth = 0;
x = 886;
y = 96;
},
{
smooth = 0;
x = 654;
y = 110;
},
{
smooth = 0;
x = 656;
y = 154;
},
{
segmentType = curve;
smooth = 1;
x = 656;
y = 338;
},
{
segmentType = line;
smooth = 1;
x = 656;
y = 1360;
},
{
segmentType = line;
smooth = 0;
x = 400;
y = 1360;
}
);
}
);
lib = {
};
name = R;
unicodes = (
);
width = 1820;
};
};
};
},
{
glyphname = S;
lastChange = "2018-04-11 19:06:54 +0000";
layers = (
{
layerId = "A06561DA-A1C3-4D4F-A301-2F031DFC9FDA";
paths = (
{
closed = 1;
nodes = (
"584 1480 OFFCURVE",
"462 1448 OFFCURVE",
"360 1358 CURVE SMOOTH",
"279 1287 OFFCURVE",
"226 1174 OFFCURVE",
"226 1050 CURVE SMOOTH",
"226 832 OFFCURVE",
"372 698 OFFCURVE",
"702 568 CURVE SMOOTH",
"963 465 OFFCURVE",
"1036 394 OFFCURVE",
"1036 288 CURVE SMOOTH",
"1036 170 OFFCURVE",
"934 88 OFFCURVE",
"764 88 CURVE SMOOTH",
"534 88 OFFCURVE",
"358 184 OFFCURVE",
"344 494 CURVE",
"226 492 LINE",
"228 332 OFFCURVE",
"226 156 OFFCURVE",
"196 12 CURVE",
"234 -10 LINE",
"288 18 OFFCURVE",
"359 31 OFFCURVE",
"462 6 CURVE SMOOTH",
"536 -12 OFFCURVE",
"622 -40 OFFCURVE",
"746 -40 CURVE SMOOTH",
"894 -40 OFFCURVE",
"1000 -8 OFFCURVE",
"1090 58 CURVE SMOOTH",
"1188 130 OFFCURVE",
"1242 244 OFFCURVE",
"1242 360 CURVE SMOOTH",
"1242 616 OFFCURVE",
"1070 733 OFFCURVE",
"802 840 CURVE SMOOTH",
"506 958 OFFCURVE",
"426 1028 OFFCURVE",
"426 1140 CURVE SMOOTH",
"426 1256 OFFCURVE",
"528 1352 OFFCURVE",
"710 1352 CURVE SMOOTH",
"934 1352 OFFCURVE",
"1062 1256 OFFCURVE",
"1058 958 CURVE",
"1174 952 LINE",
"1182 1070 OFFCURVE",
"1196 1260 OFFCURVE",
"1230 1422 CURVE",
"1192 1446 LINE",
"1152 1428 OFFCURVE",
"1098 1420 OFFCURVE",
"1050 1426 CURVE",
"952 1440 OFFCURVE",
"862 1480 OFFCURVE",
"722 1480 CURVE SMOOTH"
);
}
);
width = 1420;
}
);
unicode = 0053;
userData = {
com.typemytype.robofont.guides = (
{
angle = 83.63056;
isGlobal = 0;
magnetic = 5;
x = 96;
y = 116;
}
);
com.typemytype.robofont.layerData = {
background = {
anchors = (
);
components = (
);
contours = (
{
points = (
{
segmentType = curve;
smooth = 1;
x = 722;
y = 1480;
},
{
smooth = 0;
x = 584;
y = 1480;
},
{
smooth = 0;
x = 460;
y = 1448;
},
{
segmentType = curve;
smooth = 1;
x = 366;
y = 1364;
},
{
smooth = 0;
x = 282;
y = 1290;
},
{
smooth = 0;
x = 224;
y = 1180;
},
{
segmentType = curve;
smooth = 1;
x = 224;
y = 1060;
},
{
smooth = 0;
x = 224;
y = 974;
},
{
smooth = 0;
x = 244;
y = 914;
},
{
segmentType = curve;
smooth = 1;
x = 278;
y = 858;
},
{
smooth = 0;
x = 308;
y = 810;
},
{
smooth = 0;
x = 348;
y = 764;
},
{
segmentType = curve;
smooth = 1;
x = 408;
y = 720;
},
{
smooth = 0;
x = 480;
y = 668;
},
{
smooth = 0;
x = 606;
y = 606;
},
{
segmentType = curve;
smooth = 1;
x = 702;
y = 568;
},
{
smooth = 0;
x = 966;
y = 464;
},
{
smooth = 0;
x = 1040;
y = 392;
},
{
segmentType = curve;
smooth = 1;
x = 1040;
y = 284;
},
{
smooth = 0;
x = 1040;
y = 238;
},
{
smooth = 0;
x = 1028;
y = 196;
},
{
segmentType = curve;
smooth = 0;
x = 994;
y = 162;
},
{
smooth = 0;
x = 940;
y = 106;
},
{
smooth = 0;
x = 868;
y = 88;
},
{
segmentType = curve;
smooth = 1;
x = 756;
y = 88;
},
{
smooth = 0;
x = 534;
y = 88;
},
{
smooth = 0;
x = 358;
y = 184;
},
{
segmentType = curve;
smooth = 0;
x = 344;
y = 494;
},
{
segmentType = line;
smooth = 0;
x = 226;
y = 492;
},
{
smooth = 0;
x = 228;
y = 332;
},
{
smooth = 0;
x = 226;
y = 156;
},
{
segmentType = curve;
smooth = 0;
x = 196;
y = 12;
},
{
segmentType = line;
smooth = 0;
x = 234;
y = -10;
},
{
smooth = 0;
x = 288;
y = 18;
},
{
smooth = 0;
x = 360;
y = 32;
},
{
segmentType = curve;
smooth = 1;
x = 462;
y = 6;
},
{
smooth = 0;
x = 536;
y = -12;
},
{
smooth = 0;
x = 622;
y = -40;
},
{
segmentType = curve;
smooth = 1;
x = 744;
y = -40;
},
{
smooth = 0;
x = 894;
y = -40;
},
{
smooth = 0;
x = 1000;
y = -8;
},
{
segmentType = curve;
smooth = 1;
x = 1090;
y = 58;
},
{
smooth = 0;
x = 1188;
y = 130;
},
{
smooth = 0;
x = 1242;
y = 232;
},
{
segmentType = curve;
smooth = 1;
x = 1242;
y = 366;
},
{
smooth = 0;
x = 1242;
y = 448;
},
{
smooth = 0;
x = 1224;
y = 514;
},
{
segmentType = curve;
smooth = 1;
x = 1196;
y = 562;
},
{
smooth = 0;
x = 1162;
y = 622;
},
{
smooth = 0;
x = 1128;
y = 656;
},
{
segmentType = curve;
smooth = 1;
x = 1058;
y = 708;
},
{
smooth = 0;
x = 996;
y = 756;
},
{
smooth = 0;
x = 908;
y = 796;
},
{
segmentType = curve;
smooth = 1;
x = 802;
y = 840;
},
{
smooth = 0;
x = 506;
y = 962;
},
{
smooth = 0;
x = 426;
y = 1028;
},
{
segmentType = curve;
smooth = 1;
x = 426;
y = 1140;
},
{
smooth = 0;
x = 426;
y = 1186;
},
{
smooth = 0;
x = 446;
y = 1240;
},
{
segmentType = curve;
smooth = 1;
x = 488;
y = 1278;
},
{
smooth = 0;
x = 540;
y = 1326;
},
{
smooth = 0;
x = 610;
y = 1352;
},
{
segmentType = curve;
smooth = 1;
x = 710;
y = 1352;
},
{
smooth = 0;
x = 934;
y = 1352;
},
{
smooth = 0;
x = 1062;
y = 1256;
},
{
segmentType = curve;
smooth = 0;
x = 1058;
y = 958;
},
{
segmentType = line;
smooth = 0;
x = 1174;
y = 952;
},
{
smooth = 0;
x = 1182;
y = 1070;
},
{
smooth = 0;
x = 1196;
y = 1260;
},
{
segmentType = curve;
smooth = 0;
x = 1230;
y = 1422;
},
{
segmentType = line;
smooth = 0;
x = 1192;
y = 1446;
},
{
smooth = 0;
x = 1152;
y = 1428;
},
{
smooth = 0;
x = 1098;
y = 1420;
},
{
segmentType = curve;
smooth = 0;
x = 1050;
y = 1426;
},
{
smooth = 0;
x = 952;
y = 1440;
},
{
smooth = 0;
x = 862;
y = 1480;
}
);
},
{
points = (
{
segmentType = curve;
smooth = 1;
x = 2118;
y = 1480;
},
{
smooth = 0;
x = 1792;
y = 1480;
},
{
smooth = 0;
x = 1624;
y = 1292;
},
{
segmentType = curve;
smooth = 1;
x = 1624;
y = 1064;
},
{
smooth = 0;
x = 1624;
y = 918;
},
{
smooth = 0;
x = 1666;
y = 802;
},
{
segmentType = curve;
smooth = 1;
x = 1806;
y = 706;
},
{
smooth = 0;
x = 1878;
y = 658;
},
{
smooth = 0;
x = 1978;
y = 616;
},
{
segmentType = curve;
smooth = 1;
x = 2102;
y = 568;
},
{
smooth = 0;
x = 2378;
y = 460;
},
{
smooth = 0;
x = 2458;
y = 420;
},
{
segmentType = curve;
smooth = 1;
x = 2458;
y = 280;
},
{
smooth = 0;
x = 2458;
y = 168;
},
{
smooth = 0;
x = 2360;
y = 88;
},
{
segmentType = curve;
smooth = 1;
x = 2156;
y = 88;
},
{
smooth = 0;
x = 1934;
y = 88;
},
{
smooth = 0;
x = 1758;
y = 184;
},
{
segmentType = curve;
smooth = 0;
x = 1744;
y = 494;
},
{
segmentType = line;
smooth = 0;
x = 1626;
y = 492;
},
{
smooth = 0;
x = 1628;
y = 332;
},
{
smooth = 0;
x = 1626;
y = 156;
},
{
segmentType = curve;
smooth = 0;
x = 1596;
y = 12;
},
{
segmentType = line;
smooth = 0;
x = 1634;
y = -10;
},
{
smooth = 0;
x = 1688;
y = 18;
},
{
smooth = 0;
x = 1760;
y = 32;
},
{
segmentType = curve;
smooth = 1;
x = 1862;
y = 6;
},
{
smooth = 0;
x = 1936;
y = -12;
},
{
smooth = 0;
x = 2022;
y = -40;
},
{
segmentType = curve;
smooth = 1;
x = 2144;
y = -40;
},
{
smooth = 0;
x = 2478;
y = -40;
},
{
smooth = 0;
x = 2642;
y = 110;
},
{
segmentType = curve;
smooth = 1;
x = 2642;
y = 366;
},
{
smooth = 0;
x = 2642;
y = 512;
},
{
smooth = 0;
x = 2588;
y = 626;
},
{
segmentType = curve;
smooth = 1;
x = 2464;
y = 716;
},
{
smooth = 0;
x = 2400;
y = 762;
},
{
smooth = 0;
x = 2312;
y = 804;
},
{
segmentType = curve;
smooth = 1;
x = 2206;
y = 844;
},
{
smooth = 0;
x = 1906;
y = 958;
},
{
smooth = 0;
x = 1808;
y = 1002;
},
{
segmentType = curve;
smooth = 1;
x = 1808;
y = 1132;
},
{
smooth = 0;
x = 1808;
y = 1248;
},
{
smooth = 0;
x = 1902;
y = 1352;
},
{
segmentType = curve;
smooth = 1;
x = 2110;
y = 1352;
},
{
smooth = 0;
x = 2334;
y = 1352;
},
{
smooth = 0;
x = 2462;
y = 1256;
},
{
segmentType = curve;
smooth = 0;
x = 2458;
y = 958;
},
{
segmentType = line;
smooth = 0;
x = 2574;
y = 952;
},
{
smooth = 0;
x = 2582;
y = 1070;
},
{
smooth = 0;
x = 2596;
y = 1260;
},
{
segmentType = curve;
smooth = 0;
x = 2630;
y = 1422;
},
{
segmentType = line;
smooth = 0;
x = 2592;
y = 1446;
},
{
smooth = 0;
x = 2552;
y = 1428;
},
{
smooth = 0;
x = 2498;
y = 1420;
},
{
segmentType = curve;
smooth = 0;
x = 2450;
y = 1426;
},
{
smooth = 0;
x = 2352;
y = 1440;
},
{
smooth = 0;
x = 2262;
y = 1480;
}
);
}
);
lib = {
};
name = S;
unicodes = (
);
width = 1420;
};
};
};
},
{
glyphname = T;
lastChange = "2018-04-11 19:05:46 +0000";
layers = (
{
layerId = "A06561DA-A1C3-4D4F-A301-2F031DFC9FDA";
paths = (
{
closed = 1;
nodes = (
"470 1440 OFFCURVE",
"340 1444 OFFCURVE",
"230 1458 CURVE",
"192 1432 LINE",
"142 938 LINE",
"266 924 LINE",
"348 1266 OFFCURVE",
"374 1312 OFFCURVE",
"612 1312 CURVE SMOOTH",
"750 1312 LINE",
"750 342 LINE SMOOTH",
"750 152 OFFCURVE",
"750 112 OFFCURVE",
"520 96 CURVE",
"516 0 LINE",
"1240 0 LINE",
"1240 0 OFFCURVE",
"1236 96 OFFCURVE",
"1236 96 CURVE",
"1004 110 OFFCURVE",
"1006 154 OFFCURVE",
"1006 338 CURVE SMOOTH",
"1006 1312 LINE",
"1168 1312 LINE SMOOTH",
"1434 1312 OFFCURVE",
"1472 1248 OFFCURVE",
"1474 938 CURVE",
"1600 930 LINE",
"1640 1432 LINE",
"1602 1458 LINE",
"1492 1444 OFFCURVE",
"1332 1440 OFFCURVE",
"1214 1440 CURVE SMOOTH",
"616 1440 LINE SMOOTH"
);
}
);
width = 1756;
}
);
unicode = 0054;
userData = {
com.typemytype.robofont.guides = (
{
angle = 0;
isGlobal = 0;
magnetic = 5;
x = 648;
y = 462;
}
);
com.typemytype.robofont.layerData = {
background = {
anchors = (
);
components = (
);
contours = (
{
points = (
{
segmentType = line;
smooth = 1;
x = 582;
y = 1440;
},
{
smooth = 0;
x = 436;
y = 1440;
},
{
smooth = 0;
x = 306;
y = 1444;
},
{
segmentType = curve;
smooth = 0;
x = 196;
y = 1458;
},
{
segmentType = line;
smooth = 0;
x = 158;
y = 1432;
},
{
segmentType = line;
smooth = 0;
x = 108;
y = 938;
},
{
segmentType = line;
smooth = 0;
x = 232;
y = 924;
},
{
smooth = 0;
x = 314;
y = 1266;
},
{
smooth = 0;
x = 340;
y = 1312;
},
{
segmentType = curve;
smooth = 1;
x = 578;
y = 1312;
},
{
segmentType = line;
smooth = 0;
x = 750;
y = 1312;
},
{
segmentType = line;
smooth = 1;
x = 750;
y = 342;
},
{
smooth = 0;
x = 750;
y = 152;
},
{
smooth = 0;
x = 750;
y = 112;
},
{
segmentType = curve;
smooth = 0;
x = 520;
y = 96;
},
{
segmentType = line;
smooth = 0;
x = 516;
y = 0;
},
{
segmentType = line;
smooth = 0;
x = 1240;
y = 0;
},
{
smooth = 0;
x = 1240;
y = 0;
},
{
smooth = 0;
x = 1236;
y = 96;
},
{
segmentType = curve;
smooth = 0;
x = 1236;
y = 96;
},
{
smooth = 0;
x = 1004;
y = 110;
},
{
smooth = 0;
x = 1006;
y = 154;
},
{
segmentType = curve;
smooth = 1;
x = 1006;
y = 338;
},
{
segmentType = line;
smooth = 0;
x = 1006;
y = 1312;
},
{
segmentType = line;
smooth = 1;
x = 1202;
y = 1312;
},
{
smooth = 0;
x = 1468;
y = 1312;
},
{
smooth = 0;
x = 1506;
y = 1248;
},
{
segmentType = curve;
smooth = 0;
x = 1508;
y = 938;
},
{
segmentType = line;
smooth = 0;
x = 1634;
y = 930;
},
{
segmentType = line;
smooth = 0;
x = 1674;
y = 1432;
},
{
segmentType = line;
smooth = 0;
x = 1636;
y = 1458;
},
{
smooth = 0;
x = 1526;
y = 1444;
},
{
smooth = 0;
x = 1366;
y = 1440;
},
{
segmentType = curve;
smooth = 1;
x = 1248;
y = 1440;
}
);
}
);
lib = {
};
name = T;
unicodes = (
);
width = 1756;
};
};
};
},
{
glyphname = W;
lastChange = "2018-04-11 19:05:46 +0000";
layers = (
{
layerId = "A06561DA-A1C3-4D4F-A301-2F031DFC9FDA";
paths = (
{
closed = 1;
nodes = (
"836 224 LINE",
"1006 224 LINE",
"1342 1216 LINE SMOOTH",
"1180 1216 LINE"
);
},
{
closed = 1;
nodes = (
"638 1098 LINE SMOOTH",
"580 1298 OFFCURVE",
"584 1336 OFFCURVE",
"804 1344 CURVE",
"808 1440 LINE",
"100 1440 LINE",
"100 1440 OFFCURVE",
"104 1344 OFFCURVE",
"104 1344 CURVE",
"302 1332 OFFCURVE",
"316 1294 OFFCURVE",
"372 1100 CURVE SMOOTH",
"622 224 LINE",
"890 224 LINE"
);
},
{
closed = 1;
nodes = (
"1444 1440 LINE",
"1244 1440 LINE",
"1180 1216 LINE",
"1512 1216 LINE"
);
},
{
closed = 1;
nodes = (
"1006 224 LINE",
"622 224 LINE",
"676 4 LINE",
"708 -18 LINE",
"946 10 LINE"
);
},
{
closed = 1;
nodes = (
"2444 778 OFFCURVE",
"2444 1032 CURVE",
"2444 1454 OFFCURVE",
"2176 1606 OFFCURVE",
"1786 1532 CURVE",
"1786 1532 OFFCURVE",
"1790 1426 OFFCURVE",
"1790 1426 CURVE",
"2014 1396 OFFCURVE",
"2138 1258 OFFCURVE",
"2166 1006 CURVE SMOOTH",
"2188 808 OFFCURVE",
"2156 542 OFFCURVE",
"1904 256 CURVE SMOOTH",
"1860 206 LINE",
"1878 206 LINE",
"1878 206 OFFCURVE",
"1512 1216 OFFCURVE",
"1512 1216 CURVE",
"1244 1216 LINE",
"1606 206 LINE",
"1668 -16 LINE",
"1704 -36 LINE",
"1874 -10 LINE",
"2010 140 LINE SMOOTH",
"2338 502 OFFCURVE"
);
}
);
width = 2720;
}
);
unicode = 0057;
userData = {
com.typemytype.robofont.guides = (
{
angle = 0;
isGlobal = 0;
magnetic = 5;
x = 565;
y = 553;
}
);
com.typemytype.robofont.layerData = {
background = {
anchors = (
);
components = (
);
contours = (
{
points = (
{
segmentType = curve;
smooth = 1;
x = 2254;
y = 1368;
},
{
smooth = 0;
x = 2324;
y = 1368;
},
{
smooth = 0;
x = 2382;
y = 1312;
},
{
segmentType = curve;
smooth = 1;
x = 2382;
y = 1240;
},
{
smooth = 0;
x = 2382;
y = 1170;
},
{
smooth = 0;
x = 2324;
y = 1114;
},
{
segmentType = curve;
smooth = 1;
x = 2254;
y = 1114;
},
{
smooth = 0;
x = 2184;
y = 1114;
},
{
smooth = 0;
x = 2126;
y = 1170;
},
{
segmentType = curve;
smooth = 1;
x = 2126;
y = 1240;
},
{
smooth = 0;
x = 2126;
y = 1312;
},
{
smooth = 0;
x = 2184;
y = 1368;
}
);
},
{
points = (
{
segmentType = curve;
smooth = 1;
x = 682;
y = 648;
},
{
smooth = 0;
x = 752;
y = 648;
},
{
smooth = 0;
x = 810;
y = 592;
},
{
segmentType = curve;
smooth = 1;
x = 810;
y = 520;
},
{
smooth = 0;
x = 810;
y = 450;
},
{
smooth = 0;
x = 752;
y = 394;
},
{
segmentType = curve;
smooth = 1;
x = 682;
y = 394;
},
{
smooth = 0;
x = 612;
y = 394;
},
{
smooth = 0;
x = 554;
y = 450;
},
{
segmentType = curve;
smooth = 1;
x = 554;
y = 520;
},
{
smooth = 0;
x = 554;
y = 592;
},
{
smooth = 0;
x = 612;
y = 648;
}
);
},
{
points = (
{
segmentType = curve;
smooth = 1;
x = 1630;
y = 648;
},
{
smooth = 0;
x = 1700;
y = 648;
},
{
smooth = 0;
x = 1758;
y = 592;
},
{
segmentType = curve;
smooth = 1;
x = 1758;
y = 520;
},
{
smooth = 0;
x = 1758;
y = 450;
},
{
smooth = 0;
x = 1700;
y = 394;
},
{
segmentType = curve;
smooth = 1;
x = 1630;
y = 394;
},
{
smooth = 0;
x = 1560;
y = 394;
},
{
smooth = 0;
x = 1502;
y = 450;
},
{
segmentType = curve;
smooth = 1;
x = 1502;
y = 520;
},
{
smooth = 0;
x = 1502;
y = 592;
},
{
smooth = 0;
x = 1560;
y = 648;
}
);
}
);
lib = {
};
name = W;
unicodes = (
);
width = 2720;
};
};
};
},
{
glyphname = aring;
lastChange = "2018-04-11 19:05:46 +0000";
layers = (
{
components = (
{
name = A;
}
);
layerId = "A06561DA-A1C3-4D4F-A301-2F031DFC9FDA";
paths = (
{
closed = 1;
nodes = (
"806 1811 OFFCURVE",
"712 1718 OFFCURVE",
"712 1604 CURVE SMOOTH",
"712 1489 OFFCURVE",
"806 1396 OFFCURVE",
"920 1396 CURVE SMOOTH",
"1034 1396 OFFCURVE",
"1128 1489 OFFCURVE",
"1128 1604 CURVE SMOOTH",
"1128 1718 OFFCURVE",
"1034 1811 OFFCURVE",
"920 1811 CURVE SMOOTH"
);
}
);
width = 1906;
}
);
unicode = 00E5;
userData = {
com.typemytype.robofont.layerData = {
background = {
anchors = (
);
components = (
);
contours = (
);
lib = {
};
name = aring;
unicodes = (
);
width = 1906;
};
};
com.typemytype.robofont.mark = (
0.3692,
0.5456,
0.891,
1
);
};
},
{
glyphname = zero;
lastChange = "2018-04-11 19:05:46 +0000";
layers = (
{
layerId = "A06561DA-A1C3-4D4F-A301-2F031DFC9FDA";
paths = (
{
closed = 1;
nodes = (
"1024 1492 OFFCURVE",
"798 1492 CURVE SMOOTH",
"444 1492 OFFCURVE",
"150 1186 OFFCURVE",
"150 710 CURVE SMOOTH",
"150 550 OFFCURVE",
"186 390 OFFCURVE",
"258 260 CURVE",
"360 74 OFFCURVE",
"572 -50 OFFCURVE",
"798 -50 CURVE SMOOTH",
"1152 -50 OFFCURVE",
"1446 252 OFFCURVE",
"1446 732 CURVE SMOOTH",
"1446 892 OFFCURVE",
"1410 1052 OFFCURVE",
"1338 1182 CURVE",
"1236 1368 OFFCURVE"
);
},
{
closed = 1;
nodes = (
"410 682 OFFCURVE",
"410 840 CURVE SMOOTH",
"410 1198 OFFCURVE",
"570 1338 OFFCURVE",
"728 1338 CURVE SMOOTH",
"860 1338 OFFCURVE",
"982 1238 OFFCURVE",
"1072 1076 CURVE SMOOTH",
"1150 932 OFFCURVE",
"1186 760 OFFCURVE",
"1186 602 CURVE SMOOTH",
"1186 240 OFFCURVE",
"1026 104 OFFCURVE",
"868 104 CURVE SMOOTH",
"736 104 OFFCURVE",
"614 204 OFFCURVE",
"524 366 CURVE SMOOTH",
"446 510 OFFCURVE"
);
}
);
width = 1596;
}
);
unicode = 0030;
userData = {
com.typemytype.robofont.layerData = {
background = {
anchors = (
);
components = (
);
contours = (
{
points = (
{
segmentType = curve;
smooth = 0;
x = 524;
y = 366;
},
{
smooth = 0;
x = 338;
y = 708;
},
{
smooth = 0;
x = 390;
y = 1198;
},
{
segmentType = curve;
smooth = 1;
x = 594;
y = 1310;
},
{
smooth = 0;
x = 776;
y = 1410;
},
{
smooth = 0;
x = 950;
y = 1296;
},
{
segmentType = curve;
smooth = 0;
x = 1072;
y = 1076;
},
{
smooth = 0;
x = 1258;
y = 734;
},
{
smooth = 0;
x = 1206;
y = 244;
},
{
segmentType = curve;
smooth = 1;
x = 1002;
y = 132;
},
{
smooth = 0;
x = 820;
y = 32;
},
{
smooth = 0;
x = 646;
y = 146;
}
);
},
{
points = (
{
segmentType = curve;
smooth = 0;
x = 1338;
y = 1182;
},
{
smooth = 0;
x = 1196;
y = 1442;
},
{
smooth = 0;
x = 834;
y = 1582;
},
{
segmentType = curve;
smooth = 1;
x = 528;
y = 1428;
},
{
smooth = 0;
x = 128;
y = 1226;
},
{
smooth = 0;
x = 58;
y = 624;
},
{
segmentType = curve;
smooth = 0;
x = 258;
y = 260;
},
{
smooth = 0;
x = 400;
y = 0;
},
{
smooth = 0;
x = 762;
y = -140;
},
{
segmentType = curve;
smooth = 1;
x = 1068;
y = 14;
},
{
smooth = 0;
x = 1468;
y = 216;
},
{
smooth = 0;
x = 1538;
y = 818;
}
);
},
{
points = (
{
segmentType = move;
x = -1596;
y = 1316;
},
{
smooth = 0;
x = -1424;
y = 1406;
},
{
smooth = 0;
x = -1240;
y = 1328;
},
{
segmentType = curve;
smooth = 1;
x = -1112;
y = 1056;
},
{
smooth = 0;
x = -902;
y = 612;
},
{
smooth = 0;
x = -988;
y = 214;
},
{
segmentType = curve;
smooth = 1;
x = -1182;
y = 120;
}
);
},
{
points = (
{
segmentType = move;
x = -1126;
y = 0;
},
{
smooth = 0;
x = -724;
y = 168;
},
{
smooth = 0;
x = -642;
y = 780;
},
{
segmentType = curve;
smooth = 1;
x = -844;
y = 1180;
},
{
smooth = 0;
x = -984;
y = 1456;
},
{
smooth = 0;
x = -1356;
y = 1604;
},
{
segmentType = curve;
smooth = 1;
x = -1678;
y = 1426;
}
);
},
{
points = (
{
smooth = 0;
x = 2780;
y = 306;
},
{
smooth = 0;
x = 2658;
y = 72;
},
{
segmentType = curve;
smooth = 1;
x = 2444;
y = 72;
},
{
smooth = 0;
x = 2164;
y = 72;
},
{
smooth = 0;
x = 2024;
y = 460;
},
{
segmentType = curve;
smooth = 1;
x = 2024;
y = 824;
},
{
smooth = 0;
x = 2024;
y = 1136;
},
{
smooth = 0;
x = 2154;
y = 1372;
},
{
segmentType = curve;
smooth = 1;
x = 2352;
y = 1372;
},
{
smooth = 0;
x = 2636;
y = 1372;
},
{
smooth = 0;
x = 2780;
y = 998;
},
{
segmentType = curve;
smooth = 1;
x = 2780;
y = 620;
}
);
},
{
points = (
{
smooth = 0;
x = 2798;
y = -62;
},
{
smooth = 0;
x = 3056;
y = 346;
},
{
segmentType = curve;
smooth = 1;
x = 3056;
y = 752;
},
{
smooth = 0;
x = 3056;
y = 1150;
},
{
smooth = 0;
x = 2824;
y = 1506;
},
{
segmentType = curve;
smooth = 1;
x = 2434;
y = 1506;
},
{
smooth = 0;
x = 2008;
y = 1506;
},
{
smooth = 0;
x = 1746;
y = 1104;
},
{
segmentType = curve;
smooth = 1;
x = 1746;
y = 694;
},
{
smooth = 0;
x = 1746;
y = 308;
},
{
smooth = 0;
x = 1970;
y = -62;
},
{
segmentType = curve;
smooth = 1;
x = 2372;
y = -62;
}
);
}
);
lib = {
};
name = zero;
unicodes = (
);
width = 1596;
};
};
};
},
{
glyphname = one;
lastChange = "2018-04-11 19:05:46 +0000";
layers = (
{
layerId = "A06561DA-A1C3-4D4F-A301-2F031DFC9FDA";
paths = (
{
closed = 1;
nodes = (
"380 342 LINE SMOOTH",
"380 152 OFFCURVE",
"380 112 OFFCURVE",
"150 96 CURVE",
"146 0 LINE",
"870 0 LINE",
"870 0 OFFCURVE",
"866 96 OFFCURVE",
"866 96 CURVE",
"634 110 OFFCURVE",
"636 154 OFFCURVE",
"636 338 CURVE SMOOTH",
"636 1110 LINE SMOOTH",
"636 1190 OFFCURVE",
"646 1316 OFFCURVE",
"666 1428 CURVE",
"598 1488 LINE",
"70 1336 LINE",
"70 1336 OFFCURVE",
"100 1242 OFFCURVE",
"100 1242 CURVE",
"348 1290 OFFCURVE",
"380 1250 OFFCURVE",
"380 1114 CURVE SMOOTH"
);
}
);
width = 936;
}
);
unicode = 0031;
userData = {
com.typemytype.robofont.layerData = {
background = {
anchors = (
);
components = (
);
contours = (
{
points = (
{
segmentType = curve;
smooth = 0;
x = 380;
y = 1102;
},
{
segmentType = line;
smooth = 1;
x = 380;
y = 342;
},
{
smooth = 0;
x = 380;
y = 152;
},
{
smooth = 0;
x = 380;
y = 112;
},
{
segmentType = curve;
smooth = 0;
x = 150;
y = 96;
},
{
segmentType = line;
smooth = 0;
x = 146;
y = 0;
},
{
segmentType = line;
smooth = 0;
x = 870;
y = 0;
},
{
smooth = 0;
x = 870;
y = 0;
},
{
smooth = 0;
x = 866;
y = 96;
},
{
segmentType = curve;
smooth = 0;
x = 866;
y = 96;
},
{
smooth = 0;
x = 634;
y = 110;
},
{
smooth = 0;
x = 636;
y = 154;
},
{
segmentType = curve;
smooth = 1;
x = 636;
y = 338;
},
{
segmentType = line;
smooth = 1;
x = 636;
y = 1098;
},
{
smooth = 0;
x = 636;
y = 1288;
},
{
smooth = 0;
x = 636;
y = 1330;
},
{
segmentType = curve;
smooth = 0;
x = 866;
y = 1344;
},
{
segmentType = line;
smooth = 0;
x = 870;
y = 1440;
},
{
segmentType = line;
smooth = 0;
x = 146;
y = 1440;
},
{
smooth = 0;
x = 146;
y = 1440;
},
{
smooth = 0;
x = 150;
y = 1344;
},
{
segmentType = curve;
smooth = 0;
x = 150;
y = 1344;
},
{
smooth = 0;
x = 382;
y = 1330;
},
{
smooth = 0;
x = 380;
y = 1286;
}
);
}
);
lib = {
};
name = I;
unicodes = (
);
width = 936;
};
};
};
},
{
glyphname = two;
lastChange = "2018-04-11 19:05:46 +0000";
layers = (
{
layerId = "A06561DA-A1C3-4D4F-A301-2F031DFC9FDA";
paths = (
{
closed = 1;
nodes = (
"224 45 OFFCURVE",
"375 115 OFFCURVE",
"546 221 CURVE SMOOTH",
"760 354 OFFCURVE",
"923.477 519.776 OFFCURVE",
"1020 677 CURVE SMOOTH",
"1138.701 868.354 OFFCURVE",
"1152 1028 OFFCURVE",
"1105 1177 CURVE SMOOTH",
"1040 1385 OFFCURVE",
"847.404 1485 OFFCURVE",
"608 1485 CURVE SMOOTH",
"417 1485 OFFCURVE",
"234 1427 OFFCURVE",
"156 1390 CURVE",
"118 1022 LINE",
"232 1003 LINE",
"311.691 1262.263 OFFCURVE",
"392 1341 OFFCURVE",
"548 1341 CURVE SMOOTH",
"701 1341 OFFCURVE",
"814 1234 OFFCURVE",
"860 1055 CURVE SMOOTH",
"892 933 OFFCURVE",
"891 834 OFFCURVE",
"853 735 CURVE SMOOTH",
"802 604 OFFCURVE",
"679 476 OFFCURVE",
"473 342 CURVE SMOOTH",
"321 243 OFFCURVE",
"189 185 OFFCURVE",
"60 130 CURVE",
"114 3 LINE"
);
},
{
closed = 1;
nodes = (
"497 21 OFFCURVE",
"672 -30 OFFCURVE",
"858 -30 CURVE SMOOTH",
"963 -30 OFFCURVE",
"1064 -8 OFFCURVE",
"1132 18 CURVE",
"1199 392 LINE",
"1086 418 LINE",
"1022 243 OFFCURVE",
"980 182 OFFCURVE",
"850 182 CURVE SMOOTH",
"721 182 OFFCURVE",
"596 205 OFFCURVE",
"446 247 CURVE",
"289 111 LINE"
);
}
);
width = 1319;
}
);
unicode = 0032;
userData = {
com.typemytype.robofont.layerData = {
background = {
anchors = (
);
components = (
);
contours = (
);
lib = {
};
name = two;
unicodes = (
);
width = 1319;
};
};
};
},
{
glyphname = three;
lastChange = "2018-04-11 19:05:46 +0000";
layers = (
{
layerId = "A06561DA-A1C3-4D4F-A301-2F031DFC9FDA";
paths = (
{
closed = 1;
nodes = (
"334 1290 OFFCURVE",
"459 1351 OFFCURVE",
"590 1351 CURVE SMOOTH",
"679 1351 OFFCURVE",
"781 1303 OFFCURVE",
"799 1179 CURVE SMOOTH",
"820 1038 OFFCURVE",
"793 890 OFFCURVE",
"407 767 CURVE",
"443 647 LINE",
"695 724 OFFCURVE",
"866 639 OFFCURVE",
"901 480 CURVE SMOOTH",
"927 362 OFFCURVE",
"900 279 OFFCURVE",
"758 197 CURVE SMOOTH",
"616 115 OFFCURVE",
"423 95 OFFCURVE",
"145 170 CURVE",
"100 124 LINE",
"193 -56 LINE",
"481 -44 OFFCURVE",
"757 21 OFFCURVE",
"940 133 CURVE SMOOTH",
"1090 226 OFFCURVE",
"1225 372 OFFCURVE",
"1171 577 CURVE SMOOTH",
"1110 809 OFFCURVE",
"858 919 OFFCURVE",
"481 728 CURVE",
"491 698 LINE",
"1071 863 OFFCURVE",
"1079 1094 OFFCURVE",
"1051 1238 CURVE SMOOTH",
"1018 1406 OFFCURVE",
"861 1488 OFFCURVE",
"655 1488 CURVE SMOOTH",
"499 1488 OFFCURVE",
"316 1440 OFFCURVE",
"205 1404 CURVE",
"151 1103 LINE",
"261 1068 LINE"
);
}
);
width = 1302.91182;
}
);
unicode = 0033;
userData = {
com.typemytype.robofont.layerData = {
background = {
anchors = (
);
components = (
);
contours = (
{
points = (
{
segmentType = line;
smooth = 0;
x = 207;
y = 1440;
},
{
segmentType = line;
smooth = 0;
x = 161;
y = 1400;
},
{
segmentType = line;
smooth = 0;
x = 123;
y = 996;
},
{
segmentType = line;
smooth = 0;
x = 231;
y = 978;
},
{
smooth = 0;
x = 301;
y = 1214;
},
{
smooth = 0;
x = 357;
y = 1270;
},
{
segmentType = curve;
smooth = 1;
x = 517;
y = 1270;
},
{
segmentType = line;
smooth = 0;
x = 925;
y = 1270;
},
{
segmentType = line;
smooth = 0;
x = 881;
y = 1332;
},
{
segmentType = line;
smooth = 0;
x = 455;
y = 760;
},
{
segmentType = line;
smooth = 0;
x = 493;
y = 684;
},
{
smooth = 0;
x = 648;
y = 694;
},
{
smooth = 0;
x = 864;
y = 670;
},
{
segmentType = curve;
smooth = 1;
x = 909;
y = 483;
},
{
smooth = 0;
x = 932;
y = 388;
},
{
smooth = 0;
x = 901;
y = 288;
},
{
segmentType = curve;
smooth = 1;
x = 791;
y = 209;
},
{
smooth = 0;
x = 658;
y = 114;
},
{
smooth = 0;
x = 443;
y = 82;
},
{
segmentType = curve;
smooth = 0;
x = 145;
y = 170;
},
{
segmentType = line;
smooth = 0;
x = 100;
y = 124;
},
{
segmentType = line;
smooth = 0;
x = 193;
y = -56;
},
{
smooth = 0;
x = 481;
y = -44;
},
{
smooth = 0;
x = 757;
y = 21;
},
{
segmentType = curve;
smooth = 1;
x = 940;
y = 133;
},
{
smooth = 0;
x = 1089;
y = 225;
},
{
smooth = 0;
x = 1221;
y = 379;
},
{
segmentType = curve;
smooth = 1;
x = 1166;
y = 588;
},
{
smooth = 0;
x = 1096;
y = 854;
},
{
smooth = 0;
x = 761;
y = 862;
},
{
segmentType = curve;
smooth = 0;
x = 531;
y = 778;
},
{
segmentType = line;
smooth = 0;
x = 661;
y = 778;
},
{
segmentType = line;
smooth = 0;
x = 1107;
y = 1322;
},
{
segmentType = line;
smooth = 0;
x = 1087;
y = 1440;
}
);
},
{
points = (
{
segmentType = line;
smooth = 0;
x = 1427;
y = 1440;
},
{
segmentType = line;
smooth = 0;
x = 1381;
y = 1400;
},
{
segmentType = line;
smooth = 0;
x = 1343;
y = 996;
},
{
segmentType = line;
smooth = 0;
x = 1451;
y = 978;
},
{
smooth = 0;
x = 1521;
y = 1214;
},
{
smooth = 0;
x = 1577;
y = 1270;
},
{
segmentType = curve;
smooth = 1;
x = 1737;
y = 1270;
},
{
segmentType = line;
smooth = 0;
x = 2125;
y = 1270;
},
{
segmentType = line;
smooth = 0;
x = 2081;
y = 1332;
},
{
segmentType = line;
smooth = 0;
x = 1655;
y = 760;
},
{
segmentType = line;
smooth = 0;
x = 1693;
y = 684;
},
{
smooth = 0;
x = 1841;
y = 694;
},
{
smooth = 0;
x = 2027;
y = 658;
},
{
segmentType = curve;
smooth = 1;
x = 2089;
y = 426;
},
{
smooth = 0;
x = 2145;
y = 220;
},
{
smooth = 0;
x = 2079;
y = 88;
},
{
segmentType = curve;
smooth = 1;
x = 1821;
y = 88;
},
{
smooth = 0;
x = 1599;
y = 88;
},
{
smooth = 0;
x = 1533;
y = 162;
},
{
segmentType = curve;
smooth = 0;
x = 1439;
y = 490;
},
{
segmentType = line;
smooth = 0;
x = 1329;
y = 478;
},
{
segmentType = line;
smooth = 0;
x = 1363;
y = 104;
},
{
segmentType = line;
smooth = 0;
x = 1391;
y = 66;
},
{
smooth = 0;
x = 1481;
y = 14;
},
{
smooth = 0;
x = 1633;
y = -44;
},
{
segmentType = curve;
smooth = 1;
x = 1831;
y = -44;
},
{
smooth = 0;
x = 1905;
y = -44;
},
{
smooth = 0;
x = 2015;
y = -32;
},
{
segmentType = curve;
smooth = 1;
x = 2113;
y = 22;
},
{
smooth = 0;
x = 2323;
y = 138;
},
{
smooth = 0;
x = 2411;
y = 362;
},
{
segmentType = curve;
smooth = 1;
x = 2331;
y = 578;
},
{
smooth = 0;
x = 2237;
y = 832;
},
{
smooth = 0;
x = 1961;
y = 862;
},
{
segmentType = curve;
smooth = 0;
x = 1731;
y = 778;
},
{
segmentType = line;
smooth = 0;
x = 1861;
y = 778;
},
{
segmentType = line;
smooth = 0;
x = 2307;
y = 1322;
},
{
segmentType = line;
smooth = 0;
x = 2287;
y = 1440;
}
);
}
);
lib = {
};
name = three;
unicodes = (
);
width = 1302.91182;
};
};
};
},
{
glyphname = four;
lastChange = "2018-04-11 19:05:46 +0000";
layers = (
{
layerId = "A06561DA-A1C3-4D4F-A301-2F031DFC9FDA";
paths = (
{
closed = 1;
nodes = (
"732 152 OFFCURVE",
"732 112 OFFCURVE",
"502 96 CURVE",
"498 0 LINE",
"1222 0 LINE",
"1222 0 OFFCURVE",
"1218 96 OFFCURVE",
"1218 96 CURVE",
"986 110 OFFCURVE",
"988 154 OFFCURVE",
"988 338 CURVE SMOOTH",
"988 1460 LINE",
"850 1460 LINE",
"42 490 LINE",
"84 400 LINE",
"1256 400 LINE",
"1274 544 LINE",
"150 544 LINE",
"244 520 LINE",
"796 1200 LINE",
"732 1200 LINE",
"732 342 LINE SMOOTH"
);
}
);
width = 1284;
}
);
unicode = 0034;
userData = {
com.typemytype.robofont.layerData = {
background = {
anchors = (
);
components = (
);
contours = (
{
points = (
{
segmentType = line;
smooth = 0;
x = 986;
y = 0;
},
{
segmentType = line;
smooth = 0;
x = 990;
y = 1460;
},
{
segmentType = line;
smooth = 0;
x = 850;
y = 1460;
},
{
segmentType = line;
smooth = 0;
x = 42;
y = 490;
},
{
segmentType = line;
smooth = 0;
x = 84;
y = 400;
},
{
segmentType = line;
smooth = 0;
x = 1256;
y = 400;
},
{
segmentType = line;
smooth = 0;
x = 1274;
y = 544;
},
{
segmentType = line;
smooth = 0;
x = 150;
y = 544;
},
{
segmentType = line;
smooth = 0;
x = 244;
y = 520;
},
{
segmentType = line;
smooth = 0;
x = 796;
y = 1200;
},
{
segmentType = line;
smooth = 0;
x = 732;
y = 1200;
},
{
segmentType = line;
smooth = 0;
x = 732;
y = 0;
},
{
segmentType = line;
smooth = 0;
x = 786;
y = -40;
}
);
}
);
lib = {
};
name = four;
unicodes = (
);
width = 1284;
};
};
};
},
{
glyphname = five;
lastChange = "2018-04-11 19:05:46 +0000";
layers = (
{
layerId = "A06561DA-A1C3-4D4F-A301-2F031DFC9FDA";
paths = (
{
closed = 1;
nodes = (
"266 688 LINE",
"704 790 OFFCURVE",
"872 670 OFFCURVE",
"908 434 CURVE SMOOTH",
"942 206 OFFCURVE",
"864 88 OFFCURVE",
"620 88 CURVE SMOOTH",
"398 88 OFFCURVE",
"334 166 OFFCURVE",
"240 460 CURVE",
"130 448 LINE",
"162 104 LINE",
"190 66 LINE",
"280 14 OFFCURVE",
"432 -44 OFFCURVE",
"624 -44 CURVE SMOOTH",
"704 -44 OFFCURVE",
"816 -24 OFFCURVE",
"916 22 CURVE SMOOTH",
"1118 116 OFFCURVE",
"1220 334 OFFCURVE",
"1150 586 CURVE SMOOTH",
"1076 854 OFFCURVE",
"782 1010 OFFCURVE",
"306 812 CURVE",
"382 800 LINE",
"480 1392 LINE",
"442 1240 LINE",
"1054 1240 LINE",
"1100 1280 LINE",
"1122 1560 LINE",
"1014 1570 LINE",
"986 1470 OFFCURVE",
"956 1440 OFFCURVE",
"866 1440 CURVE SMOOTH",
"326 1440 LINE",
"214 738 LINE"
);
}
);
width = 1329.22481;
}
);
unicode = 0035;
userData = {
com.typemytype.robofont.layerData = {
background = {
anchors = (
);
components = (
);
contours = (
{
points = (
{
segmentType = line;
smooth = 0;
x = 226;
y = 1440;
},
{
segmentType = line;
smooth = 0;
x = 180;
y = 1400;
},
{
segmentType = line;
smooth = 0;
x = 142;
y = 996;
},
{
segmentType = line;
smooth = 0;
x = 250;
y = 978;
},
{
smooth = 0;
x = 320;
y = 1214;
},
{
smooth = 0;
x = 376;
y = 1270;
},
{
segmentType = curve;
smooth = 1;
x = 536;
y = 1270;
},
{
segmentType = line;
smooth = 0;
x = 924;
y = 1270;
},
{
segmentType = line;
smooth = 0;
x = 880;
y = 1332;
},
{
segmentType = line;
smooth = 0;
x = 454;
y = 760;
},
{
segmentType = line;
smooth = 0;
x = 492;
y = 684;
},
{
smooth = 0;
x = 640;
y = 694;
},
{
smooth = 0;
x = 826;
y = 658;
},
{
segmentType = curve;
smooth = 1;
x = 888;
y = 426;
},
{
smooth = 0;
x = 944;
y = 220;
},
{
smooth = 0;
x = 878;
y = 88;
},
{
segmentType = curve;
smooth = 1;
x = 620;
y = 88;
},
{
smooth = 0;
x = 398;
y = 88;
},
{
smooth = 0;
x = 332;
y = 162;
},
{
segmentType = curve;
smooth = 0;
x = 238;
y = 490;
},
{
segmentType = line;
smooth = 0;
x = 128;
y = 478;
},
{
segmentType = line;
smooth = 0;
x = 162;
y = 104;
},
{
segmentType = line;
smooth = 0;
x = 190;
y = 66;
},
{
smooth = 0;
x = 280;
y = 14;
},
{
smooth = 0;
x = 432;
y = -44;
},
{
segmentType = curve;
smooth = 1;
x = 630;
y = -44;
},
{
smooth = 0;
x = 704;
y = -44;
},
{
smooth = 0;
x = 814;
y = -32;
},
{
segmentType = curve;
smooth = 1;
x = 912;
y = 22;
},
{
smooth = 0;
x = 1122;
y = 138;
},
{
smooth = 0;
x = 1210;
y = 362;
},
{
segmentType = curve;
smooth = 1;
x = 1130;
y = 578;
},
{
smooth = 0;
x = 1036;
y = 832;
},
{
smooth = 0;
x = 760;
y = 862;
},
{
segmentType = curve;
smooth = 0;
x = 530;
y = 778;
},
{
segmentType = line;
smooth = 0;
x = 660;
y = 778;
},
{
segmentType = line;
smooth = 0;
x = 1106;
y = 1322;
},
{
segmentType = line;
smooth = 0;
x = 1086;
y = 1440;
}
);
}
);
lib = {
};
name = five;
unicodes = (
);
width = 1329.22481;
};
};
};
},
{
glyphname = six;
lastChange = "2018-04-11 19:05:46 +0000";
layers = (
{
layerId = "A06561DA-A1C3-4D4F-A301-2F031DFC9FDA";
paths = (
{
closed = 1;
nodes = (
"474 864 OFFCURVE",
"636 924 OFFCURVE",
"772 924 CURVE SMOOTH",
"964 924 OFFCURVE",
"1138 822 OFFCURVE",
"1218 656 CURVE SMOOTH",
"1376 328 OFFCURVE",
"1150 -48 OFFCURVE",
"754 -48 CURVE SMOOTH",
"474 -48 OFFCURVE",
"252 114 OFFCURVE",
"166 390 CURVE SMOOTH",
"72 690 OFFCURVE",
"146 1090 OFFCURVE",
"406 1300 CURVE SMOOTH",
"528 1398 OFFCURVE",
"674 1460 OFFCURVE",
"872 1460 CURVE SMOOTH",
"994 1460 OFFCURVE",
"1122 1414 OFFCURVE",
"1218 1330 CURVE",
"1148 1232 LINE",
"1058 1284 OFFCURVE",
"974 1306 OFFCURVE",
"862 1306 CURVE SMOOTH",
"754 1306 OFFCURVE",
"670 1274 OFFCURVE",
"594 1220 CURVE SMOOTH",
"358 1054 OFFCURVE",
"350 638 OFFCURVE",
"484 352 CURVE SMOOTH",
"562 186 OFFCURVE",
"662 80 OFFCURVE",
"806 80 CURVE SMOOTH",
"938 80 OFFCURVE",
"1028 170 OFFCURVE",
"1028 314 CURVE SMOOTH",
"1028 492 OFFCURVE",
"884 770 OFFCURVE",
"660 770 CURVE SMOOTH",
"564 770 OFFCURVE",
"474 736 OFFCURVE",
"396 676 CURVE",
"340 752 LINE"
);
}
);
width = 1428;
}
);
unicode = 0036;
userData = {
com.typemytype.robofont.layerData = {
background = {
anchors = (
);
components = (
);
contours = (
{
points = (
{
segmentType = line;
smooth = 0;
x = 340;
y = 752;
},
{
smooth = 0;
x = 474;
y = 864;
},
{
smooth = 0;
x = 636;
y = 924;
},
{
segmentType = curve;
smooth = 1;
x = 772;
y = 924;
},
{
smooth = 0;
x = 964;
y = 924;
},
{
smooth = 0;
x = 1138;
y = 822;
},
{
segmentType = curve;
smooth = 1;
x = 1218;
y = 656;
},
{
smooth = 0;
x = 1376;
y = 328;
},
{
smooth = 0;
x = 1150;
y = -48;
},
{
segmentType = curve;
smooth = 1;
x = 754;
y = -48;
},
{
smooth = 0;
x = 474;
y = -48;
},
{
smooth = 0;
x = 252;
y = 114;
},
{
segmentType = curve;
smooth = 1;
x = 166;
y = 390;
},
{
smooth = 0;
x = 72;
y = 690;
},
{
smooth = 0;
x = 140;
y = 1076;
},
{
segmentType = curve;
smooth = 1;
x = 474;
y = 1318;
},
{
smooth = 0;
x = 646;
y = 1442;
},
{
smooth = 0;
x = 884;
y = 1490;
},
{
segmentType = curve;
smooth = 0;
x = 1092;
y = 1498;
},
{
segmentType = line;
smooth = 0;
x = 1202;
y = 1316;
},
{
segmentType = line;
smooth = 0;
x = 1162;
y = 1266;
},
{
smooth = 0;
x = 970;
y = 1338;
},
{
smooth = 0;
x = 728;
y = 1308;
},
{
segmentType = curve;
smooth = 1;
x = 616;
y = 1236;
},
{
smooth = 0;
x = 352;
y = 1068;
},
{
smooth = 0;
x = 350;
y = 638;
},
{
segmentType = curve;
smooth = 1;
x = 484;
y = 352;
},
{
smooth = 0;
x = 562;
y = 186;
},
{
smooth = 0;
x = 662;
y = 80;
},
{
segmentType = curve;
smooth = 1;
x = 806;
y = 80;
},
{
smooth = 0;
x = 938;
y = 80;
},
{
smooth = 0;
x = 1028;
y = 170;
},
{
segmentType = curve;
smooth = 1;
x = 1028;
y = 314;
},
{
smooth = 0;
x = 1028;
y = 492;
},
{
smooth = 0;
x = 884;
y = 770;
},
{
segmentType = curve;
smooth = 1;
x = 660;
y = 770;
},
{
smooth = 0;
x = 564;
y = 770;
},
{
smooth = 0;
x = 474;
y = 736;
},
{
segmentType = curve;
smooth = 0;
x = 396;
y = 676;
}
);
}
);
lib = {
};
name = nine;
unicodes = (
);
width = 1428;
};
};
};
},
{
glyphname = seven;
lastChange = "2018-04-11 19:05:46 +0000";
layers = (
{
layerId = "A06561DA-A1C3-4D4F-A301-2F031DFC9FDA";
paths = (
{
closed = 1;
nodes = (
"1118 1322 LINE",
"1074 1440 LINE",
"138 1440 LINE",
"92 1400 LINE",
"54 996 LINE",
"162 978 LINE",
"232 1214 OFFCURVE",
"288 1270 OFFCURVE",
"448 1270 CURVE SMOOTH",
"936 1270 LINE",
"878 1332 LINE",
"290 -16 LINE",
"332 -66 LINE",
"554 0 LINE"
);
}
);
width = 1160;
}
);
unicode = 0037;
userData = {
com.typemytype.robofont.layerData = {
background = {
anchors = (
);
components = (
);
contours = (
);
lib = {
};
name = seven;
unicodes = (
);
width = 1160;
};
};
};
},
{
glyphname = eight;
lastChange = "2018-04-11 19:05:46 +0000";
layers = (
{
layerId = "A06561DA-A1C3-4D4F-A301-2F031DFC9FDA";
paths = (
{
closed = 1;
nodes = (
"977.934 891.385 OFFCURVE",
"956 1063 OFFCURVE",
"910 1172 CURVE SMOOTH",
"851 1313 OFFCURVE",
"739 1360 OFFCURVE",
"643 1360 CURVE SMOOTH",
"518 1360 OFFCURVE",
"424 1291 OFFCURVE",
"424 1183 CURVE SMOOTH",
"424 1134 OFFCURVE",
"438 1090 OFFCURVE",
"490 1038 CURVE SMOOTH",
"550 978 OFFCURVE",
"646.36 918.531 OFFCURVE",
"749 859 CURVE SMOOTH",
"900.414 771.607 OFFCURVE",
"1041 714 OFFCURVE",
"1140 624 CURVE SMOOTH",
"1230 543 OFFCURVE",
"1274 434 OFFCURVE",
"1274 342 CURVE SMOOTH",
"1274 94 OFFCURVE",
"1008.195 -52 OFFCURVE",
"685 -52 CURVE SMOOTH",
"467.893 -52 OFFCURVE",
"224 10 OFFCURVE",
"149 209 CURVE SMOOTH",
"74 407 OFFCURVE",
"159.583 629.318 OFFCURVE",
"591 812 CURVE",
"653 709 LINE",
"340.136 585.586 OFFCURVE",
"323 442 OFFCURVE",
"368 313 CURVE SMOOTH",
"424 152 OFFCURVE",
"622 96 OFFCURVE",
"766 96 CURVE SMOOTH",
"942 96 OFFCURVE",
"1065 166 OFFCURVE",
"1065 276 CURVE SMOOTH",
"1065 332 OFFCURVE",
"1031.606 378.945 OFFCURVE",
"965 439 CURVE SMOOTH",
"889.495 507.458 OFFCURVE",
"758 566 OFFCURVE",
"629 641 CURVE SMOOTH",
"392 778 OFFCURVE",
"224 892.376 OFFCURVE",
"224 1120 CURVE SMOOTH",
"224 1298 OFFCURVE",
"373 1492 OFFCURVE",
"698 1492 CURVE SMOOTH",
"893 1492 OFFCURVE",
"1107 1426 OFFCURVE",
"1165 1203 CURVE SMOOTH",
"1211 1027 OFFCURVE",
"1154 857 OFFCURVE",
"843 719 CURVE",
"778 808 LINE"
);
}
);
width = 1404;
}
);
unicode = 0038;
userData = {
com.typemytype.robofont.guides = (
{
angle = 90;
isGlobal = 0;
magnetic = 5;
x = 131;
y = 397;
},
{
angle = 90;
isGlobal = 0;
magnetic = 5;
x = 234;
y = 479;
},
{
angle = 90;
isGlobal = 0;
magnetic = 5;
x = 1280;
y = 449;
},
{
angle = 90;
isGlobal = 0;
magnetic = 5;
x = 1189;
y = 490;
}
);
com.typemytype.robofont.layerData = {
background = {
anchors = (
);
components = (
);
contours = (
{
points = (
{
segmentType = line;
smooth = 0;
x = 778;
y = 808;
},
{
smooth = 0;
x = 1018;
y = 916;
},
{
smooth = 0;
x = 980;
y = 1076;
},
{
segmentType = curve;
smooth = 1;
x = 916;
y = 1184;
},
{
smooth = 0;
x = 845;
y = 1306;
},
{
smooth = 0;
x = 742;
y = 1362;
},
{
segmentType = curve;
smooth = 1;
x = 642;
y = 1362;
},
{
smooth = 0;
x = 524;
y = 1362;
},
{
smooth = 0;
x = 434;
y = 1303;
},
{
segmentType = curve;
smooth = 1;
x = 434;
y = 1202;
},
{
smooth = 0;
x = 434;
y = 1144;
},
{
smooth = 0;
x = 468;
y = 1088;
},
{
segmentType = curve;
smooth = 1;
x = 514;
y = 1036;
},
{
smooth = 0;
x = 566;
y = 976;
},
{
smooth = 0;
x = 660;
y = 920;
},
{
segmentType = curve;
smooth = 1;
x = 756;
y = 864;
},
{
smooth = 0;
x = 892;
y = 786;
},
{
smooth = 0;
x = 1010;
y = 720;
},
{
segmentType = curve;
smooth = 1;
x = 1100;
y = 638;
},
{
smooth = 0;
x = 1194;
y = 552;
},
{
smooth = 0;
x = 1230;
y = 468;
},
{
segmentType = curve;
smooth = 1;
x = 1230;
y = 366;
},
{
smooth = 0;
x = 1230;
y = 106;
},
{
smooth = 0;
x = 959;
y = -52;
},
{
segmentType = curve;
smooth = 1;
x = 680;
y = -52;
},
{
smooth = 0;
x = 490;
y = -52;
},
{
smooth = 0;
x = 308;
y = 34;
},
{
segmentType = curve;
smooth = 1;
x = 208;
y = 206;
},
{
smooth = 0;
x = 92;
y = 408;
},
{
smooth = 0;
x = 190;
y = 642;
},
{
segmentType = curve;
smooth = 0;
x = 586;
y = 820;
},
{
segmentType = line;
smooth = 0;
x = 648;
y = 720;
},
{
smooth = 0;
x = 368;
y = 566;
},
{
smooth = 0;
x = 370;
y = 446;
},
{
segmentType = curve;
smooth = 1;
x = 434;
y = 316;
},
{
smooth = 0;
x = 509;
y = 168;
},
{
smooth = 0;
x = 646;
y = 94;
},
{
segmentType = curve;
smooth = 1;
x = 778;
y = 94;
},
{
smooth = 0;
x = 887;
y = 94;
},
{
smooth = 0;
x = 1014;
y = 168;
},
{
segmentType = curve;
smooth = 1;
x = 1014;
y = 284;
},
{
smooth = 0;
x = 1014;
y = 338;
},
{
smooth = 0;
x = 989;
y = 391;
},
{
segmentType = curve;
smooth = 1;
x = 928;
y = 442;
},
{
smooth = 0;
x = 856;
y = 502;
},
{
smooth = 0;
x = 744;
y = 568;
},
{
segmentType = curve;
smooth = 1;
x = 626;
y = 636;
},
{
smooth = 0;
x = 394;
y = 770;
},
{
smooth = 0;
x = 234;
y = 890;
},
{
segmentType = curve;
smooth = 1;
x = 234;
y = 1120;
},
{
smooth = 0;
x = 234;
y = 1312;
},
{
smooth = 0;
x = 380;
y = 1492;
},
{
segmentType = curve;
smooth = 1;
x = 706;
y = 1492;
},
{
smooth = 0;
x = 880;
y = 1492;
},
{
smooth = 0;
x = 1065;
y = 1428;
},
{
segmentType = curve;
smooth = 1;
x = 1148;
y = 1278;
},
{
smooth = 0;
x = 1230;
y = 1132;
},
{
smooth = 0;
x = 1258;
y = 886;
},
{
segmentType = curve;
smooth = 0;
x = 856;
y = 704;
}
);
}
);
lib = {
};
name = eight;
unicodes = (
);
width = 1404;
};
};
};
},
{
glyphname = nine;
lastChange = "2018-04-11 19:05:46 +0000";
layers = (
{
layerId = "A06561DA-A1C3-4D4F-A301-2F031DFC9FDA";
paths = (
{
closed = 1;
nodes = (
"922 576 OFFCURVE",
"760 516 OFFCURVE",
"624 516 CURVE SMOOTH",
"432 516 OFFCURVE",
"258 618 OFFCURVE",
"178 784 CURVE SMOOTH",
"20 1112 OFFCURVE",
"246 1488 OFFCURVE",
"642 1488 CURVE SMOOTH",
"922 1488 OFFCURVE",
"1144 1326 OFFCURVE",
"1230 1050 CURVE SMOOTH",
"1324 750 OFFCURVE",
"1256 364 OFFCURVE",
"922 122 CURVE SMOOTH",
"750 -2 OFFCURVE",
"512 -50 OFFCURVE",
"304 -58 CURVE",
"194 124 LINE",
"234 174 LINE",
"426 102 OFFCURVE",
"668 132 OFFCURVE",
"780 204 CURVE SMOOTH",
"1044 372 OFFCURVE",
"1046 802 OFFCURVE",
"912 1088 CURVE SMOOTH",
"834 1254 OFFCURVE",
"734 1360 OFFCURVE",
"590 1360 CURVE SMOOTH",
"458 1360 OFFCURVE",
"368 1270 OFFCURVE",
"368 1126 CURVE SMOOTH",
"368 948 OFFCURVE",
"512 670 OFFCURVE",
"736 670 CURVE SMOOTH",
"832 670 OFFCURVE",
"922 704 OFFCURVE",
"1000 764 CURVE",
"1056 688 LINE"
);
}
);
width = 1428;
}
);
unicode = 0039;
userData = {
com.typemytype.robofont.layerData = {
background = {
anchors = (
);
components = (
);
contours = (
{
points = (
{
segmentType = line;
smooth = 0;
x = 1082;
y = 700;
},
{
smooth = 0;
x = 936;
y = 544;
},
{
smooth = 0;
x = 768;
y = 522;
},
{
segmentType = curve;
smooth = 1;
x = 628;
y = 528;
},
{
smooth = 0;
x = 428;
y = 536;
},
{
smooth = 0;
x = 278;
y = 638;
},
{
segmentType = curve;
smooth = 1;
x = 200;
y = 800;
},
{
smooth = 0;
x = 86;
y = 1036;
},
{
smooth = 0;
x = 166;
y = 1312;
},
{
segmentType = curve;
smooth = 1;
x = 390;
y = 1434;
},
{
smooth = 0;
x = 540;
y = 1516;
},
{
smooth = 0;
x = 762;
y = 1514;
},
{
segmentType = curve;
smooth = 1;
x = 920;
y = 1420;
},
{
smooth = 0;
x = 1044;
y = 1348;
},
{
smooth = 0;
x = 1167;
y = 1228;
},
{
segmentType = curve;
smooth = 1;
x = 1228;
y = 1030;
},
{
smooth = 0;
x = 1326;
y = 714;
},
{
smooth = 0;
x = 1226;
y = 320;
},
{
segmentType = curve;
smooth = 1;
x = 952;
y = 122;
},
{
smooth = 0;
x = 781;
y = -2;
},
{
smooth = 0;
x = 542;
y = -50;
},
{
segmentType = curve;
smooth = 0;
x = 334;
y = -58;
},
{
segmentType = line;
smooth = 0;
x = 248;
y = 98;
},
{
segmentType = line;
smooth = 0;
x = 278;
y = 140;
},
{
smooth = 0;
x = 492;
y = 112;
},
{
smooth = 0;
x = 697;
y = 132;
},
{
segmentType = curve;
smooth = 1;
x = 810;
y = 204;
},
{
smooth = 0;
x = 1074;
y = 372;
},
{
smooth = 0;
x = 1044;
y = 782;
},
{
segmentType = curve;
smooth = 1;
x = 910;
y = 1068;
},
{
smooth = 0;
x = 866;
y = 1162;
},
{
smooth = 0;
x = 818;
y = 1230;
},
{
segmentType = curve;
smooth = 1;
x = 766;
y = 1280;
},
{
smooth = 0;
x = 676;
y = 1366;
},
{
smooth = 0;
x = 546;
y = 1378;
},
{
segmentType = curve;
smooth = 1;
x = 472;
y = 1334;
},
{
smooth = 0;
x = 374;
y = 1276;
},
{
smooth = 0;
x = 372;
y = 1143;
},
{
segmentType = curve;
smooth = 1;
x = 422;
y = 992;
},
{
smooth = 0;
x = 464;
y = 872;
},
{
smooth = 0;
x = 534;
y = 724;
},
{
segmentType = curve;
smooth = 1;
x = 690;
y = 682;
},
{
smooth = 0;
x = 778;
y = 660;
},
{
smooth = 0;
x = 906;
y = 680;
},
{
segmentType = curve;
smooth = 0;
x = 1030;
y = 764;
}
);
}
);
lib = {
};
name = nine;
unicodes = (
);
width = 1428;
};
};
};
},
{
glyphname = hyphen;
lastChange = "2018-04-11 19:05:46 +0000";
layers = (
{
layerId = "A06561DA-A1C3-4D4F-A301-2F031DFC9FDA";
paths = (
{
closed = 1;
nodes = (
"472 640 LINE",
"918 640 LINE",
"922 798 LINE",
"904 810 LINE",
"626 800 LINE",
"202 800 LINE",
"198 636 LINE",
"220 628 LINE"
);
}
);
width = 1120;
}
);
unicode = 002D;
userData = {
com.typemytype.robofont.layerData = {
background = {
anchors = (
);
components = (
);
contours = (
{
points = (
{
segmentType = line;
smooth = 0;
x = 614;
y = 802;
},
{
segmentType = line;
smooth = 0;
x = 614;
y = 674;
},
{
segmentType = line;
smooth = 0;
x = 1710;
y = 674;
},
{
segmentType = line;
smooth = 0;
x = 1710;
y = 802;
}
);
},
{
points = (
{
segmentType = curve;
smooth = 0;
x = 1588;
y = 1102;
},
{
segmentType = line;
smooth = 1;
x = 1588;
y = 342;
},
{
smooth = 0;
x = 1588;
y = 152;
},
{
smooth = 0;
x = 1588;
y = 112;
},
{
segmentType = curve;
smooth = 0;
x = 1358;
y = 96;
},
{
segmentType = line;
smooth = 0;
x = 1354;
y = 0;
},
{
segmentType = line;
smooth = 0;
x = 2078;
y = 0;
},
{
smooth = 0;
x = 2078;
y = 0;
},
{
smooth = 0;
x = 2074;
y = 96;
},
{
segmentType = curve;
smooth = 0;
x = 2074;
y = 96;
},
{
smooth = 0;
x = 1842;
y = 110;
},
{
smooth = 0;
x = 1844;
y = 154;
},
{
segmentType = curve;
smooth = 1;
x = 1844;
y = 338;
},
{
segmentType = line;
smooth = 0;
x = 1844;
y = 1098;
},
{
smooth = 0;
x = 1844;
y = 1288;
},
{
smooth = 0;
x = 1844;
y = 1330;
},
{
segmentType = curve;
smooth = 0;
x = 2074;
y = 1344;
},
{
segmentType = line;
smooth = 0;
x = 2078;
y = 1440;
},
{
segmentType = line;
smooth = 0;
x = 1354;
y = 1440;
},
{
smooth = 0;
x = 1354;
y = 1440;
},
{
smooth = 0;
x = 1358;
y = 1344;
},
{
segmentType = curve;
smooth = 0;
x = 1358;
y = 1344;
},
{
smooth = 0;
x = 1590;
y = 1330;
},
{
smooth = 0;
x = 1588;
y = 1286;
}
);
},
{
points = (
{
segmentType = curve;
smooth = 0;
x = 454;
y = 1102;
},
{
segmentType = line;
smooth = 1;
x = 454;
y = 342;
},
{
smooth = 0;
x = 454;
y = 152;
},
{
smooth = 0;
x = 454;
y = 112;
},
{
segmentType = curve;
smooth = 0;
x = 224;
y = 96;
},
{
segmentType = line;
smooth = 0;
x = 220;
y = 0;
},
{
segmentType = line;
smooth = 0;
x = 944;
y = 0;
},
{
smooth = 0;
x = 944;
y = 0;
},
{
smooth = 0;
x = 940;
y = 96;
},
{
segmentType = curve;
smooth = 0;
x = 940;
y = 96;
},
{
smooth = 0;
x = 708;
y = 110;
},
{
smooth = 0;
x = 710;
y = 154;
},
{
segmentType = curve;
smooth = 1;
x = 710;
y = 338;
},
{
segmentType = line;
smooth = 0;
x = 710;
y = 1098;
},
{
smooth = 0;
x = 710;
y = 1288;
},
{
smooth = 0;
x = 710;
y = 1330;
},
{
segmentType = curve;
smooth = 0;
x = 940;
y = 1344;
},
{
segmentType = line;
smooth = 0;
x = 944;
y = 1440;
},
{
segmentType = line;
smooth = 0;
x = 220;
y = 1440;
},
{
smooth = 0;
x = 220;
y = 1440;
},
{
smooth = 0;
x = 224;
y = 1344;
},
{
segmentType = curve;
smooth = 0;
x = 224;
y = 1344;
},
{
smooth = 0;
x = 456;
y = 1330;
},
{
smooth = 0;
x = 454;
y = 1286;
}
);
}
);
lib = {
};
name = hyphen;
unicodes = (
);
width = 1120;
};
};
};
},
{
glyphname = endash;
lastChange = "2018-04-11 19:05:46 +0000";
layers = (
{
layerId = "A06561DA-A1C3-4D4F-A301-2F031DFC9FDA";
paths = (
{
closed = 1;
nodes = (
"472 640 LINE",
"1798 640 LINE",
"1802 798 LINE",
"1784 810 LINE",
"1498 800 LINE",
"202 800 LINE",
"198 642 LINE",
"220 628 LINE"
);
}
);
width = 2000;
}
);
unicode = 2013;
userData = {
com.typemytype.robofont.guides = (
{
angle = 0;
isGlobal = 0;
magnetic = 5;
x = 101;
y = 400;
},
{
angle = 0;
isGlobal = 0;
magnetic = 5;
x = 250;
y = 320;
}
);
com.typemytype.robofont.layerData = {
background = {
anchors = (
);
components = (
);
contours = (
{
points = (
{
segmentType = line;
smooth = 0;
x = 614;
y = 802;
},
{
segmentType = line;
smooth = 0;
x = 614;
y = 674;
},
{
segmentType = line;
smooth = 0;
x = 1710;
y = 674;
},
{
segmentType = line;
smooth = 0;
x = 1710;
y = 802;
}
);
},
{
points = (
{
segmentType = curve;
smooth = 0;
x = 1588;
y = 1102;
},
{
segmentType = line;
smooth = 1;
x = 1588;
y = 342;
},
{
smooth = 0;
x = 1588;
y = 152;
},
{
smooth = 0;
x = 1588;
y = 112;
},
{
segmentType = curve;
smooth = 0;
x = 1358;
y = 96;
},
{
segmentType = line;
smooth = 0;
x = 1354;
y = 0;
},
{
segmentType = line;
smooth = 0;
x = 2078;
y = 0;
},
{
smooth = 0;
x = 2078;
y = 0;
},
{
smooth = 0;
x = 2074;
y = 96;
},
{
segmentType = curve;
smooth = 0;
x = 2074;
y = 96;
},
{
smooth = 0;
x = 1842;
y = 110;
},
{
smooth = 0;
x = 1844;
y = 154;
},
{
segmentType = curve;
smooth = 1;
x = 1844;
y = 338;
},
{
segmentType = line;
smooth = 0;
x = 1844;
y = 1098;
},
{
smooth = 0;
x = 1844;
y = 1288;
},
{
smooth = 0;
x = 1844;
y = 1330;
},
{
segmentType = curve;
smooth = 0;
x = 2074;
y = 1344;
},
{
segmentType = line;
smooth = 0;
x = 2078;
y = 1440;
},
{
segmentType = line;
smooth = 0;
x = 1354;
y = 1440;
},
{
smooth = 0;
x = 1354;
y = 1440;
},
{
smooth = 0;
x = 1358;
y = 1344;
},
{
segmentType = curve;
smooth = 0;
x = 1358;
y = 1344;
},
{
smooth = 0;
x = 1590;
y = 1330;
},
{
smooth = 0;
x = 1588;
y = 1286;
}
);
},
{
points = (
{
segmentType = curve;
smooth = 0;
x = 454;
y = 1102;
},
{
segmentType = line;
smooth = 1;
x = 454;
y = 342;
},
{
smooth = 0;
x = 454;
y = 152;
},
{
smooth = 0;
x = 454;
y = 112;
},
{
segmentType = curve;
smooth = 0;
x = 224;
y = 96;
},
{
segmentType = line;
smooth = 0;
x = 220;
y = 0;
},
{
segmentType = line;
smooth = 0;
x = 944;
y = 0;
},
{
smooth = 0;
x = 944;
y = 0;
},
{
smooth = 0;
x = 940;
y = 96;
},
{
segmentType = curve;
smooth = 0;
x = 940;
y = 96;
},
{
smooth = 0;
x = 708;
y = 110;
},
{
smooth = 0;
x = 710;
y = 154;
},
{
segmentType = curve;
smooth = 1;
x = 710;
y = 338;
},
{
segmentType = line;
smooth = 0;
x = 710;
y = 1098;
},
{
smooth = 0;
x = 710;
y = 1288;
},
{
smooth = 0;
x = 710;
y = 1330;
},
{
segmentType = curve;
smooth = 0;
x = 940;
y = 1344;
},
{
segmentType = line;
smooth = 0;
x = 944;
y = 1440;
},
{
segmentType = line;
smooth = 0;
x = 220;
y = 1440;
},
{
smooth = 0;
x = 220;
y = 1440;
},
{
smooth = 0;
x = 224;
y = 1344;
},
{
segmentType = curve;
smooth = 0;
x = 224;
y = 1344;
},
{
smooth = 0;
x = 456;
y = 1330;
},
{
smooth = 0;
x = 454;
y = 1286;
}
);
}
);
lib = {
};
name = hyphen;
unicodes = (
);
width = 2000;
};
};
};
},
{
glyphname = emdash;
lastChange = "2018-04-11 19:05:46 +0000";
layers = (
{
layerId = "A06561DA-A1C3-4D4F-A301-2F031DFC9FDA";
paths = (
{
closed = 1;
nodes = (
"472 640 LINE",
"1798 640 LINE",
"1802 798 LINE",
"1784 810 LINE",
"1498 800 LINE",
"202 800 LINE",
"198 642 LINE",
"220 628 LINE"
);
}
);
width = 2000;
}
);
unicode = 2014;
userData = {
com.typemytype.robofont.guides = (
{
angle = 0;
isGlobal = 0;
magnetic = 5;
x = 101;
y = 400;
},
{
angle = 0;
isGlobal = 0;
magnetic = 5;
x = 250;
y = 320;
}
);
com.typemytype.robofont.layerData = {
background = {
anchors = (
);
components = (
);
contours = (
{
points = (
{
segmentType = line;
smooth = 0;
x = 614;
y = 802;
},
{
segmentType = line;
smooth = 0;
x = 614;
y = 674;
},
{
segmentType = line;
smooth = 0;
x = 1710;
y = 674;
},
{
segmentType = line;
smooth = 0;
x = 1710;
y = 802;
}
);
},
{
points = (
{
segmentType = curve;
smooth = 0;
x = 1588;
y = 1102;
},
{
segmentType = line;
smooth = 1;
x = 1588;
y = 342;
},
{
smooth = 0;
x = 1588;
y = 152;
},
{
smooth = 0;
x = 1588;
y = 112;
},
{
segmentType = curve;
smooth = 0;
x = 1358;
y = 96;
},
{
segmentType = line;
smooth = 0;
x = 1354;
y = 0;
},
{
segmentType = line;
smooth = 0;
x = 2078;
y = 0;
},
{
smooth = 0;
x = 2078;
y = 0;
},
{
smooth = 0;
x = 2074;
y = 96;
},
{
segmentType = curve;
smooth = 0;
x = 2074;
y = 96;
},
{
smooth = 0;
x = 1842;
y = 110;
},
{
smooth = 0;
x = 1844;
y = 154;
},
{
segmentType = curve;
smooth = 1;
x = 1844;
y = 338;
},
{
segmentType = line;
smooth = 0;
x = 1844;
y = 1098;
},
{
smooth = 0;
x = 1844;
y = 1288;
},
{
smooth = 0;
x = 1844;
y = 1330;
},
{
segmentType = curve;
smooth = 0;
x = 2074;
y = 1344;
},
{
segmentType = line;
smooth = 0;
x = 2078;
y = 1440;
},
{
segmentType = line;
smooth = 0;
x = 1354;
y = 1440;
},
{
smooth = 0;
x = 1354;
y = 1440;
},
{
smooth = 0;
x = 1358;
y = 1344;
},
{
segmentType = curve;
smooth = 0;
x = 1358;
y = 1344;
},
{
smooth = 0;
x = 1590;
y = 1330;
},
{
smooth = 0;
x = 1588;
y = 1286;
}
);
},
{
points = (
{
segmentType = curve;
smooth = 0;
x = 454;
y = 1102;
},
{
segmentType = line;
smooth = 1;
x = 454;
y = 342;
},
{
smooth = 0;
x = 454;
y = 152;
},
{
smooth = 0;
x = 454;
y = 112;
},
{
segmentType = curve;
smooth = 0;
x = 224;
y = 96;
},
{
segmentType = line;
smooth = 0;
x = 220;
y = 0;
},
{
segmentType = line;
smooth = 0;
x = 944;
y = 0;
},
{
smooth = 0;
x = 944;
y = 0;
},
{
smooth = 0;
x = 940;
y = 96;
},
{
segmentType = curve;
smooth = 0;
x = 940;
y = 96;
},
{
smooth = 0;
x = 708;
y = 110;
},
{
smooth = 0;
x = 710;
y = 154;
},
{
segmentType = curve;
smooth = 1;
x = 710;
y = 338;
},
{
segmentType = line;
smooth = 0;
x = 710;
y = 1098;
},
{
smooth = 0;
x = 710;
y = 1288;
},
{
smooth = 0;
x = 710;
y = 1330;
},
{
segmentType = curve;
smooth = 0;
x = 940;
y = 1344;
},
{
segmentType = line;
smooth = 0;
x = 944;
y = 1440;
},
{
segmentType = line;
smooth = 0;
x = 220;
y = 1440;
},
{
smooth = 0;
x = 220;
y = 1440;
},
{
smooth = 0;
x = 224;
y = 1344;
},
{
segmentType = curve;
smooth = 0;
x = 224;
y = 1344;
},
{
smooth = 0;
x = 456;
y = 1330;
},
{
smooth = 0;
x = 454;
y = 1286;
}
);
}
);
lib = {
};
name = hyphen;
unicodes = (
);
width = 2000;
};
};
};
},
{
glyphname = period;
lastChange = "2018-04-11 19:05:46 +0000";
layers = (
{
layerId = "A06561DA-A1C3-4D4F-A301-2F031DFC9FDA";
paths = (
{
closed = 1;
nodes = (
"575 -40 OFFCURVE",
"647 28 OFFCURVE",
"647 122 CURVE SMOOTH",
"647 214 OFFCURVE",
"575 288 OFFCURVE",
"481 288 CURVE SMOOTH",
"383 288 OFFCURVE",
"313 214 OFFCURVE",
"313 122 CURVE SMOOTH",
"313 30 OFFCURVE",
"385 -40 OFFCURVE",
"481 -40 CURVE SMOOTH"
);
}
);
width = 960;
}
);
unicode = 002E;
userData = {
com.typemytype.robofont.layerData = {
background = {
anchors = (
);
components = (
);
contours = (
);
lib = {
};
name = period;
unicodes = (
);
width = 960;
};
};
};
},
{
glyphname = N.001;
lastChange = "2018-04-11 19:05:46 +0000";
layers = (
{
layerId = "A06561DA-A1C3-4D4F-A301-2F031DFC9FDA";
paths = (
{
closed = 1;
nodes = (
"380 342 LINE SMOOTH",
"380 152 OFFCURVE",
"380 110 OFFCURVE",
"164 96 CURVE",
"160 0 LINE",
"160 0 OFFCURVE",
"766 0 OFFCURVE",
"766 0 CURVE",
"766 0 OFFCURVE",
"762 96 OFFCURVE",
"762 96 CURVE",
"530 110 OFFCURVE",
"532 154 OFFCURVE",
"532 338 CURVE SMOOTH",
"532 1440 LINE",
"380 1440 LINE"
);
},
{
closed = 1;
nodes = (
"1690 1296 OFFCURVE",
"1692 1334 OFFCURVE",
"1904 1342 CURVE",
"1908 1440 LINE",
"1308 1440 LINE",
"1308 1440 OFFCURVE",
"1312 1342 OFFCURVE",
"1312 1342 CURVE",
"1538 1334 OFFCURVE",
"1538 1294 OFFCURVE",
"1538 1130 CURVE SMOOTH",
"1538 186 LINE",
"1586 186 LINE",
"1570 288 OFFCURVE",
"1524 358 OFFCURVE",
"1458 438 CURVE SMOOTH",
"686 1354 LINE SMOOTH",
"622 1428 OFFCURVE",
"540 1468 OFFCURVE",
"424 1468 CURVE SMOOTH",
"318 1468 OFFCURVE",
"228 1434 OFFCURVE",
"154 1394 CURVE",
"178 1308 LINE",
"320 1334 OFFCURVE",
"382 1316 OFFCURVE",
"462 1222 CURVE SMOOTH",
"1250 288 LINE SMOOTH",
"1356 162 OFFCURVE",
"1442 64 OFFCURVE",
"1516 -50 CURVE",
"1690 -32 LINE",
"1690 1130 LINE SMOOTH"
);
}
);
width = 2070;
}
);
userData = {
com.typemytype.robofont.layerData = {
background = {
anchors = (
);
components = (
);
contours = (
{
points = (
{
smooth = 0;
x = 1264;
y = 678;
},
{
smooth = 0;
x = 1322;
y = 622;
},
{
segmentType = curve;
smooth = 1;
x = 1322;
y = 550;
},
{
smooth = 0;
x = 1322;
y = 480;
},
{
smooth = 0;
x = 1264;
y = 424;
},
{
segmentType = curve;
smooth = 1;
x = 1194;
y = 424;
},
{
smooth = 0;
x = 1124;
y = 424;
},
{
smooth = 0;
x = 1066;
y = 480;
},
{
segmentType = curve;
smooth = 1;
x = 1066;
y = 550;
},
{
smooth = 0;
x = 1066;
y = 622;
},
{
smooth = 0;
x = 1124;
y = 678;
},
{
segmentType = curve;
smooth = 1;
x = 1194;
y = 678;
}
);
},
{
points = (
{
segmentType = line;
smooth = 0;
x = 220;
y = 0;
},
{
segmentType = line;
smooth = 0;
x = 1660;
y = 0;
},
{
segmentType = line;
smooth = 0;
x = 1660;
y = 1442;
},
{
segmentType = line;
smooth = 0;
x = 220;
y = 1442;
}
);
},
{
points = (
{
segmentType = curve;
smooth = 1;
x = 674;
y = 1296;
},
{
smooth = 0;
x = 744;
y = 1296;
},
{
smooth = 0;
x = 802;
y = 1240;
},
{
segmentType = curve;
smooth = 1;
x = 802;
y = 1168;
},
{
smooth = 0;
x = 802;
y = 1098;
},
{
smooth = 0;
x = 744;
y = 1042;
},
{
segmentType = curve;
smooth = 1;
x = 674;
y = 1042;
},
{
smooth = 0;
x = 604;
y = 1042;
},
{
smooth = 0;
x = 546;
y = 1098;
},
{
segmentType = curve;
smooth = 1;
x = 546;
y = 1168;
},
{
smooth = 0;
x = 546;
y = 1240;
},
{
smooth = 0;
x = 604;
y = 1296;
}
);
}
);
lib = {
};
name = N;
unicodes = (
);
width = 2070;
};
};
com.typemytype.robofont.mark = (
1,
0.5675,
0.4681,
1
);
};
},
{
glyphname = O.001;
lastChange = "2018-04-11 19:05:46 +0000";
layers = (
{
layerId = "A06561DA-A1C3-4D4F-A301-2F031DFC9FDA";
paths = (
{
closed = 1;
nodes = (
"1840 322 OFFCURVE",
"1840 740 CURVE SMOOTH",
"1840 1148 OFFCURVE",
"1534 1506 OFFCURVE",
"1044 1506 CURVE SMOOTH",
"520 1506 OFFCURVE",
"186 1122 OFFCURVE",
"186 698 CURVE SMOOTH",
"186 302 OFFCURVE",
"478 -62 OFFCURVE",
"982 -62 CURVE SMOOTH",
"1508 -62 OFFCURVE"
);
},
{
closed = 1;
nodes = (
"1370 72 OFFCURVE",
"1054 72 CURVE SMOOTH",
"668 72 OFFCURVE",
"474 470 OFFCURVE",
"474 844 CURVE SMOOTH",
"474 1144 OFFCURVE",
"666 1372 OFFCURVE",
"962 1372 CURVE SMOOTH",
"1352 1372 OFFCURVE",
"1550 988 OFFCURVE",
"1550 600 CURVE SMOOTH",
"1550 298 OFFCURVE"
);
}
);
width = 2024;
}
);
userData = {
com.typemytype.robofont.layerData = {
background = {
anchors = (
);
components = (
);
contours = (
{
points = (
{
smooth = 0;
x = 1508;
y = -62;
},
{
smooth = 0;
x = 1826;
y = 336;
},
{
segmentType = curve;
smooth = 1;
x = 1826;
y = 732;
},
{
smooth = 0;
x = 1826;
y = 1140;
},
{
smooth = 0;
x = 1534;
y = 1506;
},
{
segmentType = curve;
smooth = 1;
x = 1044;
y = 1506;
},
{
smooth = 0;
x = 520;
y = 1506;
},
{
smooth = 0;
x = 196;
y = 1114;
},
{
segmentType = curve;
smooth = 1;
x = 196;
y = 714;
},
{
smooth = 0;
x = 196;
y = 318;
},
{
smooth = 0;
x = 478;
y = -62;
},
{
segmentType = curve;
smooth = 1;
x = 982;
y = -62;
}
);
},
{
points = (
{
smooth = 0;
x = 1550;
y = 298;
},
{
smooth = 0;
x = 1370;
y = 72;
},
{
segmentType = curve;
smooth = 1;
x = 1054;
y = 72;
},
{
smooth = 0;
x = 668;
y = 72;
},
{
smooth = 0;
x = 474;
y = 470;
},
{
segmentType = curve;
smooth = 1;
x = 474;
y = 844;
},
{
smooth = 0;
x = 474;
y = 1144;
},
{
smooth = 0;
x = 666;
y = 1372;
},
{
segmentType = curve;
smooth = 1;
x = 962;
y = 1372;
},
{
smooth = 0;
x = 1352;
y = 1372;
},
{
smooth = 0;
x = 1550;
y = 988;
},
{
segmentType = curve;
smooth = 1;
x = 1550;
y = 600;
}
);
},
{
points = (
{
segmentType = curve;
smooth = 1;
x = -822;
y = 92;
},
{
smooth = 0;
x = -1170;
y = 0;
},
{
smooth = 0;
x = -1396;
y = 244;
},
{
segmentType = curve;
smooth = 1;
x = -1488;
y = 590;
},
{
smooth = 0;
x = -1578;
y = 938;
},
{
smooth = 0;
x = -1502;
y = 1260;
},
{
segmentType = curve;
smooth = 1;
x = -1154;
y = 1352;
},
{
smooth = 0;
x = -806;
y = 1444;
},
{
smooth = 0;
x = -580;
y = 1202;
},
{
segmentType = curve;
smooth = 1;
x = -488;
y = 854;
},
{
smooth = 0;
x = -398;
y = 508;
},
{
smooth = 0;
x = -474;
y = 184;
}
);
},
{
points = (
{
segmentType = curve;
smooth = 1;
x = -790;
y = -32;
},
{
smooth = 0;
x = -314;
y = 92;
},
{
smooth = 0;
x = -100;
y = 536;
},
{
segmentType = curve;
smooth = 1;
x = -202;
y = 928;
},
{
smooth = 0;
x = -306;
y = 1324;
},
{
smooth = 0;
x = -710;
y = 1602;
},
{
segmentType = curve;
smooth = 1;
x = -1186;
y = 1476;
},
{
smooth = 0;
x = -1662;
y = 1352;
},
{
smooth = 0;
x = -1878;
y = 910;
},
{
segmentType = curve;
smooth = 1;
x = -1774;
y = 516;
},
{
smooth = 0;
x = -1670;
y = 122;
},
{
smooth = 0;
x = -1266;
y = -158;
}
);
},
{
points = (
{
segmentType = curve;
smooth = 1;
x = 3012;
y = 70;
},
{
smooth = 0;
x = 2652;
y = 70;
},
{
smooth = 0;
x = 2496;
y = 364;
},
{
segmentType = curve;
smooth = 1;
x = 2496;
y = 722;
},
{
smooth = 0;
x = 2496;
y = 1082;
},
{
smooth = 0;
x = 2652;
y = 1374;
},
{
segmentType = curve;
smooth = 1;
x = 3012;
y = 1374;
},
{
smooth = 0;
x = 3372;
y = 1374;
},
{
smooth = 0;
x = 3528;
y = 1082;
},
{
segmentType = curve;
smooth = 1;
x = 3528;
y = 722;
},
{
smooth = 0;
x = 3528;
y = 364;
},
{
smooth = 0;
x = 3372;
y = 70;
}
);
},
{
points = (
{
segmentType = curve;
smooth = 1;
x = 3012;
y = -58;
},
{
smooth = 0;
x = 3504;
y = -58;
},
{
smooth = 0;
x = 3824;
y = 316;
},
{
segmentType = curve;
smooth = 1;
x = 3824;
y = 722;
},
{
smooth = 0;
x = 3824;
y = 1130;
},
{
smooth = 0;
x = 3504;
y = 1502;
},
{
segmentType = curve;
smooth = 1;
x = 3012;
y = 1502;
},
{
smooth = 0;
x = 2520;
y = 1502;
},
{
smooth = 0;
x = 2200;
y = 1130;
},
{
segmentType = curve;
smooth = 1;
x = 2200;
y = 722;
},
{
smooth = 0;
x = 2200;
y = 316;
},
{
smooth = 0;
x = 2520;
y = -58;
}
);
}
);
lib = {
};
name = O;
unicodes = (
);
width = 2024;
};
};
};
},
{
glyphname = R.001;
lastChange = "2018-04-11 19:05:46 +0000";
layers = (
{
layerId = "A06561DA-A1C3-4D4F-A301-2F031DFC9FDA";
paths = (
{
closed = 1;
nodes = (
"400 152 OFFCURVE",
"400 110 OFFCURVE",
"184 96 CURVE",
"180 0 LINE",
"890 0 LINE",
"890 0 OFFCURVE",
"886 96 OFFCURVE",
"886 96 CURVE",
"654 110 OFFCURVE",
"656 154 OFFCURVE",
"656 338 CURVE SMOOTH",
"656 1360 LINE SMOOTH",
"400 1360 LINE",
"400 342 LINE SMOOTH"
);
},
{
closed = 1;
nodes = (
"172 1342 LINE",
"392 1318 OFFCURVE",
"400 1270 OFFCURVE",
"400 1152 CURVE",
"536 1220 LINE",
"634 1328 OFFCURVE",
"772 1366 OFFCURVE",
"882 1366 CURVE SMOOTH",
"1030 1366 OFFCURVE",
"1144 1292 OFFCURVE",
"1166 1132 CURVE SMOOTH",
"1184 1002 OFFCURVE",
"1134 826 OFFCURVE",
"928 708 CURVE",
"972 616 LINE",
"1344 788 OFFCURVE",
"1484 982 OFFCURVE",
"1436 1198 CURVE SMOOTH",
"1396 1380 OFFCURVE",
"1216 1486 OFFCURVE",
"930 1486 CURVE SMOOTH",
"798 1486 OFFCURVE",
"648 1458 OFFCURVE",
"540 1432 CURVE",
"176 1440 LINE"
);
},
{
closed = 1;
nodes = (
"556 642 LINE",
"680 606 OFFCURVE",
"854 574 OFFCURVE",
"1012 558 CURVE",
"1046 708 LINE",
"868 714 OFFCURVE",
"718 738 OFFCURVE",
"578 768 CURVE"
);
},
{
closed = 1;
nodes = (
"1030 322 OFFCURVE",
"1130 190 OFFCURVE",
"1204 112 CURVE SMOOTH",
"1310 0 OFFCURVE",
"1420 -42 OFFCURVE",
"1516 -42 CURVE SMOOTH",
"1654 -42 OFFCURVE",
"1760 -2 OFFCURVE",
"1848 72 CURVE",
"1808 160 LINE",
"1756 146 OFFCURVE",
"1716 136 OFFCURVE",
"1658 136 CURVE SMOOTH",
"1582 136 OFFCURVE",
"1532 148 OFFCURVE",
"1440 230 CURVE SMOOTH",
"1316 340 OFFCURVE",
"1214 472 OFFCURVE",
"1048 708 CURVE",
"856 598 LINE"
);
}
);
width = 1820;
}
);
userData = {
com.typemytype.robofont.layerData = {
background = {
anchors = (
);
components = (
);
contours = (
{
points = (
{
segmentType = line;
smooth = 1;
x = 400;
y = 342;
},
{
smooth = 0;
x = 400;
y = 152;
},
{
smooth = 0;
x = 400;
y = 110;
},
{
segmentType = curve;
smooth = 0;
x = 184;
y = 96;
},
{
segmentType = line;
smooth = 0;
x = 180;
y = 0;
},
{
segmentType = line;
smooth = 0;
x = 890;
y = 0;
},
{
smooth = 0;
x = 890;
y = 0;
},
{
smooth = 0;
x = 886;
y = 96;
},
{
segmentType = curve;
smooth = 0;
x = 886;
y = 96;
},
{
smooth = 0;
x = 654;
y = 110;
},
{
smooth = 0;
x = 656;
y = 154;
},
{
segmentType = curve;
smooth = 1;
x = 656;
y = 338;
},
{
segmentType = line;
smooth = 1;
x = 656;
y = 1360;
},
{
segmentType = line;
smooth = 0;
x = 400;
y = 1360;
}
);
},
{
points = (
{
segmentType = curve;
smooth = 0;
x = 586;
y = 752;
},
{
segmentType = line;
smooth = 0;
x = 564;
y = 618;
},
{
smooth = 0;
x = 682;
y = 590;
},
{
smooth = 0;
x = 872;
y = 546;
},
{
segmentType = curve;
smooth = 0;
x = 1050;
y = 530;
},
{
segmentType = line;
smooth = 0;
x = 1084;
y = 680;
},
{
smooth = 0;
x = 902;
y = 694;
},
{
smooth = 0;
x = 730;
y = 714;
}
);
},
{
points = (
{
segmentType = line;
smooth = 0;
x = 904;
y = 590;
},
{
smooth = 0;
x = 1078;
y = 314;
},
{
smooth = 0;
x = 1178;
y = 182;
},
{
segmentType = curve;
smooth = 1;
x = 1252;
y = 104;
},
{
smooth = 0;
x = 1358;
y = -8;
},
{
smooth = 0;
x = 1468;
y = -50;
},
{
segmentType = curve;
smooth = 1;
x = 1564;
y = -50;
},
{
smooth = 0;
x = 1702;
y = -50;
},
{
smooth = 0;
x = 1808;
y = -10;
},
{
segmentType = curve;
smooth = 0;
x = 1896;
y = 64;
},
{
segmentType = line;
smooth = 0;
x = 1856;
y = 152;
},
{
smooth = 0;
x = 1804;
y = 138;
},
{
smooth = 0;
x = 1764;
y = 128;
},
{
segmentType = curve;
smooth = 1;
x = 1706;
y = 128;
},
{
smooth = 0;
x = 1630;
y = 128;
},
{
smooth = 0;
x = 1580;
y = 140;
},
{
segmentType = curve;
smooth = 1;
x = 1488;
y = 222;
},
{
smooth = 0;
x = 1364;
y = 332;
},
{
smooth = 0;
x = 1262;
y = 464;
},
{
segmentType = curve;
smooth = 0;
x = 1096;
y = 700;
}
);
},
{
points = (
{
segmentType = line;
smooth = 0;
x = 176;
y = 1440;
},
{
segmentType = line;
smooth = 0;
x = 180;
y = 1336;
},
{
smooth = 0;
x = 400;
y = 1326;
},
{
smooth = 0;
x = 400;
y = 1280;
},
{
segmentType = curve;
smooth = 0;
x = 400;
y = 1156;
},
{
segmentType = line;
smooth = 0;
x = 512;
y = 1242;
},
{
smooth = 0;
x = 622;
y = 1312;
},
{
smooth = 0;
x = 756;
y = 1366;
},
{
segmentType = curve;
smooth = 1;
x = 934;
y = 1366;
},
{
smooth = 0;
x = 1098;
y = 1366;
},
{
smooth = 0;
x = 1214;
y = 1286;
},
{
segmentType = curve;
smooth = 1;
x = 1250;
y = 1144;
},
{
smooth = 0;
x = 1290;
y = 984;
},
{
smooth = 0;
x = 1236;
y = 818;
},
{
segmentType = curve;
smooth = 0;
x = 958;
y = 676;
},
{
segmentType = line;
smooth = 0;
x = 1004;
y = 584;
},
{
smooth = 0;
x = 1414;
y = 754;
},
{
smooth = 0;
x = 1564;
y = 986;
},
{
segmentType = curve;
smooth = 1;
x = 1496;
y = 1214;
},
{
smooth = 0;
x = 1434;
y = 1420;
},
{
smooth = 0;
x = 1240;
y = 1486;
},
{
segmentType = curve;
smooth = 1;
x = 998;
y = 1486;
},
{
smooth = 0;
x = 856;
y = 1486;
},
{
smooth = 0;
x = 704;
y = 1462;
},
{
segmentType = curve;
smooth = 0;
x = 580;
y = 1440;
}
);
},
{
points = (
{
smooth = 0;
x = 1518;
y = 232;
},
{
smooth = 0;
x = 1576;
y = 176;
},
{
segmentType = curve;
smooth = 1;
x = 1576;
y = 104;
},
{
smooth = 0;
x = 1576;
y = 34;
},
{
smooth = 0;
x = 1518;
y = -22;
},
{
segmentType = curve;
smooth = 1;
x = 1448;
y = -22;
},
{
smooth = 0;
x = 1378;
y = -22;
},
{
smooth = 0;
x = 1320;
y = 34;
},
{
segmentType = curve;
smooth = 1;
x = 1320;
y = 104;
},
{
smooth = 0;
x = 1320;
y = 176;
},
{
smooth = 0;
x = 1378;
y = 232;
},
{
segmentType = curve;
smooth = 1;
x = 1448;
y = 232;
}
);
},
{
points = (
{
segmentType = curve;
smooth = 1;
x = 1292;
y = 1288;
},
{
smooth = 0;
x = 1362;
y = 1288;
},
{
smooth = 0;
x = 1420;
y = 1232;
},
{
segmentType = curve;
smooth = 1;
x = 1420;
y = 1160;
},
{
smooth = 0;
x = 1420;
y = 1090;
},
{
smooth = 0;
x = 1362;
y = 1034;
},
{
segmentType = curve;
smooth = 1;
x = 1292;
y = 1034;
},
{
smooth = 0;
x = 1222;
y = 1034;
},
{
smooth = 0;
x = 1164;
y = 1090;
},
{
segmentType = curve;
smooth = 1;
x = 1164;
y = 1160;
},
{
smooth = 0;
x = 1164;
y = 1232;
},
{
smooth = 0;
x = 1222;
y = 1288;
}
);
}
);
lib = {
};
name = R;
unicodes = (
);
width = 1820;
};
};
com.typemytype.robofont.mark = (
1,
0.5675,
0.4681,
1
);
};
},
{
glyphname = R.002;
lastChange = "2018-04-11 19:05:46 +0000";
layers = (
{
layerId = "A06561DA-A1C3-4D4F-A301-2F031DFC9FDA";
paths = (
{
closed = 1;
nodes = (
"172 1342 LINE",
"392 1318 OFFCURVE",
"400 1270 OFFCURVE",
"400 1152 CURVE",
"536 1220 LINE",
"634 1328 OFFCURVE",
"772 1366 OFFCURVE",
"882 1366 CURVE SMOOTH",
"1030 1366 OFFCURVE",
"1144 1292 OFFCURVE",
"1166 1132 CURVE SMOOTH",
"1184 1002 OFFCURVE",
"1134 826 OFFCURVE",
"928 708 CURVE",
"972 616 LINE",
"1344 788 OFFCURVE",
"1484 982 OFFCURVE",
"1436 1198 CURVE SMOOTH",
"1396 1380 OFFCURVE",
"1216 1486 OFFCURVE",
"930 1486 CURVE SMOOTH",
"798 1486 OFFCURVE",
"648 1458 OFFCURVE",
"540 1432 CURVE",
"176 1440 LINE"
);
},
{
closed = 1;
nodes = (
"556 642 LINE",
"680 606 OFFCURVE",
"854 574 OFFCURVE",
"1012 558 CURVE",
"1046 708 LINE",
"868 714 OFFCURVE",
"718 738 OFFCURVE",
"578 768 CURVE"
);
},
{
closed = 1;
nodes = (
"1030 322 OFFCURVE",
"1130 190 OFFCURVE",
"1204 112 CURVE SMOOTH",
"1322 -10 OFFCURVE",
"1422 -36 OFFCURVE",
"1516 -36 CURVE SMOOTH",
"1618 -36 OFFCURVE",
"1726 2 OFFCURVE",
"1834 106 CURVE",
"1784 192 LINE",
"1728 172 OFFCURVE",
"1672 158 OFFCURVE",
"1618 158 CURVE SMOOTH",
"1560 158 OFFCURVE",
"1506 170 OFFCURVE",
"1440 230 CURVE SMOOTH",
"1316 340 OFFCURVE",
"1214 472 OFFCURVE",
"1048 708 CURVE",
"856 598 LINE"
);
},
{
closed = 1;
nodes = (
"400 152 OFFCURVE",
"400 110 OFFCURVE",
"184 96 CURVE",
"180 0 LINE",
"890 0 LINE",
"890 0 OFFCURVE",
"886 96 OFFCURVE",
"886 96 CURVE",
"654 110 OFFCURVE",
"656 154 OFFCURVE",
"656 338 CURVE SMOOTH",
"656 1360 LINE SMOOTH",
"400 1360 LINE",
"400 342 LINE SMOOTH"
);
}
);
width = 1820;
}
);
userData = {
com.typemytype.robofont.layerData = {
background = {
anchors = (
);
components = (
);
contours = (
{
points = (
{
segmentType = line;
smooth = 0;
x = 176;
y = 1440;
},
{
segmentType = line;
smooth = 0;
x = 172;
y = 1342;
},
{
smooth = 0;
x = 392;
y = 1318;
},
{
smooth = 0;
x = 400;
y = 1270;
},
{
segmentType = curve;
smooth = 0;
x = 400;
y = 1152;
},
{
segmentType = line;
smooth = 0;
x = 536;
y = 1220;
},
{
smooth = 0;
x = 634;
y = 1328;
},
{
smooth = 0;
x = 772;
y = 1366;
},
{
segmentType = curve;
smooth = 1;
x = 882;
y = 1366;
},
{
smooth = 0;
x = 1030;
y = 1366;
},
{
smooth = 0;
x = 1144;
y = 1292;
},
{
segmentType = curve;
smooth = 1;
x = 1166;
y = 1132;
},
{
smooth = 0;
x = 1184;
y = 1002;
},
{
smooth = 0;
x = 1134;
y = 826;
},
{
segmentType = curve;
smooth = 0;
x = 928;
y = 708;
},
{
segmentType = line;
smooth = 0;
x = 972;
y = 616;
},
{
smooth = 0;
x = 1344;
y = 788;
},
{
smooth = 0;
x = 1484;
y = 982;
},
{
segmentType = curve;
smooth = 1;
x = 1436;
y = 1198;
},
{
smooth = 0;
x = 1396;
y = 1380;
},
{
smooth = 0;
x = 1216;
y = 1486;
},
{
segmentType = curve;
smooth = 1;
x = 930;
y = 1486;
},
{
smooth = 0;
x = 798;
y = 1486;
},
{
smooth = 0;
x = 648;
y = 1458;
},
{
segmentType = curve;
smooth = 0;
x = 540;
y = 1432;
}
);
},
{
points = (
{
segmentType = line;
smooth = 0;
x = 856;
y = 598;
},
{
smooth = 0;
x = 1030;
y = 322;
},
{
smooth = 0;
x = 1130;
y = 190;
},
{
segmentType = curve;
smooth = 1;
x = 1204;
y = 112;
},
{
smooth = 0;
x = 1322;
y = -10;
},
{
smooth = 0;
x = 1422;
y = -36;
},
{
segmentType = curve;
smooth = 1;
x = 1516;
y = -36;
},
{
smooth = 0;
x = 1618;
y = -36;
},
{
smooth = 0;
x = 1726;
y = 2;
},
{
segmentType = curve;
smooth = 0;
x = 1834;
y = 106;
},
{
segmentType = line;
smooth = 0;
x = 1784;
y = 192;
},
{
smooth = 0;
x = 1728;
y = 172;
},
{
smooth = 0;
x = 1672;
y = 158;
},
{
segmentType = curve;
smooth = 1;
x = 1618;
y = 158;
},
{
smooth = 0;
x = 1560;
y = 158;
},
{
smooth = 0;
x = 1506;
y = 170;
},
{
segmentType = curve;
smooth = 1;
x = 1440;
y = 230;
},
{
smooth = 0;
x = 1316;
y = 340;
},
{
smooth = 0;
x = 1214;
y = 472;
},
{
segmentType = curve;
smooth = 0;
x = 1048;
y = 708;
}
);
},
{
points = (
{
segmentType = curve;
smooth = 0;
x = 578;
y = 768;
},
{
segmentType = line;
smooth = 0;
x = 556;
y = 642;
},
{
smooth = 0;
x = 680;
y = 606;
},
{
smooth = 0;
x = 854;
y = 574;
},
{
segmentType = curve;
smooth = 0;
x = 1012;
y = 558;
},
{
segmentType = line;
smooth = 0;
x = 1046;
y = 708;
},
{
smooth = 0;
x = 868;
y = 714;
},
{
smooth = 0;
x = 718;
y = 738;
}
);
},
{
points = (
{
segmentType = line;
smooth = 1;
x = 400;
y = 342;
},
{
smooth = 0;
x = 400;
y = 152;
},
{
smooth = 0;
x = 400;
y = 110;
},
{
segmentType = curve;
smooth = 0;
x = 184;
y = 96;
},
{
segmentType = line;
smooth = 0;
x = 180;
y = 0;
},
{
segmentType = line;
smooth = 0;
x = 890;
y = 0;
},
{
smooth = 0;
x = 890;
y = 0;
},
{
smooth = 0;
x = 886;
y = 96;
},
{
segmentType = curve;
smooth = 0;
x = 886;
y = 96;
},
{
smooth = 0;
x = 654;
y = 110;
},
{
smooth = 0;
x = 656;
y = 154;
},
{
segmentType = curve;
smooth = 1;
x = 656;
y = 338;
},
{
segmentType = line;
smooth = 1;
x = 656;
y = 1360;
},
{
segmentType = line;
smooth = 0;
x = 400;
y = 1360;
}
);
}
);
lib = {
};
name = R;
unicodes = (
);
width = 1820;
};
};
};
},
{
glyphname = S.calt;
lastChange = "2018-04-11 19:05:46 +0000";
layers = (
{
layerId = "A06561DA-A1C3-4D4F-A301-2F031DFC9FDA";
paths = (
{
closed = 1;
nodes = (
"372 1480 OFFCURVE",
"204 1292 OFFCURVE",
"204 1064 CURVE SMOOTH",
"204 918 OFFCURVE",
"246 802 OFFCURVE",
"386 706 CURVE SMOOTH",
"458 658 OFFCURVE",
"558 616 OFFCURVE",
"682 568 CURVE SMOOTH",
"956 460 OFFCURVE",
"1036 420 OFFCURVE",
"1036 280 CURVE SMOOTH",
"1036 168 OFFCURVE",
"948 88 OFFCURVE",
"824 88 CURVE SMOOTH",
"700 88 OFFCURVE",
"616 154 OFFCURVE",
"534 216 CURVE SMOOTH",
"416 304 OFFCURVE",
"272 372 OFFCURVE",
"60 324 CURVE SMOOTH",
"-188 268 OFFCURVE",
"-276 48 OFFCURVE",
"-154 -144 CURVE",
"-68 -114 LINE",
"-108 44 OFFCURVE",
"-86 156 OFFCURVE",
"56 184 CURVE SMOOTH",
"206 212 OFFCURVE",
"294 138 OFFCURVE",
"370 82 CURVE SMOOTH",
"512 -24 OFFCURVE",
"620 -50 OFFCURVE",
"782 -50 CURVE SMOOTH",
"1058 -50 OFFCURVE",
"1222 110 OFFCURVE",
"1222 366 CURVE SMOOTH",
"1222 512 OFFCURVE",
"1168 626 OFFCURVE",
"1044 716 CURVE SMOOTH",
"980 762 OFFCURVE",
"892 804 OFFCURVE",
"786 844 CURVE SMOOTH",
"484 958 OFFCURVE",
"386 1002 OFFCURVE",
"386 1132 CURVE SMOOTH",
"386 1248 OFFCURVE",
"480 1352 OFFCURVE",
"690 1352 CURVE SMOOTH",
"914 1352 OFFCURVE",
"1042 1256 OFFCURVE",
"1038 958 CURVE",
"1154 946 LINE",
"1210 1422 LINE",
"1172 1446 LINE",
"1132 1428 OFFCURVE",
"1078 1420 OFFCURVE",
"1030 1426 CURVE SMOOTH",
"932 1440 OFFCURVE",
"842 1480 OFFCURVE",
"698 1480 CURVE SMOOTH"
);
}
);
width = 1400;
}
);
userData = {
com.typemytype.robofont.layerData = {
background = {
anchors = (
);
components = (
);
contours = (
{
points = (
{
segmentType = curve;
smooth = 1;
x = 698;
y = 1480;
},
{
smooth = 0;
x = 372;
y = 1480;
},
{
smooth = 0;
x = 204;
y = 1292;
},
{
segmentType = curve;
smooth = 1;
x = 204;
y = 1064;
},
{
smooth = 0;
x = 204;
y = 918;
},
{
smooth = 0;
x = 246;
y = 803;
},
{
segmentType = curve;
smooth = 1;
x = 386;
y = 706;
},
{
smooth = 0;
x = 458;
y = 658;
},
{
smooth = 0;
x = 558;
y = 616;
},
{
segmentType = curve;
smooth = 1;
x = 682;
y = 568;
},
{
smooth = 0;
x = 955;
y = 461;
},
{
smooth = 0;
x = 1036;
y = 420;
},
{
segmentType = curve;
smooth = 1;
x = 1036;
y = 280;
},
{
smooth = 0;
x = 1036;
y = 168;
},
{
smooth = 0;
x = 938;
y = 88;
},
{
segmentType = curve;
smooth = 1;
x = 736;
y = 88;
},
{
smooth = 0;
x = 514;
y = 88;
},
{
smooth = 0;
x = 338;
y = 184;
},
{
segmentType = curve;
smooth = 0;
x = 324;
y = 494;
},
{
segmentType = line;
smooth = 0;
x = 206;
y = 500;
},
{
segmentType = line;
smooth = 0;
x = 176;
y = 12;
},
{
segmentType = line;
smooth = 0;
x = 214;
y = -10;
},
{
smooth = 0;
x = 268;
y = 19;
},
{
smooth = 0;
x = 340;
y = 32;
},
{
segmentType = curve;
smooth = 1;
x = 442;
y = 6;
},
{
smooth = 0;
x = 516;
y = -12;
},
{
smooth = 0;
x = 602;
y = -40;
},
{
segmentType = curve;
smooth = 1;
x = 724;
y = -40;
},
{
smooth = 0;
x = 1059;
y = -40;
},
{
smooth = 0;
x = 1222;
y = 110;
},
{
segmentType = curve;
smooth = 1;
x = 1222;
y = 366;
},
{
smooth = 0;
x = 1222;
y = 512;
},
{
smooth = 0;
x = 1168;
y = 626;
},
{
segmentType = curve;
smooth = 1;
x = 1044;
y = 716;
},
{
smooth = 0;
x = 980;
y = 762;
},
{
smooth = 0;
x = 892;
y = 804;
},
{
segmentType = curve;
smooth = 1;
x = 786;
y = 844;
},
{
smooth = 0;
x = 485;
y = 959;
},
{
smooth = 0;
x = 386;
y = 1002;
},
{
segmentType = curve;
smooth = 1;
x = 386;
y = 1132;
},
{
smooth = 0;
x = 386;
y = 1248;
},
{
smooth = 0;
x = 480;
y = 1352;
},
{
segmentType = curve;
smooth = 1;
x = 690;
y = 1352;
},
{
smooth = 0;
x = 914;
y = 1352;
},
{
smooth = 0;
x = 1042;
y = 1256;
},
{
segmentType = curve;
smooth = 0;
x = 1038;
y = 958;
},
{
segmentType = line;
smooth = 0;
x = 1154;
y = 946;
},
{
segmentType = line;
smooth = 0;
x = 1210;
y = 1422;
},
{
segmentType = line;
smooth = 0;
x = 1172;
y = 1446;
},
{
smooth = 0;
x = 1132;
y = 1428;
},
{
smooth = 0;
x = 1078;
y = 1420;
},
{
segmentType = curve;
smooth = 1;
x = 1030;
y = 1426;
},
{
smooth = 0;
x = 932;
y = 1440;
},
{
smooth = 0;
x = 842;
y = 1480;
}
);
}
);
lib = {
};
name = S.calt;
unicodes = (
);
width = 1400;
};
};
};
},
{
glyphname = K.end;
lastChange = "2018-04-11 19:05:46 +0000";
layers = (
{
layerId = "A06561DA-A1C3-4D4F-A301-2F031DFC9FDA";
paths = (
{
closed = 1;
nodes = (
"400 342 LINE SMOOTH",
"400 152 OFFCURVE",
"400 112 OFFCURVE",
"170 96 CURVE",
"166 0 LINE",
"890 0 LINE",
"886 96 LINE",
"656 112 OFFCURVE",
"656 154 OFFCURVE",
"656 338 CURVE SMOOTH",
"656 1098 LINE SMOOTH",
"656 1288 OFFCURVE",
"660 1330 OFFCURVE",
"866 1344 CURVE",
"870 1440 LINE",
"166 1440 LINE",
"170 1344 LINE",
"402 1330 OFFCURVE",
"400 1286 OFFCURVE",
"400 1102 CURVE"
);
},
{
closed = 1;
nodes = (
"920 716 LINE",
"1330 1122 LINE SMOOTH",
"1452 1242 OFFCURVE",
"1546 1324 OFFCURVE",
"1716 1344 CURVE",
"1724 1440 LINE",
"1038 1440 LINE",
"1046 1344 LINE",
"1220 1334 OFFCURVE",
"1254 1254 OFFCURVE",
"1162 1158 CURVE SMOOTH",
"768 746 LINE",
"768 694 LINE",
"930 418 OFFCURVE",
"1092 218 OFFCURVE",
"1198 118 CURVE SMOOTH",
"1326 -2 OFFCURVE",
"1446 -36 OFFCURVE",
"1544 -36 CURVE SMOOTH",
"1646 -36 OFFCURVE",
"1754 2 OFFCURVE",
"1862 106 CURVE",
"1812 192 LINE",
"1756 172 OFFCURVE",
"1700 158 OFFCURVE",
"1646 158 CURVE SMOOTH",
"1585 158 OFFCURVE",
"1528 170 OFFCURVE",
"1438 244 CURVE SMOOTH",
"1320 340 OFFCURVE",
"1158 526 OFFCURVE",
"924 894 CURVE"
);
}
);
width = 1916;
}
);
userData = {
com.typemytype.robofont.guides = (
{
angle = 0;
isGlobal = 0;
magnetic = 5;
x = 443;
y = 48;
},
{
angle = 90;
isGlobal = 0;
magnetic = 5;
x = 876;
y = 0;
}
);
com.typemytype.robofont.layerData = {
background = {
anchors = (
);
components = (
);
contours = (
{
points = (
{
segmentType = line;
smooth = 0;
x = 812;
y = 640;
},
{
smooth = 0;
x = 812;
y = 640;
},
{
smooth = 0;
x = 920;
y = 716;
},
{
segmentType = curve;
smooth = 0;
x = 920;
y = 716;
},
{
segmentType = line;
smooth = 1;
x = 1330;
y = 1122;
},
{
smooth = 0;
x = 1452;
y = 1242;
},
{
smooth = 0;
x = 1546;
y = 1324;
},
{
segmentType = curve;
smooth = 0;
x = 1716;
y = 1344;
},
{
segmentType = line;
smooth = 0;
x = 1724;
y = 1440;
},
{
segmentType = line;
smooth = 0;
x = 1038;
y = 1440;
},
{
segmentType = line;
smooth = 0;
x = 1046;
y = 1344;
},
{
smooth = 0;
x = 1220;
y = 1334;
},
{
smooth = 0;
x = 1254;
y = 1254;
},
{
segmentType = curve;
smooth = 1;
x = 1162;
y = 1158;
},
{
segmentType = line;
smooth = 0;
x = 768;
y = 746;
},
{
segmentType = line;
smooth = 0;
x = 768;
y = 694;
}
);
},
{
points = (
{
segmentType = line;
smooth = 0;
x = 856;
y = 598;
},
{
smooth = 0;
x = 1030;
y = 322;
},
{
smooth = 0;
x = 1130;
y = 190;
},
{
segmentType = curve;
smooth = 1;
x = 1204;
y = 112;
},
{
smooth = 0;
x = 1322;
y = -10;
},
{
smooth = 0;
x = 1422;
y = -36;
},
{
segmentType = curve;
smooth = 1;
x = 1516;
y = -36;
},
{
smooth = 0;
x = 1618;
y = -36;
},
{
smooth = 0;
x = 1726;
y = 2;
},
{
segmentType = curve;
smooth = 0;
x = 1834;
y = 106;
},
{
segmentType = line;
smooth = 0;
x = 1784;
y = 192;
},
{
smooth = 0;
x = 1728;
y = 172;
},
{
smooth = 0;
x = 1672;
y = 158;
},
{
segmentType = curve;
smooth = 1;
x = 1618;
y = 158;
},
{
smooth = 0;
x = 1560;
y = 158;
},
{
smooth = 0;
x = 1506;
y = 170;
},
{
segmentType = curve;
smooth = 1;
x = 1440;
y = 230;
},
{
smooth = 0;
x = 1316;
y = 340;
},
{
smooth = 0;
x = 1214;
y = 472;
},
{
segmentType = curve;
smooth = 0;
x = 1048;
y = 708;
}
);
}
);
lib = {
};
name = K.end;
unicodes = (
);
width = 1916;
};
};
};
},
{
glyphname = G.001;
lastChange = "2018-04-11 19:05:46 +0000";
layers = (
{
layerId = "A06561DA-A1C3-4D4F-A301-2F031DFC9FDA";
paths = (
{
closed = 1;
nodes = (
"1362 -216 OFFCURVE",
"1340 -260 OFFCURVE",
"1280 -284 CURVE SMOOTH",
"1216 -310 OFFCURVE",
"1170 -300 OFFCURVE",
"1026 -196 CURVE",
"924 -368 LINE",
"1060 -454 OFFCURVE",
"1220 -452 OFFCURVE",
"1360 -380 CURVE SMOOTH",
"1534 -290 OFFCURVE",
"1602 -180 OFFCURVE",
"1602 52 CURVE SMOOTH",
"1602 322 LINE SMOOTH",
"1602 452 OFFCURVE",
"1602 518 OFFCURVE",
"1742 540 CURVE",
"1750 636 LINE",
"1108 636 LINE",
"1112 540 LINE",
"1362 528 OFFCURVE",
"1362 470 OFFCURVE",
"1362 298 CURVE SMOOTH",
"1362 -106 LINE SMOOTH"
);
},
{
closed = 1;
nodes = (
"1364 156 OFFCURVE",
"1202 88 OFFCURVE",
"1026 88 CURVE SMOOTH",
"668 88 OFFCURVE",
"474 422 OFFCURVE",
"474 816 CURVE SMOOTH",
"474 1144 OFFCURVE",
"666 1366 OFFCURVE",
"986 1366 CURVE SMOOTH",
"1266 1366 OFFCURVE",
"1438 1290 OFFCURVE",
"1438 954 CURVE",
"1554 942 LINE",
"1610 1428 LINE",
"1572 1452 LINE",
"1534 1434 OFFCURVE",
"1478 1430 OFFCURVE",
"1430 1436 CURVE",
"1316 1452 OFFCURVE",
"1224 1506 OFFCURVE",
"978 1506 CURVE SMOOTH",
"502 1506 OFFCURVE",
"196 1114 OFFCURVE",
"196 714 CURVE SMOOTH",
"196 284 OFFCURVE",
"478 -62 OFFCURVE",
"964 -62 CURVE SMOOTH",
"1262 -62 OFFCURVE",
"1408 66 OFFCURVE",
"1524 186 CURVE",
"1484 360 LINE"
);
}
);
width = 1914;
}
);
userData = {
com.typemytype.robofont.layerData = {
background = {
anchors = (
);
components = (
);
contours = (
{
points = (
{
segmentType = move;
x = 1594;
y = 318;
},
{
smooth = 0;
x = 1594;
y = 508;
},
{
smooth = 0;
x = 1594;
y = 550;
},
{
segmentType = curve;
smooth = 0;
x = 1824;
y = 564;
},
{
segmentType = line;
smooth = 0;
x = 1828;
y = 660;
},
{
segmentType = line;
smooth = 0;
x = 1104;
y = 660;
},
{
segmentType = line;
smooth = 0;
x = 1108;
y = 564;
},
{
smooth = 0;
x = 1340;
y = 550;
},
{
smooth = 0;
x = 1338;
y = 506;
},
{
segmentType = curve;
smooth = 0;
x = 1338;
y = 322;
}
);
},
{
points = (
{
segmentType = move;
smooth = 0;
x = 1484;
y = 338;
},
{
smooth = 0;
x = 1366;
y = 176;
},
{
smooth = 0;
x = 1218;
y = 88;
},
{
segmentType = curve;
smooth = 1;
x = 1008;
y = 88;
},
{
smooth = 0;
x = 668;
y = 88;
},
{
smooth = 0;
x = 474;
y = 422;
},
{
segmentType = curve;
smooth = 1;
x = 474;
y = 816;
},
{
smooth = 0;
x = 474;
y = 1144;
},
{
smooth = 0;
x = 666;
y = 1366;
},
{
segmentType = curve;
smooth = 1;
x = 986;
y = 1366;
},
{
smooth = 0;
x = 1222;
y = 1366;
},
{
smooth = 0;
x = 1378;
y = 1284;
},
{
segmentType = curve;
smooth = 0;
x = 1378;
y = 918;
},
{
segmentType = line;
smooth = 0;
x = 1494;
y = 906;
},
{
segmentType = line;
smooth = 0;
x = 1556;
y = 1428;
},
{
segmentType = line;
smooth = 0;
x = 1518;
y = 1452;
},
{
smooth = 0;
x = 1480;
y = 1434;
},
{
smooth = 0;
x = 1424;
y = 1430;
},
{
segmentType = curve;
smooth = 0;
x = 1376;
y = 1436;
},
{
smooth = 0;
x = 1278;
y = 1450;
},
{
smooth = 0;
x = 1188;
y = 1506;
},
{
segmentType = curve;
smooth = 1;
x = 978;
y = 1506;
},
{
smooth = 0;
x = 502;
y = 1506;
},
{
smooth = 0;
x = 196;
y = 1114;
},
{
segmentType = curve;
smooth = 1;
x = 196;
y = 714;
},
{
smooth = 0;
x = 196;
y = 284;
},
{
smooth = 0;
x = 478;
y = -62;
},
{
segmentType = curve;
smooth = 1;
x = 964;
y = -62;
},
{
smooth = 0;
x = 1236;
y = -62;
},
{
smooth = 0;
x = 1440;
y = 42;
},
{
segmentType = curve;
smooth = 0;
x = 1584;
y = 262;
}
);
}
);
lib = {
};
name = G.001;
unicodes = (
);
width = 1914;
};
};
};
},
{
glyphname = G.002;
lastChange = "2018-04-11 19:05:46 +0000";
layers = (
{
layerId = "A06561DA-A1C3-4D4F-A301-2F031DFC9FDA";
paths = (
{
closed = 1;
nodes = (
"1242 226 OFFCURVE",
"1136 88 OFFCURVE",
"936 88 CURVE SMOOTH",
"614 88 OFFCURVE",
"474 422 OFFCURVE",
"474 816 CURVE SMOOTH",
"474 1144 OFFCURVE",
"666 1366 OFFCURVE",
"986 1366 CURVE SMOOTH",
"1266 1366 OFFCURVE",
"1452 1290 OFFCURVE",
"1452 954 CURVE",
"1568 942 LINE",
"1624 1428 LINE",
"1586 1452 LINE",
"1548 1434 OFFCURVE",
"1492 1430 OFFCURVE",
"1444 1436 CURVE",
"1330 1452 OFFCURVE",
"1224 1506 OFFCURVE",
"978 1506 CURVE SMOOTH",
"502 1506 OFFCURVE",
"196 1114 OFFCURVE",
"196 714 CURVE SMOOTH",
"196 284 OFFCURVE",
"478 -62 OFFCURVE",
"936 -62 CURVE SMOOTH",
"1168 -62 OFFCURVE",
"1398 84 OFFCURVE",
"1396 592 CURVE",
"1262 594 LINE"
);
},
{
closed = 0;
nodes = (
"1702 16 LINE",
"1702 346 LINE SMOOTH",
"1702 476 OFFCURVE",
"1702 542 OFFCURVE",
"1842 564 CURVE",
"1850 660 LINE",
"1128 660 LINE",
"1132 548 LINE",
"1462 548 LINE",
"1462 54 LINE",
"1662 -8 LINE",
"1702 16 LINE"
);
}
);
width = 1914;
}
);
userData = {
com.typemytype.robofont.layerData = {
background = {
anchors = (
);
components = (
);
contours = (
{
points = (
{
segmentType = move;
x = 1594;
y = 318;
},
{
smooth = 0;
x = 1594;
y = 508;
},
{
smooth = 0;
x = 1594;
y = 550;
},
{
segmentType = curve;
smooth = 0;
x = 1824;
y = 564;
},
{
segmentType = line;
smooth = 0;
x = 1828;
y = 660;
},
{
segmentType = line;
smooth = 0;
x = 1104;
y = 660;
},
{
segmentType = line;
smooth = 0;
x = 1108;
y = 564;
},
{
smooth = 0;
x = 1340;
y = 550;
},
{
smooth = 0;
x = 1338;
y = 506;
},
{
segmentType = curve;
smooth = 0;
x = 1338;
y = 322;
}
);
},
{
points = (
{
segmentType = move;
smooth = 0;
x = 1484;
y = 338;
},
{
smooth = 0;
x = 1366;
y = 176;
},
{
smooth = 0;
x = 1218;
y = 88;
},
{
segmentType = curve;
smooth = 1;
x = 1008;
y = 88;
},
{
smooth = 0;
x = 668;
y = 88;
},
{
smooth = 0;
x = 474;
y = 422;
},
{
segmentType = curve;
smooth = 1;
x = 474;
y = 816;
},
{
smooth = 0;
x = 474;
y = 1144;
},
{
smooth = 0;
x = 666;
y = 1366;
},
{
segmentType = curve;
smooth = 1;
x = 986;
y = 1366;
},
{
smooth = 0;
x = 1222;
y = 1366;
},
{
smooth = 0;
x = 1378;
y = 1284;
},
{
segmentType = curve;
smooth = 0;
x = 1378;
y = 918;
},
{
segmentType = line;
smooth = 0;
x = 1494;
y = 906;
},
{
segmentType = line;
smooth = 0;
x = 1556;
y = 1428;
},
{
segmentType = line;
smooth = 0;
x = 1518;
y = 1452;
},
{
smooth = 0;
x = 1480;
y = 1434;
},
{
smooth = 0;
x = 1424;
y = 1430;
},
{
segmentType = curve;
smooth = 0;
x = 1376;
y = 1436;
},
{
smooth = 0;
x = 1278;
y = 1450;
},
{
smooth = 0;
x = 1188;
y = 1506;
},
{
segmentType = curve;
smooth = 1;
x = 978;
y = 1506;
},
{
smooth = 0;
x = 502;
y = 1506;
},
{
smooth = 0;
x = 196;
y = 1114;
},
{
segmentType = curve;
smooth = 1;
x = 196;
y = 714;
},
{
smooth = 0;
x = 196;
y = 284;
},
{
smooth = 0;
x = 478;
y = -62;
},
{
segmentType = curve;
smooth = 1;
x = 964;
y = -62;
},
{
smooth = 0;
x = 1236;
y = -62;
},
{
smooth = 0;
x = 1440;
y = 42;
},
{
segmentType = curve;
smooth = 0;
x = 1584;
y = 262;
}
);
}
);
lib = {
};
name = G.002;
unicodes = (
);
width = 1914;
};
};
};
},
{
glyphname = G.003;
lastChange = "2018-04-11 19:05:46 +0000";
layers = (
{
layerId = "A06561DA-A1C3-4D4F-A301-2F031DFC9FDA";
paths = (
{
closed = 1;
nodes = (
"1484 360 LINE",
"1364 156 OFFCURVE",
"1202 88 OFFCURVE",
"1026 88 CURVE SMOOTH",
"668 88 OFFCURVE",
"474 422 OFFCURVE",
"474 816 CURVE SMOOTH",
"474 1144 OFFCURVE",
"666 1366 OFFCURVE",
"986 1366 CURVE SMOOTH",
"1267 1366 OFFCURVE",
"1452 1290 OFFCURVE",
"1452 954 CURVE",
"1568 942 LINE",
"1624 1428 LINE",
"1586 1452 LINE",
"1548 1434 OFFCURVE",
"1492 1430 OFFCURVE",
"1444 1436 CURVE",
"1330 1452 OFFCURVE",
"1224 1506 OFFCURVE",
"978 1506 CURVE SMOOTH",
"502 1506 OFFCURVE",
"196 1114 OFFCURVE",
"196 714 CURVE SMOOTH",
"196 284 OFFCURVE",
"478 -62 OFFCURVE",
"964 -62 CURVE SMOOTH",
"1298 -62 OFFCURVE",
"1460 134 OFFCURVE",
"1596 80 CURVE",
"1644 108 LINE",
"1632 164 OFFCURVE",
"1622 230 OFFCURVE",
"1622 310 CURVE SMOOTH",
"1622 384 OFFCURVE",
"1622 486 OFFCURVE",
"1762 508 CURVE",
"1770 604 LINE",
"1128 604 LINE",
"1132 508 LINE",
"1382 496 OFFCURVE",
"1382 438 OFFCURVE",
"1382 266 CURVE SMOOTH",
"1382 144 LINE"
);
}
);
width = 1914;
}
);
userData = {
com.typemytype.robofont.layerData = {
background = {
anchors = (
);
components = (
);
contours = (
{
points = (
{
segmentType = move;
x = 1594;
y = 318;
},
{
smooth = 0;
x = 1594;
y = 508;
},
{
smooth = 0;
x = 1594;
y = 550;
},
{
segmentType = curve;
smooth = 0;
x = 1824;
y = 564;
},
{
segmentType = line;
smooth = 0;
x = 1828;
y = 660;
},
{
segmentType = line;
smooth = 0;
x = 1104;
y = 660;
},
{
segmentType = line;
smooth = 0;
x = 1108;
y = 564;
},
{
smooth = 0;
x = 1340;
y = 550;
},
{
smooth = 0;
x = 1338;
y = 506;
},
{
segmentType = curve;
smooth = 0;
x = 1338;
y = 322;
}
);
},
{
points = (
{
segmentType = move;
smooth = 0;
x = 1484;
y = 338;
},
{
smooth = 0;
x = 1366;
y = 176;
},
{
smooth = 0;
x = 1218;
y = 88;
},
{
segmentType = curve;
smooth = 1;
x = 1008;
y = 88;
},
{
smooth = 0;
x = 668;
y = 88;
},
{
smooth = 0;
x = 474;
y = 422;
},
{
segmentType = curve;
smooth = 1;
x = 474;
y = 816;
},
{
smooth = 0;
x = 474;
y = 1144;
},
{
smooth = 0;
x = 666;
y = 1366;
},
{
segmentType = curve;
smooth = 1;
x = 986;
y = 1366;
},
{
smooth = 0;
x = 1222;
y = 1366;
},
{
smooth = 0;
x = 1378;
y = 1284;
},
{
segmentType = curve;
smooth = 0;
x = 1378;
y = 918;
},
{
segmentType = line;
smooth = 0;
x = 1494;
y = 906;
},
{
segmentType = line;
smooth = 0;
x = 1556;
y = 1428;
},
{
segmentType = line;
smooth = 0;
x = 1518;
y = 1452;
},
{
smooth = 0;
x = 1480;
y = 1434;
},
{
smooth = 0;
x = 1424;
y = 1430;
},
{
segmentType = curve;
smooth = 0;
x = 1376;
y = 1436;
},
{
smooth = 0;
x = 1278;
y = 1450;
},
{
smooth = 0;
x = 1188;
y = 1506;
},
{
segmentType = curve;
smooth = 1;
x = 978;
y = 1506;
},
{
smooth = 0;
x = 502;
y = 1506;
},
{
smooth = 0;
x = 196;
y = 1114;
},
{
segmentType = curve;
smooth = 1;
x = 196;
y = 714;
},
{
smooth = 0;
x = 196;
y = 284;
},
{
smooth = 0;
x = 478;
y = -62;
},
{
segmentType = curve;
smooth = 1;
x = 964;
y = -62;
},
{
smooth = 0;
x = 1236;
y = -62;
},
{
smooth = 0;
x = 1440;
y = 42;
},
{
segmentType = curve;
smooth = 0;
x = 1584;
y = 262;
}
);
}
);
lib = {
};
name = G.003;
unicodes = (
);
width = 1914;
};
};
};
},
{
glyphname = C_K;
lastChange = "2018-04-11 19:05:46 +0000";
layers = (
{
layerId = "A06561DA-A1C3-4D4F-A301-2F031DFC9FDA";
paths = (
{
closed = 1;
nodes = (
"2320 716 LINE",
"2730 1122 LINE SMOOTH",
"2852 1242 OFFCURVE",
"2946 1324 OFFCURVE",
"3116 1344 CURVE",
"3124 1440 LINE",
"2438 1440 LINE",
"2446 1344 LINE",
"2620 1334 OFFCURVE",
"2654 1254 OFFCURVE",
"2562 1158 CURVE SMOOTH",
"2168 746 LINE",
"2168 694 LINE",
"2330 418 OFFCURVE",
"2492 218 OFFCURVE",
"2598 118 CURVE SMOOTH",
"2726 -2 OFFCURVE",
"2846 -36 OFFCURVE",
"2944 -36 CURVE SMOOTH",
"3046 -36 OFFCURVE",
"3154 2 OFFCURVE",
"3262 106 CURVE",
"3212 192 LINE",
"3156 172 OFFCURVE",
"3100 158 OFFCURVE",
"3046 158 CURVE SMOOTH",
"2986 158 OFFCURVE",
"2928 170 OFFCURVE",
"2838 244 CURVE SMOOTH",
"2720 340 OFFCURVE",
"2558 526 OFFCURVE",
"2324 894 CURVE"
);
},
{
closed = 1;
nodes = (
"1800 342 LINE SMOOTH",
"1800 152 OFFCURVE",
"1800 112 OFFCURVE",
"1570 96 CURVE",
"1566 0 LINE",
"2290 0 LINE",
"2286 96 LINE",
"2056 112 OFFCURVE",
"2056 154 OFFCURVE",
"2056 338 CURVE SMOOTH",
"2056 1098 LINE SMOOTH",
"2056 1288 OFFCURVE",
"2060 1330 OFFCURVE",
"2266 1344 CURVE",
"2270 1440 LINE",
"1566 1440 LINE",
"1570 1344 LINE",
"1802 1330 OFFCURVE",
"1800 1286 OFFCURVE",
"1800 1102 CURVE"
);
},
{
closed = 1;
nodes = (
"1222 1366 OFFCURVE",
"1378 1284 OFFCURVE",
"1378 918 CURVE",
"1494 906 LINE",
"1556 1428 LINE",
"1518 1452 LINE",
"1479 1435 OFFCURVE",
"1424 1430 OFFCURVE",
"1376 1436 CURVE",
"1278 1450 OFFCURVE",
"1188 1506 OFFCURVE",
"978 1506 CURVE SMOOTH",
"502 1506 OFFCURVE",
"196 1114 OFFCURVE",
"196 714 CURVE SMOOTH",
"196 284 OFFCURVE",
"478 -62 OFFCURVE",
"964 -62 CURVE SMOOTH",
"1413 -62 OFFCURVE",
"1704 182 OFFCURVE",
"1988 548 CURVE",
"1896 648 LINE",
"1636 336 OFFCURVE",
"1400 88 OFFCURVE",
"1008 88 CURVE SMOOTH",
"668 88 OFFCURVE",
"474 421 OFFCURVE",
"474 816 CURVE SMOOTH",
"474 1144 OFFCURVE",
"666 1366 OFFCURVE",
"986 1366 CURVE SMOOTH"
);
}
);
width = 3256;
}
);
userData = {
com.typemytype.robofont.layerData = {
background = {
anchors = (
);
components = (
);
contours = (
{
points = (
{
segmentType = curve;
smooth = 0;
x = 1800;
y = 1102;
},
{
segmentType = line;
smooth = 1;
x = 1800;
y = 342;
},
{
smooth = 0;
x = 1800;
y = 152;
},
{
smooth = 0;
x = 1800;
y = 112;
},
{
segmentType = curve;
smooth = 0;
x = 1570;
y = 96;
},
{
segmentType = line;
smooth = 0;
x = 1566;
y = 0;
},
{
segmentType = line;
smooth = 0;
x = 2290;
y = 0;
},
{
segmentType = line;
smooth = 0;
x = 2286;
y = 96;
},
{
smooth = 0;
x = 2056;
y = 112;
},
{
smooth = 0;
x = 2056;
y = 154;
},
{
segmentType = curve;
smooth = 1;
x = 2056;
y = 338;
},
{
segmentType = line;
smooth = 1;
x = 2056;
y = 1098;
},
{
smooth = 0;
x = 2056;
y = 1288;
},
{
smooth = 0;
x = 2060;
y = 1330;
},
{
segmentType = curve;
smooth = 0;
x = 2266;
y = 1344;
},
{
segmentType = line;
smooth = 0;
x = 2270;
y = 1440;
},
{
segmentType = line;
smooth = 0;
x = 1566;
y = 1440;
},
{
segmentType = line;
smooth = 0;
x = 1570;
y = 1344;
},
{
smooth = 0;
x = 1802;
y = 1330;
},
{
smooth = 0;
x = 1800;
y = 1286;
}
);
},
{
points = (
{
segmentType = curve;
smooth = 1;
x = 986;
y = 1366;
},
{
smooth = 0;
x = 1222;
y = 1366;
},
{
smooth = 0;
x = 1378;
y = 1284;
},
{
segmentType = curve;
smooth = 0;
x = 1378;
y = 918;
},
{
segmentType = line;
smooth = 0;
x = 1494;
y = 906;
},
{
segmentType = line;
smooth = 0;
x = 1556;
y = 1428;
},
{
segmentType = line;
smooth = 0;
x = 1518;
y = 1452;
},
{
smooth = 0;
x = 1479;
y = 1435;
},
{
smooth = 0;
x = 1424;
y = 1430;
},
{
segmentType = curve;
smooth = 0;
x = 1376;
y = 1436;
},
{
smooth = 0;
x = 1278;
y = 1450;
},
{
smooth = 0;
x = 1188;
y = 1506;
},
{
segmentType = curve;
smooth = 1;
x = 978;
y = 1506;
},
{
smooth = 0;
x = 502;
y = 1506;
},
{
smooth = 0;
x = 196;
y = 1114;
},
{
segmentType = curve;
smooth = 1;
x = 196;
y = 714;
},
{
smooth = 0;
x = 196;
y = 284;
},
{
smooth = 0;
x = 478;
y = -62;
},
{
segmentType = curve;
smooth = 1;
x = 964;
y = -62;
},
{
smooth = 0;
x = 1236;
y = -62;
},
{
smooth = 0;
x = 1440;
y = 42;
},
{
segmentType = curve;
smooth = 0;
x = 1584;
y = 262;
},
{
segmentType = line;
smooth = 0;
x = 1484;
y = 338;
},
{
smooth = 0;
x = 1366;
y = 176;
},
{
smooth = 0;
x = 1218;
y = 88;
},
{
segmentType = curve;
smooth = 1;
x = 1008;
y = 88;
},
{
smooth = 0;
x = 668;
y = 88;
},
{
smooth = 0;
x = 474;
y = 421;
},
{
segmentType = curve;
smooth = 1;
x = 474;
y = 816;
},
{
smooth = 0;
x = 474;
y = 1144;
},
{
smooth = 0;
x = 666;
y = 1366;
}
);
},
{
points = (
{
segmentType = curve;
smooth = 0;
x = 2324;
y = 894;
},
{
segmentType = line;
smooth = 0;
x = 2320;
y = 716;
},
{
segmentType = line;
smooth = 1;
x = 2730;
y = 1122;
},
{
smooth = 0;
x = 2852;
y = 1242;
},
{
smooth = 0;
x = 2946;
y = 1324;
},
{
segmentType = curve;
smooth = 0;
x = 3116;
y = 1344;
},
{
segmentType = line;
smooth = 0;
x = 3124;
y = 1440;
},
{
segmentType = line;
smooth = 0;
x = 2438;
y = 1440;
},
{
segmentType = line;
smooth = 0;
x = 2446;
y = 1344;
},
{
smooth = 0;
x = 2620;
y = 1334;
},
{
smooth = 0;
x = 2654;
y = 1254;
},
{
segmentType = curve;
smooth = 1;
x = 2562;
y = 1158;
},
{
segmentType = line;
smooth = 0;
x = 2168;
y = 746;
},
{
segmentType = line;
smooth = 0;
x = 2168;
y = 694;
},
{
smooth = 0;
x = 2330;
y = 418;
},
{
smooth = 0;
x = 2492;
y = 218;
},
{
segmentType = curve;
smooth = 1;
x = 2598;
y = 118;
},
{
smooth = 0;
x = 2726;
y = -2;
},
{
smooth = 0;
x = 2846;
y = -36;
},
{
segmentType = curve;
smooth = 1;
x = 2944;
y = -36;
},
{
smooth = 0;
x = 3046;
y = -36;
},
{
smooth = 0;
x = 3154;
y = 2;
},
{
segmentType = curve;
smooth = 0;
x = 3262;
y = 106;
},
{
segmentType = line;
smooth = 0;
x = 3212;
y = 192;
},
{
smooth = 0;
x = 3156;
y = 172;
},
{
smooth = 0;
x = 3100;
y = 158;
},
{
segmentType = curve;
smooth = 1;
x = 3046;
y = 158;
},
{
smooth = 0;
x = 2986;
y = 158;
},
{
smooth = 0;
x = 2928;
y = 170;
},
{
segmentType = curve;
smooth = 1;
x = 2838;
y = 244;
},
{
smooth = 0;
x = 2720;
y = 340;
},
{
smooth = 0;
x = 2558;
y = 526;
}
);
}
);
lib = {
};
name = C;
unicodes = (
);
width = 3256;
};
};
};
},
{
glyphname = S_T;
lastChange = "2018-04-11 19:05:46 +0000";
layers = (
{
layerId = "A06561DA-A1C3-4D4F-A301-2F031DFC9FDA";
paths = (
{
closed = 1;
nodes = (
"1342 932 LINE",
"1382 1234 OFFCURVE",
"1446 1312 OFFCURVE",
"1612 1312 CURVE SMOOTH",
"1830 1312 LINE",
"1830 342 LINE SMOOTH",
"1830 152 OFFCURVE",
"1830 112 OFFCURVE",
"1600 96 CURVE",
"1596 0 LINE",
"2320 0 LINE",
"2320 0 OFFCURVE",
"2316 96 OFFCURVE",
"2316 96 CURVE",
"2084 110 OFFCURVE",
"2086 154 OFFCURVE",
"2086 338 CURVE SMOOTH",
"2086 1312 LINE",
"2248 1312 LINE SMOOTH",
"2514 1312 OFFCURVE",
"2552 1248 OFFCURVE",
"2554 938 CURVE",
"2680 930 LINE",
"2720 1432 LINE",
"2682 1458 LINE",
"2572 1444 OFFCURVE",
"2412 1440 OFFCURVE",
"2294 1440 CURVE SMOOTH",
"1616 1440 LINE SMOOTH",
"1466 1440 OFFCURVE",
"1324 1424 OFFCURVE",
"1218 1386 CURVE",
"1106 1426 OFFCURVE",
"928 1480 OFFCURVE",
"764 1480 CURVE SMOOTH",
"392 1480 OFFCURVE",
"224 1292 OFFCURVE",
"224 1064 CURVE SMOOTH",
"224 918 OFFCURVE",
"266 802 OFFCURVE",
"406 706 CURVE SMOOTH",
"478 658 OFFCURVE",
"578 616 OFFCURVE",
"702 568 CURVE SMOOTH",
"978 460 OFFCURVE",
"1058 420 OFFCURVE",
"1058 280 CURVE SMOOTH",
"1058 168 OFFCURVE",
"960 88 OFFCURVE",
"756 88 CURVE SMOOTH",
"534 88 OFFCURVE",
"358 184 OFFCURVE",
"344 494 CURVE",
"226 492 LINE",
"228 332 OFFCURVE",
"226 156 OFFCURVE",
"196 12 CURVE",
"234 -10 LINE",
"288 18 OFFCURVE",
"360 32 OFFCURVE",
"462 6 CURVE SMOOTH",
"536 -12 OFFCURVE",
"622 -40 OFFCURVE",
"744 -40 CURVE SMOOTH",
"1078 -40 OFFCURVE",
"1242 110 OFFCURVE",
"1242 366 CURVE SMOOTH",
"1242 512 OFFCURVE",
"1188 626 OFFCURVE",
"1064 716 CURVE SMOOTH",
"1000 762 OFFCURVE",
"912 804 OFFCURVE",
"806 844 CURVE SMOOTH",
"506 958 OFFCURVE",
"408 1002 OFFCURVE",
"408 1132 CURVE SMOOTH",
"408 1248 OFFCURVE",
"502 1352 OFFCURVE",
"752 1352 CURVE SMOOTH",
"1056 1352 OFFCURVE",
"1150 1232 OFFCURVE",
"1212 944 CURVE"
);
}
);
width = 2780;
}
);
userData = {
com.typemytype.robofont.layerData = {
background = {
anchors = (
);
components = (
);
contours = (
{
points = (
{
segmentType = line;
smooth = 1;
x = 1776;
y = 1440;
},
{
smooth = 0;
x = 1630;
y = 1440;
},
{
smooth = 0;
x = 1500;
y = 1444;
},
{
segmentType = curve;
smooth = 0;
x = 1390;
y = 1458;
},
{
segmentType = line;
smooth = 0;
x = 1352;
y = 1432;
},
{
segmentType = line;
smooth = 0;
x = 1302;
y = 938;
},
{
segmentType = line;
smooth = 0;
x = 1426;
y = 924;
},
{
smooth = 0;
x = 1508;
y = 1266;
},
{
smooth = 0;
x = 1534;
y = 1312;
},
{
segmentType = curve;
smooth = 1;
x = 1772;
y = 1312;
},
{
segmentType = line;
smooth = 0;
x = 1910;
y = 1312;
},
{
segmentType = line;
smooth = 1;
x = 1910;
y = 342;
},
{
smooth = 0;
x = 1910;
y = 152;
},
{
smooth = 0;
x = 1910;
y = 112;
},
{
segmentType = curve;
smooth = 0;
x = 1680;
y = 96;
},
{
segmentType = line;
smooth = 0;
x = 1676;
y = 0;
},
{
segmentType = line;
smooth = 0;
x = 2400;
y = 0;
},
{
smooth = 0;
x = 2400;
y = 0;
},
{
smooth = 0;
x = 2396;
y = 96;
},
{
segmentType = curve;
smooth = 0;
x = 2396;
y = 96;
},
{
smooth = 0;
x = 2164;
y = 110;
},
{
smooth = 0;
x = 2166;
y = 154;
},
{
segmentType = curve;
smooth = 1;
x = 2166;
y = 338;
},
{
segmentType = line;
smooth = 0;
x = 2166;
y = 1312;
},
{
segmentType = line;
smooth = 1;
x = 2328;
y = 1312;
},
{
smooth = 0;
x = 2594;
y = 1312;
},
{
smooth = 0;
x = 2632;
y = 1248;
},
{
segmentType = curve;
smooth = 0;
x = 2634;
y = 938;
},
{
segmentType = line;
smooth = 0;
x = 2760;
y = 930;
},
{
segmentType = line;
smooth = 0;
x = 2800;
y = 1432;
},
{
segmentType = line;
smooth = 0;
x = 2762;
y = 1458;
},
{
smooth = 0;
x = 2652;
y = 1444;
},
{
smooth = 0;
x = 2492;
y = 1440;
},
{
segmentType = curve;
smooth = 1;
x = 2374;
y = 1440;
}
);
},
{
points = (
{
segmentType = curve;
smooth = 1;
x = 718;
y = 1480;
},
{
smooth = 0;
x = 392;
y = 1480;
},
{
smooth = 0;
x = 224;
y = 1292;
},
{
segmentType = curve;
smooth = 1;
x = 224;
y = 1064;
},
{
smooth = 0;
x = 224;
y = 918;
},
{
smooth = 0;
x = 266;
y = 803;
},
{
segmentType = curve;
smooth = 1;
x = 406;
y = 706;
},
{
smooth = 0;
x = 478;
y = 658;
},
{
smooth = 0;
x = 578;
y = 616;
},
{
segmentType = curve;
smooth = 1;
x = 702;
y = 568;
},
{
smooth = 0;
x = 977;
y = 459;
},
{
smooth = 0;
x = 1058;
y = 420;
},
{
segmentType = curve;
smooth = 1;
x = 1058;
y = 280;
},
{
smooth = 0;
x = 1058;
y = 168;
},
{
smooth = 0;
x = 959;
y = 88;
},
{
segmentType = curve;
smooth = 1;
x = 756;
y = 88;
},
{
smooth = 0;
x = 534;
y = 88;
},
{
smooth = 0;
x = 358;
y = 184;
},
{
segmentType = curve;
smooth = 0;
x = 344;
y = 494;
},
{
segmentType = line;
smooth = 0;
x = 226;
y = 492;
},
{
smooth = 0;
x = 228;
y = 333;
},
{
smooth = 0;
x = 226;
y = 156;
},
{
segmentType = curve;
smooth = 0;
x = 196;
y = 12;
},
{
segmentType = line;
smooth = 0;
x = 234;
y = -10;
},
{
smooth = 0;
x = 288;
y = 18;
},
{
smooth = 0;
x = 360;
y = 32;
},
{
segmentType = curve;
smooth = 1;
x = 462;
y = 6;
},
{
smooth = 0;
x = 536;
y = -12;
},
{
smooth = 0;
x = 622;
y = -40;
},
{
segmentType = curve;
smooth = 1;
x = 744;
y = -40;
},
{
smooth = 0;
x = 1079;
y = -40;
},
{
smooth = 0;
x = 1242;
y = 110;
},
{
segmentType = curve;
smooth = 1;
x = 1242;
y = 366;
},
{
smooth = 0;
x = 1242;
y = 512;
},
{
smooth = 0;
x = 1188;
y = 626;
},
{
segmentType = curve;
smooth = 1;
x = 1064;
y = 716;
},
{
smooth = 0;
x = 1000;
y = 762;
},
{
smooth = 0;
x = 912;
y = 804;
},
{
segmentType = curve;
smooth = 1;
x = 806;
y = 844;
},
{
smooth = 0;
x = 506;
y = 958;
},
{
smooth = 0;
x = 408;
y = 1002;
},
{
segmentType = curve;
smooth = 1;
x = 408;
y = 1132;
},
{
smooth = 0;
x = 408;
y = 1248;
},
{
smooth = 0;
x = 501;
y = 1352;
},
{
segmentType = curve;
smooth = 1;
x = 710;
y = 1352;
},
{
smooth = 0;
x = 934;
y = 1352;
},
{
smooth = 0;
x = 1062;
y = 1256;
},
{
segmentType = curve;
smooth = 0;
x = 1058;
y = 958;
},
{
segmentType = line;
smooth = 0;
x = 1174;
y = 952;
},
{
smooth = 0;
x = 1182;
y = 1070;
},
{
smooth = 0;
x = 1196;
y = 1260;
},
{
segmentType = curve;
smooth = 0;
x = 1230;
y = 1422;
},
{
segmentType = line;
smooth = 0;
x = 1192;
y = 1446;
},
{
smooth = 0;
x = 1152;
y = 1428;
},
{
smooth = 0;
x = 1098;
y = 1420;
},
{
segmentType = curve;
smooth = 1;
x = 1050;
y = 1426;
},
{
smooth = 0;
x = 952;
y = 1440;
},
{
smooth = 0;
x = 862;
y = 1480;
}
);
}
);
lib = {
};
name = S_T;
unicodes = (
);
width = 2780;
};
};
};
},
{
glyphname = T_T;
lastChange = "2018-04-11 19:05:46 +0000";
layers = (
{
layerId = "A06561DA-A1C3-4D4F-A301-2F031DFC9FDA";
paths = (
{
closed = 1;
nodes = (
"470 940 OFFCURVE",
"340 944 OFFCURVE",
"230 958 CURVE",
"192 932 LINE",
"142 438 LINE",
"266 424 LINE",
"348 766 OFFCURVE",
"374 812 OFFCURVE",
"612 812 CURVE",
"750 812 LINE",
"1006 812 LINE",
"1168 812 LINE SMOOTH",
"1434 812 OFFCURVE",
"1472 748 OFFCURVE",
"1474 438 CURVE",
"1600 430 LINE",
"1640 932 LINE",
"1602 958 LINE",
"1492 944 OFFCURVE",
"1332 940 OFFCURVE",
"1214 940 CURVE SMOOTH",
"616 940 LINE SMOOTH"
);
},
{
closed = 1;
nodes = (
"470 1620 OFFCURVE",
"340 1624 OFFCURVE",
"230 1638 CURVE",
"192 1612 LINE",
"142 1118 LINE",
"266 1104 LINE",
"348 1446 OFFCURVE",
"374 1492 OFFCURVE",
"612 1492 CURVE SMOOTH",
"750 1492 LINE",
"750 342 LINE SMOOTH",
"750 152 OFFCURVE",
"750 112 OFFCURVE",
"520 96 CURVE",
"516 0 LINE",
"1240 0 LINE",
"1240 0 OFFCURVE",
"1236 96 OFFCURVE",
"1236 96 CURVE",
"1004 110 OFFCURVE",
"1006 154 OFFCURVE",
"1006 338 CURVE SMOOTH",
"1006 1492 LINE",
"1168 1492 LINE SMOOTH",
"1434 1492 OFFCURVE",
"1472 1428 OFFCURVE",
"1474 1118 CURVE",
"1600 1110 LINE",
"1640 1612 LINE",
"1602 1638 LINE",
"1492 1624 OFFCURVE",
"1332 1620 OFFCURVE",
"1214 1620 CURVE SMOOTH",
"616 1620 LINE SMOOTH"
);
}
);
width = 1756;
}
);
userData = {
com.typemytype.robofont.layerData = {
background = {
anchors = (
);
components = (
);
contours = (
);
lib = {
};
name = T_T;
unicodes = (
);
width = 1756;
};
};
};
},
{
glyphname = hands;
lastChange = "2018-04-11 19:05:46 +0000";
layers = (
{
layerId = "A06561DA-A1C3-4D4F-A301-2F031DFC9FDA";
paths = (
{
closed = 1;
nodes = (
"1214 -90 LINE",
"1214 1574 LINE",
"-198 1574 LINE",
"-198 -90 LINE"
);
},
{
closed = 1;
nodes = (
"642 834 OFFCURVE",
"740 776 OFFCURVE",
"812 720 CURVE",
"910 698 OFFCURVE",
"1022 640 OFFCURVE",
"1082 590 CURVE",
"1070 568 LINE",
"798 660 LINE",
"798 660 OFFCURVE",
"766 666 OFFCURVE",
"746 688 CURVE SMOOTH",
"730 702 OFFCURVE",
"732 732 OFFCURVE",
"696 752 CURVE SMOOTH",
"660 770 OFFCURVE",
"646 756 OFFCURVE",
"622 772 CURVE SMOOTH",
"592 792 OFFCURVE",
"572 826 OFFCURVE",
"564 870 CURVE"
);
},
{
closed = 1;
nodes = (
"534 944 OFFCURVE",
"550 930 OFFCURVE",
"548 900 CURVE SMOOTH",
"546 870 OFFCURVE",
"532 846 OFFCURVE",
"536 822 CURVE SMOOTH",
"540 798 OFFCURVE",
"560 774 OFFCURVE",
"550 758 CURVE SMOOTH",
"540 742 OFFCURVE",
"512 760 OFFCURVE",
"496 758 CURVE SMOOTH",
"480 756 OFFCURVE",
"482 720 OFFCURVE",
"468 702 CURVE SMOOTH",
"446 672 OFFCURVE",
"414 660 OFFCURVE",
"402 638 CURVE SMOOTH",
"388 612 OFFCURVE",
"382 566 OFFCURVE",
"414 534 CURVE SMOOTH",
"442 506 OFFCURVE",
"480 454 OFFCURVE",
"500 416 CURVE",
"550 388 OFFCURVE",
"598 342 OFFCURVE",
"606 312 CURVE",
"594 304 LINE",
"544 354 OFFCURVE",
"494 386 OFFCURVE",
"410 386 CURVE SMOOTH",
"344 386 OFFCURVE",
"284 356 OFFCURVE",
"252 310 CURVE",
"240 314 LINE",
"232 344 OFFCURVE",
"216 386 OFFCURVE",
"202 410 CURVE SMOOTH",
"186 438 OFFCURVE",
"150 494 OFFCURVE",
"134 540 CURVE SMOOTH",
"124 568 OFFCURVE",
"116 592 OFFCURVE",
"108 612 CURVE",
"136 624 OFFCURVE",
"144 632 OFFCURVE",
"138 674 CURVE SMOOTH",
"136 686 OFFCURVE",
"120 724 OFFCURVE",
"118 754 CURVE",
"110 754 LINE",
"106 746 OFFCURVE",
"96 742 OFFCURVE",
"90 740 CURVE SMOOTH",
"74 734 OFFCURVE",
"70 716 OFFCURVE",
"76 698 CURVE",
"70 694 LINE",
"66 702 OFFCURVE",
"60 718 OFFCURVE",
"58 738 CURVE",
"54 750 OFFCURVE",
"50 760 OFFCURVE",
"50 780 CURVE SMOOTH",
"50 812 OFFCURVE",
"58 814 OFFCURVE",
"74 836 CURVE SMOOTH",
"90 858 OFFCURVE",
"102 866 OFFCURVE",
"112 870 CURVE",
"114 884 OFFCURVE",
"118 898 OFFCURVE",
"134 926 CURVE SMOOTH",
"142 940 OFFCURVE",
"150 956 OFFCURVE",
"160 964 CURVE SMOOTH",
"170 974 OFFCURVE",
"186 974 OFFCURVE",
"198 974 CURVE SMOOTH",
"224 974 OFFCURVE",
"258 968 OFFCURVE",
"258 968 CURVE",
"258 968 OFFCURVE",
"272 994 OFFCURVE",
"300 1008 CURVE SMOOTH",
"328 1022 OFFCURVE",
"348 1012 OFFCURVE",
"380 1004 CURVE SMOOTH",
"412 996 OFFCURVE",
"428 986 OFFCURVE",
"448 968 CURVE SMOOTH",
"468 950 OFFCURVE",
"420 976 OFFCURVE",
"404 972 CURVE SMOOTH",
"388 968 OFFCURVE",
"378 976 OFFCURVE",
"368 964 CURVE SMOOTH",
"362 956 OFFCURVE",
"346 948 OFFCURVE",
"328 948 CURVE",
"328 942 LINE",
"366 942 OFFCURVE",
"388 926 OFFCURVE",
"412 906 CURVE",
"422 928 OFFCURVE",
"432 936 OFFCURVE",
"450 938 CURVE SMOOTH",
"468 940 OFFCURVE",
"478 944 OFFCURVE",
"494 944 CURVE SMOOTH"
);
},
{
closed = 1;
nodes = (
"336 902 OFFCURVE",
"322 876 OFFCURVE",
"298 870 CURVE SMOOTH",
"272 864 OFFCURVE",
"254 870 OFFCURVE",
"242 896 CURVE",
"212 902 OFFCURVE",
"166 900 OFFCURVE",
"172 872 CURVE",
"166 866 LINE",
"166 866 OFFCURVE",
"176 838 OFFCURVE",
"198 832 CURVE SMOOTH",
"212 828 OFFCURVE",
"216 828 OFFCURVE",
"218 816 CURVE SMOOTH",
"220 794 OFFCURVE",
"226 760 OFFCURVE",
"244 756 CURVE SMOOTH",
"262 752 OFFCURVE",
"280 774 OFFCURVE",
"302 780 CURVE SMOOTH",
"322 784 OFFCURVE",
"348 772 OFFCURVE",
"370 772 CURVE SMOOTH",
"384 772 OFFCURVE",
"402 774 OFFCURVE",
"412 776 CURVE",
"418 786 OFFCURVE",
"430 798 OFFCURVE",
"442 800 CURVE",
"444 806 OFFCURVE",
"446 816 OFFCURVE",
"446 826 CURVE",
"438 842 OFFCURVE",
"434 860 OFFCURVE",
"432 872 CURVE",
"420 874 OFFCURVE",
"408 874 OFFCURVE",
"390 882 CURVE SMOOTH",
"376 888 OFFCURVE",
"358 902 OFFCURVE",
"348 902 CURVE SMOOTH"
);
},
{
closed = 1;
nodes = (
"158 792 OFFCURVE",
"152 772 OFFCURVE",
"150 756 CURVE",
"150 756 OFFCURVE",
"160 732 OFFCURVE",
"178 732 CURVE SMOOTH",
"200 732 OFFCURVE",
"208 760 OFFCURVE",
"200 814 CURVE",
"192 814 LINE",
"186 804 OFFCURVE",
"178 802 OFFCURVE",
"168 802 CURVE"
);
},
{
closed = 1;
nodes = (
"88 690 OFFCURVE",
"100 672 OFFCURVE",
"94 652 CURVE SMOOTH",
"90 640 OFFCURVE",
"72 630 OFFCURVE",
"62 626 CURVE SMOOTH",
"52 622 OFFCURVE",
"44 620 OFFCURVE",
"38 618 CURVE",
"34 626 OFFCURVE",
"32 636 OFFCURVE",
"34 644 CURVE SMOOTH",
"38 658 OFFCURVE",
"50 660 OFFCURVE",
"50 660 CURVE",
"50 660 OFFCURVE",
"50 670 OFFCURVE",
"56 676 CURVE SMOOTH",
"62 682 OFFCURVE",
"74 690 OFFCURVE",
"80 690 CURVE"
);
},
{
closed = 1;
nodes = (
"712 394 OFFCURVE",
"668 426 OFFCURVE",
"616 456 CURVE",
"602 458 OFFCURVE",
"582 456 OFFCURVE",
"566 454 CURVE",
"560 474 OFFCURVE",
"556 504 OFFCURVE",
"556 526 CURVE",
"574 518 OFFCURVE",
"598 508 OFFCURVE",
"640 480 CURVE SMOOTH",
"682 452 OFFCURVE",
"732 408 OFFCURVE",
"780 350 CURVE",
"772 344 LINE"
);
},
{
closed = 1;
nodes = (
"194 922 LINE",
"208 926 OFFCURVE",
"224 926 OFFCURVE",
"236 924 CURVE",
"238 932 OFFCURVE",
"242 942 OFFCURVE",
"248 950 CURVE",
"242 952 LINE",
"236 942 OFFCURVE",
"222 938 OFFCURVE",
"216 946 CURVE",
"210 944 LINE",
"214 938 OFFCURVE",
"206 930 OFFCURVE",
"194 928 CURVE"
);
},
{
closed = 1;
nodes = (
"134 790 LINE",
"130 806 OFFCURVE",
"132 822 OFFCURVE",
"144 830 CURVE",
"132 830 OFFCURVE",
"122 838 OFFCURVE",
"118 850 CURVE",
"112 848 LINE",
"118 830 OFFCURVE",
"122 816 OFFCURVE",
"108 816 CURVE",
"108 810 LINE",
"116 810 OFFCURVE",
"126 802 OFFCURVE",
"128 786 CURVE"
);
},
{
closed = 1;
nodes = (
"222 848 OFFCURVE",
"254 858 OFFCURVE",
"242 872 CURVE",
"236 866 OFFCURVE",
"218 860 OFFCURVE",
"212 858 CURVE"
);
}
);
width = 1000;
}
);
userData = {
com.typemytype.robofont.image = {
blackAndWhite = 0;
brightness = 0;
contrast = 1;
path = "/Users/kuti/Documents/Schriften/Hermann/IMG_4955.jpg";
saturation = 1;
sharpness = 0.4;
transform = (
2.94258,
0,
0,
2.94258,
-92.8125,
22.51133
);
};
com.typemytype.robofont.layerData = {
background = {
anchors = (
);
components = (
);
contours = (
{
points = (
{
segmentType = line;
smooth = 0;
x = -198;
y = -90;
},
{
segmentType = line;
smooth = 0;
x = 1214;
y = -90;
},
{
segmentType = line;
smooth = 0;
x = 1214;
y = 1574;
},
{
segmentType = line;
smooth = 0;
x = -198;
y = 1574;
}
);
}
);
lib = {
};
name = hands;
unicodes = (
);
width = 1000;
};
};
};
},
{
glyphname = hand3;
lastChange = "2018-04-11 19:05:46 +0000";
layers = (
{
layerId = "A06561DA-A1C3-4D4F-A301-2F031DFC9FDA";
paths = (
{
closed = 1;
nodes = (
"640 1202 OFFCURVE",
"614 1132 CURVE",
"660 1152 OFFCURVE",
"734 1176 OFFCURVE",
"768 1176 CURVE SMOOTH",
"780 1176 OFFCURVE",
"792 1174 OFFCURVE",
"804 1172 CURVE",
"822 1182 OFFCURVE",
"836 1202 OFFCURVE",
"836 1226 CURVE",
"874 1228 OFFCURVE",
"916 1210 OFFCURVE",
"946 1190 CURVE",
"962 1210 LINE",
"936 1236 OFFCURVE",
"902 1252 OFFCURVE",
"856 1262 CURVE SMOOTH",
"836 1266 OFFCURVE",
"784 1276 OFFCURVE",
"746 1276 CURVE SMOOTH",
"698 1276 OFFCURVE"
);
},
{
closed = 1;
nodes = (
"434 836 OFFCURVE",
"434 836 CURVE",
"420 856 OFFCURVE",
"408 894 OFFCURVE",
"408 924 CURVE",
"392 952 OFFCURVE",
"380 982 OFFCURVE",
"380 1018 CURVE SMOOTH",
"380 1052 OFFCURVE",
"394 1084 OFFCURVE",
"410 1110 CURVE SMOOTH",
"428 1138 OFFCURVE",
"440 1168 OFFCURVE",
"458 1182 CURVE SMOOTH",
"486 1206 OFFCURVE",
"564 1200 OFFCURVE",
"604 1194 CURVE",
"590 1172 OFFCURVE",
"582 1154 OFFCURVE",
"578 1132 CURVE",
"572 1132 OFFCURVE",
"564 1134 OFFCURVE",
"558 1134 CURVE",
"550 1162 LINE",
"536 1162 LINE",
"532 1134 LINE",
"506 1134 OFFCURVE",
"478 1132 OFFCURVE",
"456 1126 CURVE",
"438 1090 OFFCURVE",
"430 1038 OFFCURVE",
"468 984 CURVE SMOOTH",
"470 982 OFFCURVE",
"472 978 OFFCURVE",
"474 976 CURVE",
"466 960 OFFCURVE",
"462 922 OFFCURVE",
"466 900 CURVE",
"450 880 OFFCURVE",
"438 858 OFFCURVE",
"436 836 CURVE",
"436 836 OFFCURVE"
);
},
{
closed = 1;
nodes = (
"506 998 OFFCURVE",
"510 994 CURVE",
"548 996 OFFCURVE",
"596 1008 OFFCURVE",
"614 1030 CURVE",
"666 1006 OFFCURVE",
"728 1010 OFFCURVE",
"752 1058 CURVE",
"768 1060 OFFCURVE",
"786 1070 OFFCURVE",
"792 1100 CURVE",
"814 1102 LINE",
"822 1042 OFFCURVE",
"878 1018 OFFCURVE",
"938 1012 CURVE",
"926 1040 OFFCURVE",
"906 1068 OFFCURVE",
"876 1094 CURVE SMOOTH",
"854 1112 OFFCURVE",
"816 1138 OFFCURVE",
"768 1138 CURVE SMOOTH",
"730 1138 OFFCURVE",
"650 1108 OFFCURVE",
"606 1092 CURVE",
"564 1100 OFFCURVE",
"508 1098 OFFCURVE",
"476 1094 CURVE",
"472 1076 OFFCURVE",
"472 1038 OFFCURVE",
"498 1006 CURVE SMOOTH",
"502 1002 OFFCURVE"
);
},
{
closed = 1;
nodes = (
"1170 1012 LINE",
"1202 932 OFFCURVE",
"1218 818 OFFCURVE",
"1210 752 CURVE SMOOTH",
"1164 328 LINE SMOOTH",
"1156 250 OFFCURVE",
"1176 188 OFFCURVE",
"1190 154 CURVE",
"1206 158 LINE",
"1196 210 OFFCURVE",
"1188 260 OFFCURVE",
"1196 316 CURVE SMOOTH",
"1252 740 LINE SMOOTH",
"1258 790 OFFCURVE",
"1244 852 OFFCURVE",
"1226 894 CURVE",
"1236 900 LINE",
"1272 838 OFFCURVE",
"1298 812 OFFCURVE",
"1368 816 CURVE",
"1442 778 LINE",
"1444 734 OFFCURVE",
"1466 700 OFFCURVE",
"1514 680 CURVE SMOOTH",
"1642 628 OFFCURVE",
"1764 568 OFFCURVE",
"1844 516 CURVE",
"1926 520 OFFCURVE",
"2008 506 OFFCURVE",
"2084 466 CURVE",
"2100 524 LINE",
"1996 612 OFFCURVE",
"1852 692 OFFCURVE",
"1618 758 CURVE",
"1494 844 OFFCURVE",
"1310 960 OFFCURVE",
"1182 1022 CURVE"
);
},
{
closed = 1;
nodes = (
"298 714 OFFCURVE",
"302 712 CURVE",
"292 742 OFFCURVE",
"296 770 OFFCURVE",
"312 798 CURVE",
"326 806 OFFCURVE",
"348 804 OFFCURVE",
"366 796 CURVE",
"362 838 OFFCURVE",
"372 860 OFFCURVE",
"384 876 CURVE",
"384 882 OFFCURVE",
"382 888 OFFCURVE",
"382 894 CURVE",
"380 898 OFFCURVE",
"378 900 OFFCURVE",
"376 904 CURVE",
"336 922 LINE",
"338 940 LINE",
"362 938 LINE",
"354 960 OFFCURVE",
"348 984 OFFCURVE",
"346 1010 CURVE",
"332 998 OFFCURVE",
"318 968 OFFCURVE",
"302 952 CURVE SMOOTH",
"260 914 OFFCURVE",
"258 880 OFFCURVE",
"258 854 CURVE SMOOTH",
"258 836 OFFCURVE",
"264 812 OFFCURVE",
"278 786 CURVE",
"280 766 OFFCURVE",
"284 734 OFFCURVE",
"292 716 CURVE",
"296 714 OFFCURVE"
);
},
{
closed = 1;
nodes = (
"232 578 OFFCURVE",
"236 572 CURVE",
"278 570 OFFCURVE",
"320 580 OFFCURVE",
"344 608 CURVE",
"344 632 OFFCURVE",
"342 656 OFFCURVE",
"338 670 CURVE",
"320 670 OFFCURVE",
"300 676 OFFCURVE",
"280 684 CURVE",
"258 674 OFFCURVE",
"252 662 OFFCURVE",
"254 648 CURVE",
"242 638 OFFCURVE",
"228 628 OFFCURVE",
"228 600 CURVE SMOOTH",
"228 588 OFFCURVE"
);
},
{
closed = 1;
nodes = (
"1440 -506 LINE",
"1398 -344 OFFCURVE",
"1302 -72 OFFCURVE",
"1202 78 CURVE SMOOTH",
"1164 134 OFFCURVE",
"1114 186 OFFCURVE",
"1048 210 CURVE",
"1002 328 OFFCURVE",
"940 404 OFFCURVE",
"834 474 CURVE",
"868 510 OFFCURVE",
"896 566 OFFCURVE",
"884 616 CURVE",
"938 626 OFFCURVE",
"976 666 OFFCURVE",
"994 712 CURVE SMOOTH",
"1020 776 OFFCURVE",
"1012 836 OFFCURVE",
"1062 836 CURVE SMOOTH",
"1094 836 OFFCURVE",
"1136 818 OFFCURVE",
"1150 840 CURVE SMOOTH",
"1164 862 OFFCURVE",
"1148 892 OFFCURVE",
"1122 924 CURVE",
"1122 980 LINE",
"1154 1006 OFFCURVE",
"1164 1036 OFFCURVE",
"1148 1100 CURVE SMOOTH",
"1138 1140 OFFCURVE",
"1108 1154 OFFCURVE",
"1060 1154 CURVE SMOOTH",
"1004 1154 OFFCURVE",
"948 1138 OFFCURVE",
"924 1104 CURVE",
"928 1100 LINE SMOOTH",
"1000 1024 OFFCURVE",
"1000 942 OFFCURVE",
"968 882 CURVE",
"940 884 OFFCURVE",
"918 870 OFFCURVE",
"904 848 CURVE",
"866 854 OFFCURVE",
"820 866 OFFCURVE",
"776 880 CURVE",
"680 868 OFFCURVE",
"642 836 OFFCURVE",
"632 778 CURVE",
"598 768 LINE",
"578 808 OFFCURVE",
"562 852 OFFCURVE",
"556 922 CURVE",
"554 924 OFFCURVE",
"550 924 OFFCURVE",
"548 924 CURVE",
"546 898 OFFCURVE",
"542 876 OFFCURVE",
"536 860 CURVE",
"542 804 OFFCURVE",
"544 736 OFFCURVE",
"540 690 CURVE",
"510 684 LINE",
"500 716 OFFCURVE",
"482 766 OFFCURVE",
"458 798 CURVE",
"446 798 OFFCURVE",
"434 798 OFFCURVE",
"420 800 CURVE",
"414 808 OFFCURVE",
"406 818 OFFCURVE",
"400 830 CURVE",
"398 812 OFFCURVE",
"398 796 OFFCURVE",
"400 770 CURVE SMOOTH",
"402 752 OFFCURVE",
"402 736 OFFCURVE",
"398 724 CURVE",
"418 652 OFFCURVE",
"430 580 OFFCURVE",
"426 528 CURVE",
"404 524 LINE",
"402 554 OFFCURVE",
"396 586 OFFCURVE",
"388 620 CURVE",
"388 574 OFFCURVE",
"378 534 OFFCURVE",
"364 500 CURVE",
"384 434 OFFCURVE",
"416 374 OFFCURVE",
"442 332 CURVE SMOOTH",
"500 234 OFFCURVE",
"560 170 OFFCURVE",
"592 26 CURVE",
"602 -158 OFFCURVE",
"618 -382 OFFCURVE",
"632 -518 CURVE"
);
},
{
closed = 1;
nodes = (
"400 270 OFFCURVE",
"434 272 CURVE",
"412 300 OFFCURVE",
"392 340 OFFCURVE",
"376 380 CURVE",
"356 364 OFFCURVE",
"352 340 OFFCURVE",
"360 316 CURVE SMOOTH",
"372 280 OFFCURVE"
);
},
{
closed = 1;
nodes = (
"1900 -232 LINE",
"1836 -176 LINE SMOOTH",
"1664 -24 OFFCURVE",
"1454 240 OFFCURVE",
"1270 334 CURVE",
"1220 334 LINE",
"1214 288 LINE",
"1258 286 LINE",
"1394 198 OFFCURVE",
"1470 128 OFFCURVE",
"1686 -88 CURVE SMOOTH",
"1740 -140 OFFCURVE",
"1830 -218 OFFCURVE",
"1880 -260 CURVE"
);
}
);
width = 2108;
}
);
userData = {
com.typemytype.robofont.image = {
path = "/Users/kuti/Documents/Schriften/Hermann/IMG_4955.png";
transform = (
5.27816,
0,
0,
5.27816,
-2,
-498
);
};
com.typemytype.robofont.layerData = {
background = {
anchors = (
);
components = (
);
contours = (
{
points = (
{
segmentType = line;
smooth = 0;
x = 556;
y = 928;
},
{
smooth = 0;
x = 562;
y = 852;
},
{
smooth = 0;
x = 578;
y = 808;
},
{
segmentType = curve;
smooth = 0;
x = 598;
y = 768;
},
{
segmentType = line;
smooth = 0;
x = 632;
y = 778;
},
{
smooth = 0;
x = 642;
y = 840;
},
{
smooth = 0;
x = 686;
y = 872;
},
{
segmentType = curve;
smooth = 0;
x = 796;
y = 882;
},
{
segmentType = line;
smooth = 0;
x = 708;
y = 912;
}
);
},
{
points = (
{
segmentType = curve;
smooth = 0;
x = 306;
y = 696;
},
{
segmentType = line;
smooth = 0;
x = 360;
y = 692;
},
{
segmentType = line;
smooth = 0;
x = 386;
y = 788;
},
{
smooth = 0;
x = 372;
y = 798;
},
{
smooth = 0;
x = 334;
y = 810;
},
{
segmentType = curve;
smooth = 0;
x = 312;
y = 798;
},
{
smooth = 0;
x = 294;
y = 766;
},
{
smooth = 0;
x = 292;
y = 734;
}
);
},
{
points = (
{
smooth = 0;
x = 512;
y = 816;
},
{
smooth = 0;
x = 486;
y = 814;
},
{
segmentType = curve;
smooth = 0;
x = 452;
y = 808;
},
{
smooth = 0;
x = 482;
y = 766;
},
{
smooth = 0;
x = 500;
y = 716;
},
{
segmentType = curve;
smooth = 0;
x = 510;
y = 684;
},
{
segmentType = line;
smooth = 0;
x = 540;
y = 690;
},
{
smooth = 0;
x = 544;
y = 740;
},
{
smooth = 0;
x = 542;
y = 818;
},
{
segmentType = curve;
smooth = 0;
x = 534;
y = 876;
}
);
},
{
points = (
{
segmentType = curve;
smooth = 0;
x = 486;
y = 994;
},
{
segmentType = line;
smooth = 0;
x = 566;
y = 932;
},
{
segmentType = line;
smooth = 0;
x = 710;
y = 920;
},
{
segmentType = line;
smooth = 0;
x = 888;
y = 866;
},
{
segmentType = line;
smooth = 0;
x = 964;
y = 902;
},
{
segmentType = line;
smooth = 0;
x = 960;
y = 1010;
},
{
smooth = 0;
x = 894;
y = 1012;
},
{
smooth = 0;
x = 822;
y = 1034;
},
{
segmentType = curve;
smooth = 0;
x = 814;
y = 1102;
},
{
segmentType = line;
smooth = 0;
x = 792;
y = 1100;
},
{
smooth = 0;
x = 786;
y = 1070;
},
{
smooth = 0;
x = 768;
y = 1060;
},
{
segmentType = curve;
smooth = 0;
x = 752;
y = 1058;
},
{
smooth = 0;
x = 728;
y = 1010;
},
{
smooth = 0;
x = 666;
y = 1006;
},
{
segmentType = curve;
smooth = 0;
x = 614;
y = 1030;
},
{
smooth = 0;
x = 592;
y = 1004;
},
{
smooth = 0;
x = 524;
y = 990;
}
);
},
{
points = (
{
segmentType = line;
smooth = 0;
x = 530;
y = 1122;
},
{
segmentType = line;
smooth = 0;
x = 562;
y = 1122;
},
{
segmentType = line;
smooth = 0;
x = 550;
y = 1162;
},
{
segmentType = line;
smooth = 0;
x = 536;
y = 1162;
}
);
},
{
points = (
{
segmentType = curve;
smooth = 1;
x = 876;
y = 1094;
},
{
smooth = 0;
x = 942;
y = 1040;
},
{
smooth = 0;
x = 956;
y = 970;
},
{
segmentType = curve;
smooth = 0;
x = 946;
y = 916;
},
{
smooth = 0;
x = 920;
y = 918;
},
{
smooth = 0;
x = 900;
y = 902;
},
{
segmentType = curve;
smooth = 0;
x = 892;
y = 888;
},
{
smooth = 0;
x = 840;
y = 896;
},
{
smooth = 0;
x = 776;
y = 914;
},
{
segmentType = curve;
smooth = 0;
x = 712;
y = 946;
},
{
smooth = 0;
x = 596;
y = 934;
},
{
smooth = 0;
x = 530;
y = 966;
},
{
segmentType = curve;
smooth = 1;
x = 498;
y = 1006;
},
{
smooth = 0;
x = 472;
y = 1038;
},
{
smooth = 0;
x = 472;
y = 1076;
},
{
segmentType = curve;
smooth = 0;
x = 476;
y = 1094;
},
{
smooth = 0;
x = 508;
y = 1098;
},
{
smooth = 0;
x = 564;
y = 1100;
},
{
segmentType = curve;
smooth = 0;
x = 606;
y = 1092;
},
{
smooth = 0;
x = 650;
y = 1108;
},
{
smooth = 0;
x = 730;
y = 1138;
},
{
segmentType = curve;
smooth = 1;
x = 768;
y = 1138;
},
{
smooth = 0;
x = 816;
y = 1138;
},
{
smooth = 0;
x = 854;
y = 1112;
}
);
},
{
points = (
{
segmentType = line;
smooth = 0;
x = 336;
y = 678;
},
{
smooth = 0;
x = 350;
y = 622;
},
{
smooth = 0;
x = 344;
y = 552;
},
{
segmentType = curve;
smooth = 0;
x = 336;
y = 508;
},
{
segmentType = line;
smooth = 0;
x = 360;
y = 490;
},
{
smooth = 0;
x = 384;
y = 542;
},
{
smooth = 0;
x = 398;
y = 610;
},
{
segmentType = curve;
smooth = 0;
x = 378;
y = 686;
}
);
},
{
points = (
{
segmentType = line;
smooth = 0;
x = 914;
y = 1082;
},
{
smooth = 0;
x = 926;
y = 1130;
},
{
smooth = 0;
x = 994;
y = 1154;
},
{
segmentType = curve;
smooth = 1;
x = 1060;
y = 1154;
},
{
smooth = 0;
x = 1108;
y = 1154;
},
{
smooth = 0;
x = 1138;
y = 1140;
},
{
segmentType = curve;
smooth = 1;
x = 1148;
y = 1100;
},
{
smooth = 0;
x = 1164;
y = 1036;
},
{
smooth = 0;
x = 1154;
y = 1006;
},
{
segmentType = curve;
smooth = 0;
x = 1122;
y = 980;
},
{
segmentType = line;
smooth = 0;
x = 1122;
y = 924;
},
{
smooth = 0;
x = 1148;
y = 892;
},
{
smooth = 0;
x = 1164;
y = 862;
},
{
segmentType = curve;
smooth = 1;
x = 1150;
y = 840;
},
{
smooth = 0;
x = 1136;
y = 818;
},
{
smooth = 0;
x = 1094;
y = 836;
},
{
segmentType = curve;
smooth = 1;
x = 1062;
y = 836;
},
{
smooth = 0;
x = 1012;
y = 836;
},
{
smooth = 0;
x = 1020;
y = 776;
},
{
segmentType = curve;
smooth = 1;
x = 994;
y = 712;
},
{
smooth = 0;
x = 976;
y = 666;
},
{
smooth = 0;
x = 938;
y = 626;
},
{
segmentType = curve;
smooth = 0;
x = 884;
y = 616;
},
{
smooth = 0;
x = 896;
y = 566;
},
{
smooth = 0;
x = 868;
y = 510;
},
{
segmentType = curve;
smooth = 0;
x = 834;
y = 474;
},
{
smooth = 0;
x = 940;
y = 404;
},
{
smooth = 0;
x = 1002;
y = 328;
},
{
segmentType = curve;
smooth = 0;
x = 1048;
y = 210;
},
{
smooth = 0;
x = 1114;
y = 186;
},
{
smooth = 0;
x = 1164;
y = 134;
},
{
segmentType = curve;
smooth = 1;
x = 1202;
y = 78;
},
{
smooth = 0;
x = 1302;
y = -72;
},
{
smooth = 0;
x = 1398;
y = -344;
},
{
segmentType = curve;
smooth = 0;
x = 1440;
y = -506;
},
{
segmentType = line;
smooth = 0;
x = 632;
y = -518;
},
{
smooth = 0;
x = 618;
y = -382;
},
{
smooth = 0;
x = 602;
y = -158;
},
{
segmentType = curve;
smooth = 0;
x = 592;
y = 26;
},
{
smooth = 0;
x = 560;
y = 170;
},
{
smooth = 0;
x = 500;
y = 234;
},
{
segmentType = curve;
smooth = 1;
x = 442;
y = 332;
},
{
smooth = 0;
x = 412;
y = 382;
},
{
smooth = 0;
x = 372;
y = 454;
},
{
segmentType = curve;
smooth = 0;
x = 356;
y = 532;
},
{
smooth = 0;
x = 314;
y = 522;
},
{
smooth = 0;
x = 284;
y = 526;
},
{
segmentType = curve;
smooth = 0;
x = 270;
y = 548;
},
{
smooth = 0;
x = 252;
y = 554;
},
{
smooth = 0;
x = 228;
y = 568;
},
{
segmentType = curve;
smooth = 1;
x = 228;
y = 600;
},
{
smooth = 0;
x = 228;
y = 628;
},
{
smooth = 0;
x = 242;
y = 638;
},
{
segmentType = curve;
smooth = 0;
x = 254;
y = 648;
},
{
smooth = 0;
x = 252;
y = 662;
},
{
smooth = 0;
x = 258;
y = 676;
},
{
segmentType = curve;
smooth = 0;
x = 284;
y = 686;
},
{
segmentType = line;
smooth = 0;
x = 266;
y = 692;
},
{
smooth = 0;
x = 328;
y = 656;
},
{
smooth = 0;
x = 412;
y = 656;
},
{
segmentType = curve;
smooth = 1;
x = 400;
y = 770;
},
{
smooth = 0;
x = 396;
y = 810;
},
{
smooth = 0;
x = 398;
y = 826;
},
{
segmentType = curve;
smooth = 0;
x = 408;
y = 856;
},
{
segmentType = line;
smooth = 0;
x = 396;
y = 890;
},
{
smooth = 0;
x = 378;
y = 870;
},
{
smooth = 0;
x = 360;
y = 848;
},
{
segmentType = curve;
smooth = 1;
x = 366;
y = 794;
},
{
smooth = 0;
x = 376;
y = 712;
},
{
smooth = 0;
x = 340;
y = 692;
},
{
segmentType = curve;
smooth = 0;
x = 292;
y = 716;
},
{
smooth = 0;
x = 284;
y = 734;
},
{
smooth = 0;
x = 280;
y = 766;
},
{
segmentType = curve;
smooth = 0;
x = 278;
y = 786;
},
{
smooth = 0;
x = 264;
y = 812;
},
{
smooth = 0;
x = 258;
y = 836;
},
{
segmentType = curve;
smooth = 1;
x = 258;
y = 854;
},
{
smooth = 0;
x = 258;
y = 880;
},
{
smooth = 0;
x = 260;
y = 914;
},
{
segmentType = curve;
smooth = 1;
x = 302;
y = 952;
},
{
smooth = 0;
x = 318;
y = 968;
},
{
smooth = 0;
x = 332;
y = 998;
},
{
segmentType = curve;
smooth = 0;
x = 346;
y = 1010;
},
{
smooth = 0;
x = 350;
y = 966;
},
{
smooth = 0;
x = 362;
y = 928;
},
{
segmentType = curve;
smooth = 0;
x = 382;
y = 894;
},
{
smooth = 0;
x = 388;
y = 848;
},
{
smooth = 0;
x = 404;
y = 818;
},
{
segmentType = curve;
smooth = 0;
x = 420;
y = 800;
},
{
smooth = 0;
x = 500;
y = 788;
},
{
smooth = 0;
x = 546;
y = 824;
},
{
segmentType = curve;
smooth = 0;
x = 548;
y = 936;
},
{
segmentType = line;
smooth = 0;
x = 518;
y = 950;
},
{
smooth = 0;
x = 518;
y = 858;
},
{
smooth = 0;
x = 478;
y = 834;
},
{
segmentType = curve;
smooth = 0;
x = 434;
y = 836;
},
{
smooth = 0;
x = 420;
y = 856;
},
{
smooth = 0;
x = 408;
y = 894;
},
{
segmentType = curve;
smooth = 0;
x = 408;
y = 924;
},
{
smooth = 0;
x = 392;
y = 952;
},
{
smooth = 0;
x = 380;
y = 982;
},
{
segmentType = curve;
smooth = 1;
x = 380;
y = 1018;
},
{
smooth = 0;
x = 380;
y = 1052;
},
{
smooth = 0;
x = 394;
y = 1084;
},
{
segmentType = curve;
smooth = 1;
x = 410;
y = 1110;
},
{
smooth = 0;
x = 428;
y = 1138;
},
{
smooth = 0;
x = 440;
y = 1168;
},
{
segmentType = curve;
smooth = 1;
x = 458;
y = 1182;
},
{
smooth = 0;
x = 486;
y = 1206;
},
{
smooth = 0;
x = 564;
y = 1200;
},
{
segmentType = curve;
smooth = 0;
x = 604;
y = 1194;
},
{
smooth = 0;
x = 586;
y = 1166;
},
{
smooth = 0;
x = 578;
y = 1142;
},
{
segmentType = curve;
smooth = 0;
x = 574;
y = 1114;
},
{
segmentType = line;
smooth = 0;
x = 608;
y = 1112;
},
{
smooth = 0;
x = 628;
y = 1188;
},
{
smooth = 0;
x = 694;
y = 1276;
},
{
segmentType = curve;
smooth = 1;
x = 746;
y = 1276;
},
{
smooth = 0;
x = 784;
y = 1276;
},
{
smooth = 0;
x = 836;
y = 1266;
},
{
segmentType = curve;
smooth = 1;
x = 856;
y = 1262;
},
{
smooth = 0;
x = 916;
y = 1248;
},
{
smooth = 0;
x = 956;
y = 1224;
},
{
segmentType = curve;
smooth = 0;
x = 986;
y = 1182;
},
{
smooth = 0;
x = 940;
y = 1176;
},
{
smooth = 0;
x = 902;
y = 1146;
},
{
segmentType = curve;
smooth = 0;
x = 886;
y = 1106;
}
);
},
{
points = (
{
segmentType = curve;
smooth = 0;
x = 434;
y = 272;
},
{
smooth = 0;
x = 400;
y = 270;
},
{
smooth = 0;
x = 372;
y = 280;
},
{
segmentType = curve;
smooth = 1;
x = 360;
y = 316;
},
{
smooth = 0;
x = 352;
y = 340;
},
{
smooth = 0;
x = 356;
y = 364;
},
{
segmentType = curve;
smooth = 0;
x = 376;
y = 380;
},
{
smooth = 0;
x = 392;
y = 340;
},
{
smooth = 0;
x = 412;
y = 300;
}
);
},
{
points = (
{
segmentType = line;
smooth = 0;
x = 338;
y = 940;
},
{
segmentType = line;
smooth = 0;
x = 336;
y = 922;
},
{
segmentType = line;
smooth = 0;
x = 390;
y = 898;
},
{
segmentType = line;
smooth = 0;
x = 378;
y = 936;
}
);
},
{
points = (
{
segmentType = line;
smooth = 0;
x = 1182;
y = 1022;
},
{
smooth = 0;
x = 1310;
y = 960;
},
{
smooth = 0;
x = 1494;
y = 844;
},
{
segmentType = curve;
smooth = 0;
x = 1618;
y = 758;
},
{
smooth = 0;
x = 1852;
y = 692;
},
{
smooth = 0;
x = 1996;
y = 612;
},
{
segmentType = curve;
smooth = 0;
x = 2100;
y = 524;
},
{
segmentType = line;
smooth = 0;
x = 2084;
y = 466;
},
{
smooth = 0;
x = 2008;
y = 506;
},
{
smooth = 0;
x = 1926;
y = 520;
},
{
segmentType = curve;
smooth = 0;
x = 1844;
y = 516;
},
{
smooth = 0;
x = 1764;
y = 568;
},
{
smooth = 0;
x = 1642;
y = 628;
},
{
segmentType = curve;
smooth = 1;
x = 1514;
y = 680;
},
{
smooth = 0;
x = 1466;
y = 700;
},
{
smooth = 0;
x = 1444;
y = 734;
},
{
segmentType = curve;
smooth = 0;
x = 1442;
y = 778;
},
{
segmentType = line;
smooth = 0;
x = 1368;
y = 816;
},
{
smooth = 0;
x = 1298;
y = 812;
},
{
smooth = 0;
x = 1272;
y = 838;
},
{
segmentType = curve;
smooth = 0;
x = 1236;
y = 900;
},
{
segmentType = line;
smooth = 0;
x = 1226;
y = 894;
},
{
smooth = 0;
x = 1244;
y = 852;
},
{
smooth = 0;
x = 1258;
y = 790;
},
{
segmentType = curve;
smooth = 1;
x = 1252;
y = 740;
},
{
segmentType = line;
smooth = 1;
x = 1196;
y = 316;
},
{
smooth = 0;
x = 1188;
y = 260;
},
{
smooth = 0;
x = 1196;
y = 210;
},
{
segmentType = curve;
smooth = 0;
x = 1206;
y = 158;
},
{
segmentType = line;
smooth = 0;
x = 1190;
y = 154;
},
{
smooth = 0;
x = 1176;
y = 188;
},
{
smooth = 0;
x = 1156;
y = 250;
},
{
segmentType = curve;
smooth = 1;
x = 1164;
y = 328;
},
{
segmentType = line;
smooth = 1;
x = 1210;
y = 752;
},
{
smooth = 0;
x = 1218;
y = 818;
},
{
smooth = 0;
x = 1202;
y = 932;
},
{
segmentType = curve;
smooth = 0;
x = 1170;
y = 1012;
}
);
},
{
points = (
{
segmentType = curve;
smooth = 0;
x = 778;
y = 1162;
},
{
segmentType = line;
smooth = 0;
x = 902;
y = 1092;
},
{
segmentType = line;
smooth = 0;
x = 1006;
y = 1186;
},
{
segmentType = line;
smooth = 0;
x = 970;
y = 1220;
},
{
segmentType = line;
smooth = 0;
x = 946;
y = 1190;
},
{
smooth = 0;
x = 916;
y = 1210;
},
{
smooth = 0;
x = 874;
y = 1228;
},
{
segmentType = curve;
smooth = 0;
x = 836;
y = 1226;
},
{
smooth = 0;
x = 836;
y = 1192;
},
{
smooth = 0;
x = 806;
y = 1164;
}
);
},
{
points = (
{
smooth = 0;
x = 1470;
y = 128;
},
{
smooth = 0;
x = 1394;
y = 198;
},
{
segmentType = curve;
smooth = 0;
x = 1258;
y = 286;
},
{
segmentType = line;
smooth = 0;
x = 1214;
y = 288;
},
{
segmentType = line;
smooth = 0;
x = 1220;
y = 334;
},
{
segmentType = line;
smooth = 0;
x = 1270;
y = 334;
},
{
smooth = 0;
x = 1454;
y = 240;
},
{
smooth = 0;
x = 1664;
y = -24;
},
{
segmentType = curve;
smooth = 1;
x = 1836;
y = -176;
},
{
segmentType = line;
smooth = 0;
x = 1900;
y = -232;
},
{
segmentType = line;
smooth = 0;
x = 1880;
y = -260;
},
{
smooth = 0;
x = 1831;
y = -218;
},
{
smooth = 0;
x = 1740;
y = -140;
},
{
segmentType = curve;
smooth = 1;
x = 1686;
y = -88;
}
);
},
{
points = (
{
segmentType = curve;
smooth = 1;
x = 928;
y = 1100;
},
{
smooth = 0;
x = 886;
y = 1144;
},
{
smooth = 0;
x = 816;
y = 1176;
},
{
segmentType = curve;
smooth = 1;
x = 768;
y = 1176;
},
{
smooth = 0;
x = 732;
y = 1176;
},
{
smooth = 0;
x = 650;
y = 1150;
},
{
segmentType = curve;
smooth = 0;
x = 606;
y = 1128;
},
{
smooth = 0;
x = 566;
y = 1136;
},
{
smooth = 0;
x = 500;
y = 1138;
},
{
segmentType = curve;
smooth = 0;
x = 456;
y = 1126;
},
{
smooth = 0;
x = 438;
y = 1090;
},
{
smooth = 0;
x = 430;
y = 1038;
},
{
segmentType = curve;
smooth = 1;
x = 468;
y = 984;
},
{
smooth = 0;
x = 506;
y = 930;
},
{
smooth = 0;
x = 606;
y = 892;
},
{
segmentType = curve;
smooth = 0;
x = 708;
y = 906;
},
{
smooth = 0;
x = 764;
y = 880;
},
{
smooth = 0;
x = 844;
y = 858;
},
{
segmentType = curve;
smooth = 0;
x = 904;
y = 848;
},
{
smooth = 0;
x = 918;
y = 870;
},
{
smooth = 0;
x = 940;
y = 884;
},
{
segmentType = curve;
smooth = 0;
x = 968;
y = 882;
},
{
smooth = 0;
x = 1000;
y = 942;
},
{
smooth = 0;
x = 1000;
y = 1024;
}
);
},
{
points = (
{
smooth = 0;
x = 334;
y = 580;
},
{
smooth = 0;
x = 270;
y = 564;
},
{
segmentType = curve;
smooth = 0;
x = 212;
y = 574;
},
{
segmentType = line;
smooth = 0;
x = 212;
y = 536;
},
{
segmentType = line;
smooth = 0;
x = 350;
y = 466;
},
{
segmentType = line;
smooth = 0;
x = 356;
y = 622;
}
);
},
{
points = (
{
segmentType = curve;
smooth = 0;
x = 392;
y = 748;
},
{
segmentType = line;
smooth = 0;
x = 366;
y = 674;
},
{
smooth = 0;
x = 386;
y = 632;
},
{
smooth = 0;
x = 400;
y = 576;
},
{
segmentType = curve;
smooth = 0;
x = 404;
y = 524;
},
{
segmentType = line;
smooth = 0;
x = 426;
y = 528;
},
{
smooth = 0;
x = 430;
y = 586;
},
{
smooth = 0;
x = 416;
y = 668;
}
);
},
{
points = (
{
segmentType = curve;
smooth = 0;
x = 436;
y = 814;
},
{
segmentType = line;
smooth = 0;
x = 508;
y = 840;
},
{
segmentType = line;
smooth = 0;
x = 536;
y = 948;
},
{
segmentType = line;
smooth = 0;
x = 478;
y = 984;
},
{
smooth = 0;
x = 466;
y = 960;
},
{
smooth = 0;
x = 462;
y = 922;
},
{
segmentType = curve;
smooth = 0;
x = 466;
y = 900;
},
{
smooth = 0;
x = 444;
y = 872;
},
{
smooth = 0;
x = 430;
y = 838;
}
);
},
{
points = (
{
segmentType = line;
smooth = 0;
x = -24;
y = -524;
},
{
segmentType = line;
smooth = 0;
x = 2130;
y = -524;
},
{
segmentType = line;
smooth = 0;
x = 2130;
y = 1462;
},
{
segmentType = line;
smooth = 0;
x = -24;
y = 1462;
}
);
}
);
lib = {
};
name = hand3;
unicodes = (
);
width = 2108;
};
};
};
},
{
glyphname = three.001;
lastChange = "2018-04-11 19:05:46 +0000";
layers = (
{
layerId = "A06561DA-A1C3-4D4F-A301-2F031DFC9FDA";
paths = (
{
closed = 1;
nodes = (
"252 1400 LINE",
"214 996 LINE",
"322 978 LINE",
"392 1214 OFFCURVE",
"448 1270 OFFCURVE",
"608 1270 CURVE SMOOTH",
"1016 1270 LINE",
"972 1332 LINE",
"546 760 LINE",
"584 684 LINE",
"739 694 OFFCURVE",
"955 670 OFFCURVE",
"1000 483 CURVE SMOOTH",
"1023 388 OFFCURVE",
"992 288 OFFCURVE",
"882 209 CURVE SMOOTH",
"749 114 OFFCURVE",
"534 82 OFFCURVE",
"236 170 CURVE",
"191 124 LINE",
"284 -56 LINE",
"572 -44 OFFCURVE",
"848 21 OFFCURVE",
"1031 133 CURVE SMOOTH",
"1180 225 OFFCURVE",
"1312 379 OFFCURVE",
"1257 588 CURVE SMOOTH",
"1187 854 OFFCURVE",
"852 862 OFFCURVE",
"622 778 CURVE",
"752 778 LINE",
"1198 1322 LINE",
"1178 1440 LINE",
"298 1440 LINE"
);
}
);
width = 1420.91182;
}
);
userData = {
com.typemytype.robofont.layerData = {
background = {
anchors = (
);
components = (
);
contours = (
{
points = (
{
segmentType = line;
smooth = 0;
x = 298;
y = 1440;
},
{
segmentType = line;
smooth = 0;
x = 252;
y = 1400;
},
{
segmentType = line;
smooth = 0;
x = 214;
y = 996;
},
{
segmentType = line;
smooth = 0;
x = 322;
y = 978;
},
{
smooth = 0;
x = 392;
y = 1214;
},
{
smooth = 0;
x = 448;
y = 1270;
},
{
segmentType = curve;
smooth = 1;
x = 608;
y = 1270;
},
{
segmentType = line;
smooth = 0;
x = 1016;
y = 1270;
},
{
segmentType = line;
smooth = 0;
x = 972;
y = 1332;
},
{
segmentType = line;
smooth = 0;
x = 546;
y = 760;
},
{
segmentType = line;
smooth = 0;
x = 584;
y = 684;
},
{
smooth = 0;
x = 739;
y = 694;
},
{
smooth = 0;
x = 955;
y = 670;
},
{
segmentType = curve;
smooth = 1;
x = 1000;
y = 483;
},
{
smooth = 0;
x = 1023;
y = 388;
},
{
smooth = 0;
x = 992;
y = 288;
},
{
segmentType = curve;
smooth = 1;
x = 882;
y = 209;
},
{
smooth = 0;
x = 749;
y = 114;
},
{
smooth = 0;
x = 534;
y = 82;
},
{
segmentType = curve;
smooth = 0;
x = 236;
y = 170;
},
{
segmentType = line;
smooth = 0;
x = 191;
y = 124;
},
{
segmentType = line;
smooth = 0;
x = 284;
y = -56;
},
{
smooth = 0;
x = 572;
y = -44;
},
{
smooth = 0;
x = 848;
y = 21;
},
{
segmentType = curve;
smooth = 1;
x = 1031;
y = 133;
},
{
smooth = 0;
x = 1180;
y = 225;
},
{
smooth = 0;
x = 1312;
y = 379;
},
{
segmentType = curve;
smooth = 1;
x = 1257;
y = 588;
},
{
smooth = 0;
x = 1187;
y = 854;
},
{
smooth = 0;
x = 852;
y = 862;
},
{
segmentType = curve;
smooth = 0;
x = 622;
y = 778;
},
{
segmentType = line;
smooth = 0;
x = 752;
y = 778;
},
{
segmentType = line;
smooth = 0;
x = 1198;
y = 1322;
},
{
segmentType = line;
smooth = 0;
x = 1178;
y = 1440;
}
);
},
{
points = (
{
segmentType = line;
smooth = 0;
x = 1518;
y = 1440;
},
{
segmentType = line;
smooth = 0;
x = 1472;
y = 1400;
},
{
segmentType = line;
smooth = 0;
x = 1434;
y = 996;
},
{
segmentType = line;
smooth = 0;
x = 1542;
y = 978;
},
{
smooth = 0;
x = 1612;
y = 1214;
},
{
smooth = 0;
x = 1668;
y = 1270;
},
{
segmentType = curve;
smooth = 1;
x = 1828;
y = 1270;
},
{
segmentType = line;
smooth = 0;
x = 2216;
y = 1270;
},
{
segmentType = line;
smooth = 0;
x = 2172;
y = 1332;
},
{
segmentType = line;
smooth = 0;
x = 1746;
y = 760;
},
{
segmentType = line;
smooth = 0;
x = 1784;
y = 684;
},
{
smooth = 0;
x = 1932;
y = 694;
},
{
smooth = 0;
x = 2118;
y = 658;
},
{
segmentType = curve;
smooth = 1;
x = 2180;
y = 426;
},
{
smooth = 0;
x = 2236;
y = 220;
},
{
smooth = 0;
x = 2170;
y = 88;
},
{
segmentType = curve;
smooth = 1;
x = 1912;
y = 88;
},
{
smooth = 0;
x = 1690;
y = 88;
},
{
smooth = 0;
x = 1624;
y = 162;
},
{
segmentType = curve;
smooth = 0;
x = 1530;
y = 490;
},
{
segmentType = line;
smooth = 0;
x = 1420;
y = 478;
},
{
segmentType = line;
smooth = 0;
x = 1454;
y = 104;
},
{
segmentType = line;
smooth = 0;
x = 1482;
y = 66;
},
{
smooth = 0;
x = 1572;
y = 14;
},
{
smooth = 0;
x = 1724;
y = -44;
},
{
segmentType = curve;
smooth = 1;
x = 1922;
y = -44;
},
{
smooth = 0;
x = 1996;
y = -44;
},
{
smooth = 0;
x = 2106;
y = -32;
},
{
segmentType = curve;
smooth = 1;
x = 2204;
y = 22;
},
{
smooth = 0;
x = 2414;
y = 138;
},
{
smooth = 0;
x = 2502;
y = 362;
},
{
segmentType = curve;
smooth = 1;
x = 2422;
y = 578;
},
{
smooth = 0;
x = 2328;
y = 832;
},
{
smooth = 0;
x = 2052;
y = 862;
},
{
segmentType = curve;
smooth = 0;
x = 1822;
y = 778;
},
{
segmentType = line;
smooth = 0;
x = 1952;
y = 778;
},
{
segmentType = line;
smooth = 0;
x = 2398;
y = 1322;
},
{
segmentType = line;
smooth = 0;
x = 2378;
y = 1440;
}
);
}
);
lib = {
};
name = three;
unicodes = (
);
width = 1420.91182;
};
};
};
},
{
glyphname = two.002;
lastChange = "2018-04-11 19:05:46 +0000";
layers = (
{
layerId = "A06561DA-A1C3-4D4F-A301-2F031DFC9FDA";
paths = (
{
closed = 1;
nodes = (
"405 1231 OFFCURVE",
"484 1358 OFFCURVE",
"657 1358 CURVE SMOOTH",
"777 1358 OFFCURVE",
"888 1276 OFFCURVE",
"930 1122 CURVE SMOOTH",
"977 950 OFFCURVE",
"950 828 OFFCURVE",
"643 693 CURVE SMOOTH",
"346 562 OFFCURVE",
"102 409 OFFCURVE",
"225 -19 CURVE",
"328 -9 LINE",
"335.153 58.237 OFFCURVE",
"358 133 OFFCURVE",
"492 133 CURVE SMOOTH",
"637 133 OFFCURVE",
"768.715 -32 OFFCURVE",
"944 -32 CURVE SMOOTH",
"1135 -32 OFFCURVE",
"1241 82 OFFCURVE",
"1287 391 CURVE",
"1181 407 LINE",
"1139.624 278.562 OFFCURVE",
"1052 228 OFFCURVE",
"958 228 CURVE SMOOTH",
"803 228 OFFCURVE",
"754 340 OFFCURVE",
"602 340 CURVE SMOOTH",
"483 340 OFFCURVE",
"331.657 274.712 OFFCURVE",
"283 107 CURVE",
"379 148 LINE",
"312 362 OFFCURVE",
"434.463 424.4 OFFCURVE",
"721 554 CURVE SMOOTH",
"1032 695 OFFCURVE",
"1296 890 OFFCURVE",
"1184 1210 CURVE SMOOTH",
"1117 1400 OFFCURVE",
"924 1488 OFFCURVE",
"711 1488 CURVE SMOOTH",
"520 1488 OFFCURVE",
"337 1430 OFFCURVE",
"259 1393 CURVE",
"221 1025 LINE",
"335 1006 LINE"
);
}
);
width = 1420;
}
);
userData = {
com.typemytype.robofont.layerData = {
background = {
anchors = (
);
components = (
);
contours = (
{
points = (
{
segmentType = line;
smooth = 0;
x = -1069;
y = 1068;
},
{
smooth = 0;
x = -996;
y = 1290;
},
{
smooth = 0;
x = -871;
y = 1351;
},
{
segmentType = curve;
smooth = 1;
x = -740;
y = 1351;
},
{
smooth = 0;
x = -651;
y = 1351;
},
{
smooth = 0;
x = -549;
y = 1303;
},
{
segmentType = curve;
smooth = 1;
x = -531;
y = 1179;
},
{
smooth = 0;
x = -510;
y = 1038;
},
{
smooth = 0;
x = -537;
y = 890;
},
{
segmentType = curve;
smooth = 0;
x = -923;
y = 767;
},
{
segmentType = line;
smooth = 0;
x = -887;
y = 647;
},
{
smooth = 0;
x = -635;
y = 724;
},
{
smooth = 0;
x = -464;
y = 639;
},
{
segmentType = curve;
smooth = 1;
x = -429;
y = 480;
},
{
smooth = 0;
x = -403;
y = 362;
},
{
smooth = 0;
x = -430;
y = 279;
},
{
segmentType = curve;
smooth = 1;
x = -572;
y = 197;
},
{
smooth = 0;
x = -714;
y = 115;
},
{
smooth = 0;
x = -907;
y = 95;
},
{
segmentType = curve;
smooth = 0;
x = -1185;
y = 170;
},
{
segmentType = line;
smooth = 0;
x = -1230;
y = 124;
},
{
segmentType = line;
smooth = 0;
x = -1137;
y = -56;
},
{
smooth = 0;
x = -849;
y = -44;
},
{
smooth = 0;
x = -573;
y = 21;
},
{
segmentType = curve;
smooth = 1;
x = -390;
y = 133;
},
{
smooth = 0;
x = -240;
y = 226;
},
{
smooth = 0;
x = -105;
y = 372;
},
{
segmentType = curve;
smooth = 1;
x = -159;
y = 577;
},
{
smooth = 0;
x = -220;
y = 809;
},
{
smooth = 0;
x = -472;
y = 919;
},
{
segmentType = curve;
smooth = 0;
x = -849;
y = 728;
},
{
segmentType = line;
smooth = 0;
x = -839;
y = 698;
},
{
smooth = 0;
x = -259;
y = 863;
},
{
smooth = 0;
x = -251;
y = 1094;
},
{
segmentType = curve;
smooth = 1;
x = -279;
y = 1238;
},
{
smooth = 0;
x = -312;
y = 1406;
},
{
smooth = 0;
x = -469;
y = 1488;
},
{
segmentType = curve;
smooth = 1;
x = -675;
y = 1488;
},
{
smooth = 0;
x = -831;
y = 1488;
},
{
smooth = 0;
x = -1014;
y = 1440;
},
{
segmentType = curve;
smooth = 0;
x = -1125;
y = 1404;
},
{
segmentType = line;
smooth = 0;
x = -1179;
y = 1103;
}
);
},
{
points = (
{
segmentType = line;
smooth = 0;
x = 578;
y = 852;
},
{
smooth = 0;
x = 474;
y = 942;
},
{
smooth = 0;
x = 418;
y = 1032;
},
{
segmentType = curve;
smooth = 1;
x = 418;
y = 1132;
},
{
smooth = 0;
x = 418;
y = 1256;
},
{
smooth = 0;
x = 524;
y = 1346;
},
{
segmentType = curve;
smooth = 1;
x = 640;
y = 1346;
},
{
smooth = 0;
x = 770;
y = 1346;
},
{
smooth = 0;
x = 870;
y = 1266;
},
{
segmentType = curve;
smooth = 1;
x = 930;
y = 1122;
},
{
smooth = 0;
x = 954;
y = 1064;
},
{
smooth = 0;
x = 966;
y = 1008;
},
{
segmentType = curve;
smooth = 1;
x = 966;
y = 934;
},
{
smooth = 0;
x = 966;
y = 824;
},
{
smooth = 0;
x = 928;
y = 712;
},
{
segmentType = curve;
smooth = 1;
x = 806;
y = 582;
},
{
smooth = 0;
x = 658;
y = 426;
},
{
smooth = 0;
x = 428;
y = 288;
},
{
segmentType = curve;
smooth = 0;
x = 194;
y = 162;
},
{
segmentType = line;
smooth = 0;
x = 218;
y = 0;
},
{
segmentType = line;
smooth = 0;
x = 1172;
y = 0;
},
{
segmentType = line;
smooth = 0;
x = 1284;
y = 316;
},
{
segmentType = line;
smooth = 0;
x = 1232;
y = 338;
},
{
smooth = 0;
x = 988;
y = 170;
},
{
smooth = 0;
x = 804;
y = 172;
},
{
segmentType = curve;
smooth = 0;
x = 284;
y = 158;
},
{
segmentType = line;
smooth = 0;
x = 294;
y = 74;
},
{
smooth = 0;
x = 522;
y = 192;
},
{
smooth = 0;
x = 792;
y = 364;
},
{
segmentType = curve;
smooth = 1;
x = 960;
y = 522;
},
{
smooth = 0;
x = 1108;
y = 660;
},
{
smooth = 0;
x = 1224;
y = 824;
},
{
segmentType = curve;
smooth = 1;
x = 1224;
y = 1018;
},
{
smooth = 0;
x = 1224;
y = 1080;
},
{
smooth = 0;
x = 1212;
y = 1142;
},
{
segmentType = curve;
smooth = 1;
x = 1184;
y = 1210;
},
{
smooth = 0;
x = 1104;
y = 1396;
},
{
smooth = 0;
x = 908;
y = 1488;
},
{
segmentType = curve;
smooth = 1;
x = 718;
y = 1488;
},
{
smooth = 0;
x = 410;
y = 1488;
},
{
smooth = 0;
x = 204;
y = 1286;
},
{
segmentType = curve;
smooth = 1;
x = 204;
y = 1028;
},
{
smooth = 0;
x = 204;
y = 912;
},
{
smooth = 0;
x = 252;
y = 796;
},
{
segmentType = curve;
smooth = 0;
x = 336;
y = 702;
},
{
segmentType = line;
smooth = 0;
x = 568;
y = 788;
}
);
}
);
lib = {
};
name = two;
unicodes = (
);
width = 1420;
};
};
};
},
{
glyphname = two.001;
lastChange = "2018-04-11 19:05:46 +0000";
layers = (
{
layerId = "A06561DA-A1C3-4D4F-A301-2F031DFC9FDA";
paths = (
{
closed = 1;
nodes = (
"474 942 OFFCURVE",
"418 1032 OFFCURVE",
"418 1132 CURVE SMOOTH",
"418 1256 OFFCURVE",
"524 1346 OFFCURVE",
"640 1346 CURVE SMOOTH",
"770 1346 OFFCURVE",
"870 1266 OFFCURVE",
"930 1122 CURVE SMOOTH",
"954 1064 OFFCURVE",
"966 1008 OFFCURVE",
"966 934 CURVE SMOOTH",
"966 824 OFFCURVE",
"928 712 OFFCURVE",
"806 582 CURVE SMOOTH",
"658 426 OFFCURVE",
"428 288 OFFCURVE",
"194 162 CURVE",
"218 0 LINE",
"1172 0 LINE",
"1284 316 LINE",
"1232 338 LINE",
"988 170 OFFCURVE",
"804 172 OFFCURVE",
"284 158 CURVE",
"294 74 LINE",
"522 192 OFFCURVE",
"792 364 OFFCURVE",
"960 522 CURVE SMOOTH",
"1108 660 OFFCURVE",
"1224 824 OFFCURVE",
"1224 1018 CURVE SMOOTH",
"1224 1080 OFFCURVE",
"1212 1142 OFFCURVE",
"1184 1210 CURVE SMOOTH",
"1104 1396 OFFCURVE",
"908 1488 OFFCURVE",
"718 1488 CURVE SMOOTH",
"410 1488 OFFCURVE",
"204 1286 OFFCURVE",
"204 1028 CURVE SMOOTH",
"204 912 OFFCURVE",
"252 796 OFFCURVE",
"336 702 CURVE",
"568 788 LINE",
"578 852 LINE"
);
}
);
width = 1420;
}
);
userData = {
com.typemytype.robofont.layerData = {
background = {
anchors = (
);
components = (
);
contours = (
{
points = (
{
segmentType = line;
smooth = 0;
x = 578;
y = 852;
},
{
smooth = 0;
x = 474;
y = 922;
},
{
smooth = 0;
x = 410;
y = 1034;
},
{
segmentType = curve;
smooth = 1;
x = 410;
y = 1134;
},
{
smooth = 0;
x = 410;
y = 1202;
},
{
smooth = 0;
x = 438;
y = 1262;
},
{
segmentType = curve;
smooth = 1;
x = 502;
y = 1302;
},
{
smooth = 0;
x = 556;
y = 1336;
},
{
smooth = 0;
x = 608;
y = 1352;
},
{
segmentType = curve;
smooth = 1;
x = 658;
y = 1352;
},
{
smooth = 0;
x = 772;
y = 1352;
},
{
smooth = 0;
x = 870;
y = 1266;
},
{
segmentType = curve;
smooth = 1;
x = 930;
y = 1122;
},
{
smooth = 0;
x = 954;
y = 1064;
},
{
smooth = 0;
x = 966;
y = 1008;
},
{
segmentType = curve;
smooth = 1;
x = 966;
y = 954;
},
{
smooth = 0;
x = 966;
y = 836;
},
{
smooth = 0;
x = 908;
y = 724;
},
{
segmentType = curve;
smooth = 1;
x = 788;
y = 590;
},
{
smooth = 0;
x = 656;
y = 440;
},
{
smooth = 0;
x = 446;
y = 294;
},
{
segmentType = curve;
smooth = 0;
x = 204;
y = 144;
},
{
segmentType = line;
smooth = 0;
x = 228;
y = 0;
},
{
segmentType = line;
smooth = 0;
x = 1168;
y = 0;
},
{
segmentType = line;
smooth = 0;
x = 1280;
y = 316;
},
{
segmentType = line;
smooth = 0;
x = 1228;
y = 338;
},
{
smooth = 0;
x = 984;
y = 170;
},
{
smooth = 0;
x = 814;
y = 172;
},
{
segmentType = curve;
smooth = 0;
x = 294;
y = 158;
},
{
segmentType = line;
smooth = 0;
x = 314;
y = 66;
},
{
smooth = 0;
x = 588;
y = 226;
},
{
smooth = 0;
x = 794;
y = 372;
},
{
segmentType = curve;
smooth = 1;
x = 960;
y = 532;
},
{
smooth = 0;
x = 1121;
y = 689;
},
{
smooth = 0;
x = 1224;
y = 824;
},
{
segmentType = curve;
smooth = 1;
x = 1224;
y = 1018;
},
{
smooth = 0;
x = 1224;
y = 1080;
},
{
smooth = 0;
x = 1212;
y = 1142;
},
{
segmentType = curve;
smooth = 1;
x = 1184;
y = 1210;
},
{
smooth = 0;
x = 1104;
y = 1396;
},
{
smooth = 0;
x = 908;
y = 1488;
},
{
segmentType = curve;
smooth = 1;
x = 718;
y = 1488;
},
{
smooth = 0;
x = 616;
y = 1488;
},
{
smooth = 0;
x = 516;
y = 1462;
},
{
segmentType = curve;
smooth = 1;
x = 436;
y = 1412;
},
{
smooth = 0;
x = 274;
y = 1312;
},
{
smooth = 0;
x = 204;
y = 1170;
},
{
segmentType = curve;
smooth = 1;
x = 204;
y = 1028;
},
{
smooth = 0;
x = 204;
y = 912;
},
{
smooth = 0;
x = 252;
y = 796;
},
{
segmentType = curve;
smooth = 0;
x = 336;
y = 702;
}
);
}
);
lib = {
};
name = two;
unicodes = (
);
width = 1420;
};
};
};
},
{
glyphname = three.002;
lastChange = "2018-04-11 19:05:46 +0000";
layers = (
{
layerId = "A06561DA-A1C3-4D4F-A301-2F031DFC9FDA";
paths = (
{
closed = 1;
nodes = (
"272 1400 LINE",
"234 996 LINE",
"342 978 LINE",
"412 1214 OFFCURVE",
"468 1270 OFFCURVE",
"628 1270 CURVE SMOOTH",
"1016 1270 LINE",
"972 1332 LINE",
"546 760 LINE",
"584 684 LINE",
"732 694 OFFCURVE",
"918 658 OFFCURVE",
"980 426 CURVE SMOOTH",
"1036 220 OFFCURVE",
"970 88 OFFCURVE",
"712 88 CURVE SMOOTH",
"490 88 OFFCURVE",
"424 162 OFFCURVE",
"330 490 CURVE",
"220 478 LINE",
"254 104 LINE",
"282 66 LINE",
"372 14 OFFCURVE",
"524 -44 OFFCURVE",
"722 -44 CURVE SMOOTH",
"796 -44 OFFCURVE",
"906 -32 OFFCURVE",
"1004 22 CURVE SMOOTH",
"1214 138 OFFCURVE",
"1302 362 OFFCURVE",
"1222 578 CURVE SMOOTH",
"1128 832 OFFCURVE",
"852 862 OFFCURVE",
"622 778 CURVE",
"752 778 LINE",
"1198 1322 LINE",
"1178 1440 LINE",
"318 1440 LINE"
);
}
);
width = 1420.91182;
}
);
userData = {
com.typemytype.robofont.layerData = {
background = {
anchors = (
);
components = (
);
contours = (
);
lib = {
};
name = three;
unicodes = (
);
width = 1420.91182;
};
};
};
},
